<svg width="19" height="18" viewBox="0 0 19 18" fill="none" xmlns="http://www.w3.org/2000/svg">
<path id="Vector" d="M13.6204 9.0742L9.91017 5.36396C9.82536 5.30742 9.75469 5.21531 9.69816 5.08764C9.64162 4.95995 9.61335 4.82921 9.61335 4.69541C9.61335 4.54747 9.64066 4.41661 9.69527 4.30283C9.74987 4.18905 9.82151 4.08339 9.91017 3.98587L13.6204 0.29682C13.677 0.212014 13.7687 0.141343 13.8958 0.0848057C14.0228 0.0282685 14.1528 0 14.2859 0C14.433 0 14.5605 0.0285862 14.6682 0.0857594C14.7759 0.142947 14.8789 0.2133 14.9773 0.29682L18.6876 4.00707C18.7711 4.10591 18.8414 4.2104 18.8986 4.32055C18.9558 4.43069 18.9844 4.55777 18.9844 4.70182C18.9844 4.83172 18.9561 4.96042 18.8996 5.08791C18.843 5.21541 18.7724 5.30742 18.6876 5.36396L14.9985 9.0742C14.8996 9.16287 14.7914 9.2345 14.6741 9.2891C14.5568 9.34372 14.4261 9.37102 14.2819 9.37102C14.1519 9.37102 14.0232 9.34276 13.896 9.28622C13.7688 9.22968 13.677 9.15901 13.6204 9.0742ZM0.984375 7.31449V2.07774C0.984375 1.79823 1.07854 1.56934 1.26688 1.39107C1.45522 1.21281 1.69321 1.12367 1.98084 1.12367H7.21759C7.47731 1.12367 7.70125 1.21281 7.88942 1.39107C8.07758 1.56934 8.17165 1.79823 8.17165 2.07774V7.31449C8.17165 7.60777 8.07758 7.84364 7.88942 8.02208C7.70125 8.20053 7.47731 8.28975 7.21759 8.28975H1.98084C1.69321 8.28975 1.45522 8.20053 1.26688 8.02208C1.07854 7.84364 0.984375 7.60777 0.984375 7.31449ZM10.6946 17.0035V11.7668C10.6946 11.5071 10.7838 11.2831 10.9623 11.095C11.1407 10.9068 11.3766 10.8127 11.6699 10.8127H16.9066C17.1861 10.8127 17.415 10.9068 17.5933 11.095C17.7716 11.2831 17.8607 11.5071 17.8607 11.7668V17.0035C17.8607 17.2912 17.7716 17.5292 17.5933 17.7175C17.415 17.9058 17.1861 18 16.9066 18H11.6699C11.3766 18 11.1407 17.9058 10.9623 17.7175C10.7838 17.5292 10.6946 17.2912 10.6946 17.0035ZM0.984375 17.0035V11.7668C0.984375 11.5071 1.07854 11.2831 1.26688 11.095C1.45522 10.9068 1.69321 10.8127 1.98084 10.8127H7.21759C7.47731 10.8127 7.70125 10.9068 7.88942 11.095C8.07758 11.2831 8.17165 11.5071 8.17165 11.7668V17.0035C8.17165 17.2912 8.07758 17.5292 7.88942 17.7175C7.70125 17.9058 7.47731 18 7.21759 18H1.98084C1.69321 18 1.45522 17.9058 1.26688 17.7175C1.07854 17.5292 0.984375 17.2912 0.984375 17.0035ZM2.93491 6.36042H6.22112V3.053H2.93491V6.36042ZM14.3413 7.10247L16.6946 4.77032L14.3413 2.39576L12.0091 4.77032L14.3413 7.10247ZM12.624 16.0495H15.9314V12.7633H12.624V16.0495ZM2.93491 16.0495H6.22112V12.7633H2.93491V16.0495Z" fill="#65676B"/>
</svg>
