<svg width="16" height="16" viewBox="0 0 16 16" fill="none" xmlns="http://www.w3.org/2000/svg">
<g id="Emoji">
<path id="Vector" d="M1.13468 2.76172H2.60727V3.8793H1.86222C1.11716 3.8793 1.11716 4.25183 1.11716 4.62435V7.70594C1.11716 8.27286 1.65489 8.3492 1.65489 8.3492H2.60727V9.46678H1.13468C0.508105 9.46678 0 8.9591 0 8.33252V3.89599C0 3.26982 0.507688 2.76172 1.13468 2.76172Z" fill="#FFAC33"/>
<path id="Vector_2" d="M2.23486 2.76172H8.56698V10.4943C8.56698 10.9531 8.19154 11.3286 7.73266 11.3286H3.06919C2.61031 11.3286 2.23486 10.9531 2.23486 10.4943V2.76172Z" fill="#FFAC33"/>
<path id="Vector_3" d="M3.5385 10.211C3.74416 10.211 3.91102 10.0446 3.91102 9.83847V5.74152C3.91102 5.53585 3.74458 5.36899 3.5385 5.36899C3.33284 5.36899 3.16597 5.53544 3.16597 5.74152V9.83847C3.16597 10.0446 3.33284 10.211 3.5385 10.211ZM5.40071 10.211C5.60638 10.211 5.77324 10.0446 5.77324 9.83847V5.74152C5.77324 5.53585 5.60679 5.36899 5.40071 5.36899C5.19505 5.36899 5.02819 5.53544 5.02819 5.74152V9.83847C5.0286 10.0446 5.19505 10.211 5.40071 10.211ZM2.23486 4.05951V2.76172H8.56698V4.79664C8.44517 4.84128 8.31502 4.86964 8.17777 4.86964C7.70304 4.86964 7.29714 4.57721 7.12819 4.16297C7.0289 4.24891 6.90083 4.3023 6.75983 4.3023C6.56794 4.3023 6.39899 4.20635 6.29636 4.06035C6.09487 4.37572 5.74404 4.58597 5.34189 4.58597C4.97312 4.58597 4.64815 4.40701 4.44124 4.13419C4.33778 4.39825 4.08248 4.58597 3.78212 4.58597C3.51305 4.58597 3.28194 4.43413 3.16138 4.21345C3.04875 4.26851 2.9236 4.3023 2.78927 4.3023C2.42134 4.3023 2.23486 4.05951 2.23486 4.05951Z" fill="#F4900C"/>
<path id="Vector_4" d="M3.35244 0.89917H8.19446C8.93951 0.89917 9.31204 1.2717 9.31204 2.01675V3.16812C9.31204 3.7947 8.80393 4.30239 8.17777 4.30239C7.70304 4.30239 7.29714 4.00996 7.12819 3.59613C7.0289 3.68165 6.90083 3.73546 6.75983 3.73546C6.56794 3.73546 6.39899 3.63951 6.29636 3.49351C6.09487 3.80847 5.74404 4.01872 5.34189 4.01872C4.97312 4.01872 4.64815 3.83975 4.44124 3.56693C4.33778 3.83099 4.08248 4.01872 3.78212 4.01872C3.52348 4.01872 3.30238 3.87688 3.17849 3.66955C3.07795 3.76508 2.94321 3.82473 2.79344 3.82473C2.48474 3.82473 2.23486 3.57444 2.23486 3.26615V2.01675C2.23486 1.2717 2.60739 0.89917 3.35244 0.89917Z" fill="#E1E8ED"/>
<path id="Vector_5" d="M12.7214 3.19953C12.6146 3.19953 12.5078 3.15865 12.4265 3.0773C12.2634 2.91419 12.2634 2.65012 12.4265 2.48701L13.9083 1.00608C14.0714 0.843389 14.335 0.843389 14.4981 1.00608C14.6612 1.16878 14.6612 1.43326 14.4981 1.59637L13.0164 3.0773C12.935 3.15906 12.8282 3.19953 12.7214 3.19953ZM10.9844 2.4916C10.9389 2.4916 10.8922 2.48368 10.8467 2.46782C10.6294 2.3919 10.5146 2.15412 10.5906 1.93636L10.9952 0.779563C11.0716 0.562221 11.3089 0.447502 11.5267 0.523425C11.744 0.599349 11.8587 0.837132 11.7828 1.05489L11.3782 2.21168C11.3181 2.38397 11.1567 2.4916 10.9844 2.4916ZM13.547 4.9003C13.3751 4.9003 13.2141 4.79309 13.1536 4.62205C13.0769 4.40471 13.1912 4.16651 13.4081 4.08975L14.4485 3.72223C14.6662 3.64506 14.904 3.75978 14.9808 3.9767C15.0575 4.19404 14.9432 4.43224 14.7263 4.509L13.6859 4.87652C13.6396 4.89279 13.5929 4.9003 13.547 4.9003Z" fill="#FA743E"/>
<path id="Vector_6" d="M13.8832 6.93335H12.4106V8.05093H13.1557C13.9008 8.05093 13.9008 8.42346 13.9008 8.79598V11.8776C13.9008 12.4445 13.363 12.5208 13.363 12.5208H12.4106V13.6384H13.8832C14.5098 13.6384 15.0179 13.1307 15.0179 12.5041V8.06762C15.0179 7.44145 14.5102 6.93335 13.8832 6.93335Z" fill="#FFAC33"/>
<path id="Vector_7" d="M12.783 6.93335H6.45093V14.6659C6.45093 15.1248 6.82637 15.5002 7.28525 15.5002H11.9487C12.4076 15.5002 12.783 15.1248 12.783 14.6659V6.93335Z" fill="#FFCC4D"/>
<path id="Vector_8" d="M7.75461 14.3825C7.54895 14.3825 7.38208 14.2161 7.38208 14.01V9.91305C7.38208 9.70739 7.54895 9.54053 7.75461 9.54053C7.96027 9.54053 8.12713 9.70698 8.12713 9.91305V14.01C8.12713 14.2161 7.96027 14.3825 7.75461 14.3825ZM11.4795 14.3825C11.2738 14.3825 11.1069 14.2161 11.1069 14.01V9.91305C11.1069 9.70739 11.2734 9.54053 11.4795 9.54053C11.6851 9.54053 11.852 9.70698 11.852 9.91305V14.01C11.852 14.2161 11.6851 14.3825 11.4795 14.3825ZM9.61724 14.3825C9.41158 14.3825 9.24471 14.2161 9.24471 14.01V9.91305C9.24471 9.70739 9.41116 9.54053 9.61724 9.54053C9.82332 9.54053 9.98977 9.70698 9.98977 9.91305V14.01C9.98935 14.2161 9.8229 14.3825 9.61724 14.3825Z" fill="#F4900C"/>
<path id="Vector_9" d="M12.783 8.23114V6.93335H6.45093V8.96827C6.57274 9.01291 6.70289 9.04128 6.84014 9.04128C7.31487 9.04128 7.72077 8.74884 7.88972 8.3346C7.98901 8.42054 8.11708 8.47393 8.25808 8.47393C8.44997 8.47393 8.61892 8.37799 8.72155 8.23198C8.92304 8.54735 9.27387 8.7576 9.67602 8.7576C10.0448 8.7576 10.3698 8.57864 10.5767 8.30582C10.6801 8.56988 10.9354 8.7576 11.2358 8.7576C11.5049 8.7576 11.736 8.60576 11.8565 8.38508C11.9692 8.44014 12.0943 8.47393 12.2286 8.47393C12.5966 8.47393 12.783 8.23114 12.783 8.23114Z" fill="#FFAC33"/>
<path id="Vector_10" d="M11.6656 5.0708H6.82363C6.07858 5.0708 5.70605 5.44333 5.70605 6.18838V7.33975C5.70605 7.96633 6.21416 8.47402 6.84032 8.47402C7.31505 8.47402 7.72095 8.18159 7.8899 7.76776C7.98919 7.85328 8.11726 7.90709 8.25826 7.90709C8.45015 7.90709 8.6191 7.81115 8.72173 7.66514C8.92322 7.9801 9.27405 8.19035 9.6762 8.19035C10.045 8.19035 10.3699 8.01138 10.5769 7.73856C10.6803 8.00262 10.9356 8.19035 11.236 8.19035C11.4946 8.19035 11.7157 8.04851 11.8396 7.84118C11.9397 7.93671 12.0749 7.99637 12.2242 7.99637C12.5329 7.99637 12.7828 7.74607 12.7828 7.43778V6.18838C12.7832 5.44333 12.4107 5.0708 11.6656 5.0708Z" fill="#EEEEEE"/>
</g>
</svg>
