<svg width="15" height="16" viewBox="0 0 15 16" fill="none" xmlns="http://www.w3.org/2000/svg">
<g id="Emoji">
<path id="Vector" d="M7.5 15.5C11.6421 15.5 15 12.1421 15 8C15 3.85786 11.6421 0.5 7.5 0.5C3.35786 0.5 0 3.85786 0 8C0 12.1421 3.35786 15.5 7.5 15.5Z" fill="#F4900C"/>
<path id="Vector_2" d="M15 7.58333H11.2579C11.3362 5.28917 12.0675 3.71042 13.2512 3.18917C13.0658 2.96792 12.8654 2.76125 12.6562 2.5625C11.4771 3.22 10.5125 4.75958 10.4254 7.58292H7.91667V0.5H7.08333V7.58333H4.57458C4.48792 4.76 3.52333 3.22042 2.34417 2.56292C2.135 2.76125 1.93417 2.96792 1.74917 3.18917C2.93292 3.71042 3.66375 5.28917 3.74208 7.58333H0V8.41667H3.74208C3.66375 10.7108 2.93292 12.2896 1.74917 12.8108C1.93458 13.0321 2.135 13.2387 2.34417 13.4375C3.52375 12.78 4.48792 11.2404 4.57458 8.41667H7.08333V15.5H7.91667V8.41667H10.4254C10.5125 11.24 11.4767 12.7796 12.6562 13.4375C12.8654 13.2392 13.0662 13.0321 13.2512 12.8108C12.0675 12.2896 11.3367 10.7108 11.2579 8.41667H15V7.58333Z" fill="#231F20"/>
</g>
</svg>
