<svg width="16" height="16" viewBox="0 0 16 16" fill="none" xmlns="http://www.w3.org/2000/svg">
<g id="Emoji">
<path id="Vector" d="M4.4707 1.97948C4.03455 2.41562 4.4707 2.85177 4.4707 3.28791C4.4707 3.72406 5.34299 3.28791 5.34299 3.28791C5.34299 3.28791 5.77913 2.85177 6.21527 3.72406C6.65142 4.59635 7.95985 4.1602 7.52371 3.28791C7.08756 2.41562 5.77913 2.85177 5.77913 1.97948C5.77913 1.10719 4.4707 1.97948 4.4707 1.97948Z" fill="#FFDC5D"/>
<path id="Vector_2" d="M8.39632 6.77686C8.39632 6.77686 7.08789 7.64914 7.08789 8.08529C7.08789 8.52143 8.83247 9.82986 9.26861 10.266C9.70476 10.7022 10.577 10.7022 10.1409 9.82986C9.70476 8.95758 8.39632 6.77686 8.39632 6.77686Z" fill="#F9CA55"/>
<path id="Vector_3" d="M6.36673 1.06378C6.0418 0.76546 5.11892 0.625021 4.65617 1.17195C4.26408 1.1798 4.18819 1.56884 4.26102 1.77034C4.31903 1.93127 4.73468 1.89507 4.89779 2.19034C4.95362 2.09744 4.94097 1.93215 4.90913 1.84884C5.06309 1.94872 5.07007 2.28804 5.62179 2.40362C6.1552 2.51527 6.15258 2.96799 6.15258 2.96799C6.15258 2.96799 6.38853 2.79484 6.52897 2.5506C6.79677 2.08349 6.72437 1.39307 6.36673 1.06378Z" fill="#FFAC33"/>
<path id="Vector_4" d="M9.10862 9.83927C9.10862 9.83927 9.62021 10.1834 9.96433 9.67136C10.3084 9.15932 10.5597 10.4438 10.5597 10.4438C10.5597 10.4438 9.44357 11.5511 8.58786 11.7191C7.73214 11.887 8.07626 11.3749 8.41994 10.8633L9.10862 9.83927Z" fill="#C63900"/>
<path id="Vector_5" d="M3.16238 9.39404C1.47625 9.39404 0.109375 10.7609 0.109375 12.4471C0.109375 14.1332 1.47625 15.5001 3.16238 15.5001C4.84852 15.5001 6.21539 14.1332 6.21539 12.4471C6.21539 10.7609 4.84895 9.39404 3.16238 9.39404ZM3.16238 14.6278C1.95819 14.6278 0.981663 13.6517 0.981663 12.4471C0.981663 11.2424 1.95819 10.2663 3.16238 10.2663C4.36658 10.2663 5.3431 11.2424 5.3431 12.4471C5.3431 13.6517 4.36701 14.6278 3.16238 14.6278ZM12.7576 9.39404C11.0719 9.39404 9.70455 10.7609 9.70455 12.4471C9.70455 14.1332 11.0719 15.5001 12.7576 15.5001C14.4441 15.5001 15.8106 14.1332 15.8106 12.4471C15.8106 10.7609 14.4441 9.39404 12.7576 9.39404ZM12.7576 14.6278C11.5534 14.6278 10.5768 13.6517 10.5768 12.4471C10.5768 11.2424 11.5534 10.2663 12.7576 10.2663C13.9622 10.2663 14.9383 11.2424 14.9383 12.4471C14.9383 13.6517 13.9622 14.6278 12.7576 14.6278Z" fill="#292F33"/>
<g id="Group">
<path id="Vector_6" d="M9.70454 8.52159C9.70454 8.28041 9.49345 8.08545 9.2322 8.08545H4.50701C4.2462 8.08545 4.03467 8.28041 4.03467 8.52159C4.03467 8.76278 4.2462 8.95774 4.50701 8.95774H9.23176C9.49345 8.95774 9.70454 8.76278 9.70454 8.52159ZM13.1937 12.4469C13.1937 12.2057 12.9987 12.0107 12.7576 12.0107H7.95996C7.71921 12.0107 7.52382 12.2057 7.52382 12.4469C7.52382 12.6881 7.71921 12.883 7.95996 12.883H12.7576C12.9987 12.883 13.1937 12.6881 13.1937 12.4469Z" fill="#AAB8C2"/>
<path id="Vector_7" d="M9.36578 7.21338L7.5488 12.3006C7.46811 12.5269 7.58631 12.7768 7.8131 12.8575C7.86151 12.875 7.9108 12.8833 7.95965 12.8833C8.1389 12.8833 8.30682 12.772 8.37049 12.5937L10.2921 7.21338H9.36578Z" fill="#AAB8C2"/>
<path id="Vector_8" d="M12.7577 12.8835C12.6138 12.8835 12.4725 12.812 12.3892 12.6816L9.33615 7.88401C9.20661 7.68077 9.2668 7.41123 9.47004 7.28169C9.67372 7.15216 9.94282 7.21235 10.0724 7.41559L13.1254 12.2132C13.2549 12.4164 13.1947 12.686 12.9915 12.8155C12.9186 12.8613 12.8379 12.8835 12.7577 12.8835ZM8.39582 11.0229L4.73788 8.17753C4.54816 8.02924 4.27426 8.06414 4.12597 8.2543C3.97812 8.44489 4.01257 8.71835 4.20273 8.86621L8.12803 11.9192C8.20741 11.9816 8.30161 12.0112 8.39538 12.0112L8.39582 11.0229Z" fill="#AAB8C2"/>
<path id="Vector_9" d="M3.16236 12.883C3.117 12.883 3.07033 12.8756 3.02454 12.8604C2.796 12.7845 2.67257 12.5376 2.74889 12.3086L3.95788 8.68165L2.46496 7.56164C2.27219 7.41727 2.23337 7.14381 2.37773 6.95103C2.5221 6.75913 2.79512 6.71944 2.98834 6.86381L4.98457 8.36109L3.57669 12.5847C3.5152 12.7675 3.34467 12.883 3.16236 12.883Z" fill="#AAB8C2"/>
</g>
<path id="Vector_10" d="M11.6161 8.08551C11.603 8.08551 11.5904 8.08463 11.5773 8.08289L9.10348 7.7741C8.94124 7.75404 8.82261 7.61098 8.83307 7.44786C8.84311 7.28475 8.97831 7.15783 9.14143 7.15783C9.15931 7.15783 10.9152 7.14998 11.7535 6.59128C11.8625 6.51844 12.0073 6.5228 12.1129 6.60262C12.2171 6.6833 12.2599 6.82112 12.218 6.9463L11.9088 7.87398C11.8669 8.00177 11.7478 8.08551 11.6161 8.08551ZM4.9069 7.64936H2.72618C2.48543 7.64936 2.29004 7.45397 2.29004 7.21322C2.29004 6.97247 2.48543 6.77707 2.72618 6.77707H4.9069C5.14766 6.77707 5.34305 6.97247 5.34305 7.21322C5.34305 7.45397 5.14766 7.64936 4.9069 7.64936Z" fill="#292F33"/>
<path id="Vector_11" d="M9.7041 5.46875L7.95996 6.77718L9.26839 8.08561L9.7041 5.46875Z" fill="#C63900"/>
<path id="Vector_12" d="M8.83155 7.21333C8.83155 7.21333 7.95926 8.52176 7.95926 8.9579C7.95926 9.39405 8.3954 10.7025 8.3954 12.0109C8.3954 13.3193 9.26769 13.3193 9.26769 12.8832C9.26769 12.4471 9.95723 10.5197 9.26769 9.83019C8.83155 9.39405 10.14 8.08561 10.14 8.08561L8.83155 7.21333ZM6.95002 5.59828L5.75062 5.25635C5.55567 6.10945 4.43216 7.21289 4.0344 7.21289C3.59825 7.21289 3.16211 7.21289 3.16211 7.64903C3.16211 8.08518 3.16211 8.08518 4.0344 8.08518C4.90669 8.08518 5.77897 7.21289 6.21512 6.77675C6.49861 6.49325 6.78603 6.01044 6.95002 5.59828Z" fill="#FFDC5D"/>
<path id="Vector_13" d="M9.70394 5.46859L8.39551 7.21316L10.1401 8.5216C10.1401 8.5216 12.3208 6.34088 12.3208 5.46859C12.3208 4.5963 11.0124 4.16016 11.0124 4.16016L9.70394 5.46859Z" fill="#DD551F"/>
<path id="Vector_14" d="M9.26806 2.85129C7.95963 2.41515 6.8322 2.67073 6.21505 3.28744C5.77891 3.72358 5.77891 4.15972 5.77891 5.03201C5.77891 5.10877 5.76582 5.1899 5.74707 5.27189L6.94385 5.61383C7.03195 5.39183 7.08778 5.18466 7.08778 5.03201C7.08778 4.59587 7.52392 4.59587 7.96007 5.03201C8.39621 5.46816 8.83235 5.9043 9.2685 5.9043C9.70464 5.9043 11.8854 4.15972 11.8854 4.15972C10.5765 3.72358 10.0959 3.12694 9.26806 2.85129Z" fill="#FA743E"/>
<path id="Vector_15" d="M8.39622 12.447C8.39622 12.447 8.83236 12.8831 9.26851 12.447C9.70465 12.0108 9.70465 13.3193 9.70465 13.3193C9.70465 13.3193 8.39622 14.1916 7.52393 14.1916C6.65164 14.1916 7.08779 13.7554 7.52393 13.3193L8.39622 12.447ZM4.90707 0.671101C5.77935 0.234957 7.52393 0.671101 6.65164 1.54339C6.2155 1.97953 3.59863 2.41568 3.59863 2.41568C3.59863 1.97953 4.03478 1.10725 4.90707 0.671101Z" fill="#DD551F"/>
</g>
</svg>
