<svg width="14" height="14" viewBox="0 0 14 14" fill="none" xmlns="http://www.w3.org/2000/svg">
<g id="photo_camera_FILL0_wght500_GRAD200_opsz48 (1) 1">
<path id="Vector" d="M6.99263 10.0066C7.68009 10.0066 8.25466 9.776 8.71636 9.31473C9.17804 8.85344 9.40888 8.27996 9.40888 7.59428C9.40888 6.91556 9.17748 6.3448 8.71467 5.882C8.25188 5.41921 7.6773 5.18781 6.99095 5.18781C6.3046 5.18781 5.73286 5.41885 5.27573 5.88095C4.81861 6.34304 4.59005 6.91539 4.59005 7.598C4.59005 8.28247 4.81908 8.85502 5.27713 9.31567C5.73518 9.77632 6.30701 10.0066 6.99263 10.0066ZM6.9887 8.97948C6.59994 8.97948 6.27418 8.84841 6.0114 8.58627C5.74861 8.32414 5.61722 7.99478 5.61722 7.5982C5.61722 7.20161 5.74893 6.87138 6.01237 6.60749C6.27581 6.3436 6.60286 6.21166 6.99351 6.21166C7.38416 6.21166 7.71374 6.34191 7.98226 6.60241C8.25078 6.86291 8.38504 7.19282 8.38504 7.59214C8.38504 7.99147 8.25228 8.32252 7.98677 8.5853C7.72126 8.84808 7.38857 8.97948 6.9887 8.97948ZM2.27876 12.2388C1.99407 12.2388 1.74396 12.1311 1.52841 11.9155C1.31286 11.7 1.20508 11.4498 1.20508 11.1652V4.04318C1.20508 3.76094 1.31286 3.51088 1.52841 3.293C1.74396 3.07512 1.99407 2.96618 2.27876 2.96618H4.22954L5.31559 1.75785H8.69723L9.7866 2.96618H11.7202C12.0024 2.96618 12.2525 3.07512 12.4704 3.293C12.6882 3.51088 12.7972 3.76094 12.7972 4.04318V11.1652C12.7972 11.4498 12.6882 11.7 12.4704 11.9155C12.2525 12.1311 12.0024 12.2388 11.7202 12.2388H2.27876ZM2.27876 11.1652H11.7202V4.04318H9.30834L8.22894 2.83485H5.77997L4.69784 4.04318H2.27876V11.1652Z" fill="white"/>
</g>
</svg>
