<svg width="19" height="18" viewBox="0 0 19 18" fill="none" xmlns="http://www.w3.org/2000/svg">
<g id="Vector">
<path d="M2.81024 17.4255C2.6883 17.4255 2.57354 17.3791 2.47312 17.294C2.30815 17.147 2.23642 16.9072 2.30097 16.6828L3.23343 13.4023C2.57354 12.7756 2.03558 12.0561 1.64825 11.2669C1.1892 10.3308 0.952498 9.32495 0.952498 8.2882C0.952498 7.25919 1.18203 6.25339 1.63391 5.30174C2.06427 4.38878 2.68113 3.56093 3.46296 2.84913C4.25196 2.13733 5.15573 1.58027 6.15274 1.18569C7.19279 0.775629 8.29022 0.574468 9.42351 0.574468C10.5496 0.574468 11.6542 0.783366 12.6943 1.18569C13.6913 1.58027 14.5951 2.13733 15.3769 2.84913C16.1587 3.56093 16.7756 4.38878 17.2059 5.30174C17.6578 6.26112 17.8873 7.26693 17.8873 8.2882C17.8873 9.31722 17.6578 10.3075 17.2059 11.2437C16.7756 12.1412 16.1515 12.9381 15.3697 13.6267C13.7774 15.0116 11.6686 15.7776 9.42351 15.7776C8.41932 15.7776 7.44383 15.6228 6.51137 15.3211L3.06846 17.3482C2.98238 17.4023 2.89631 17.4255 2.81024 17.4255ZM9.42351 1.7118C8.41932 1.7118 7.43666 1.89749 6.51137 2.26112C5.62913 2.60928 4.83295 3.09671 4.15154 3.7234C3.4773 4.33462 2.94652 5.04642 2.58071 5.82785C2.20773 6.62476 2.01406 7.45261 2.01406 8.29594C2.01406 9.98259 2.78155 11.5687 4.17306 12.7679C4.34521 12.9149 4.40976 13.1547 4.35238 13.3791L3.69966 15.6847L6.20295 14.2147C6.33206 14.1373 6.48268 14.1219 6.61897 14.176C7.50839 14.4855 8.45519 14.648 9.42351 14.648C13.5048 14.648 16.833 11.8008 16.833 8.30368C16.833 7.46035 16.6465 6.6325 16.2663 5.83559C15.8933 5.05416 15.3697 4.3501 14.6955 3.73114C14.0141 3.10445 13.2179 2.61702 12.3356 2.26886C11.4104 1.89749 10.4277 1.7118 9.42351 1.7118Z" fill="#65676B"/>
<path fill-rule="evenodd" clip-rule="evenodd" d="M12.4172 1.68947C12.4515 1.70271 12.4858 1.71619 12.52 1.72991C12.6863 1.79555 12.8499 1.86595 13.0107 1.94114C12.8478 1.8645 12.6817 1.79268 12.5127 1.72574C12.4809 1.71346 12.4491 1.70137 12.4172 1.68947ZM16.378 4.90694C16.0714 4.40731 15.703 3.94346 15.2746 3.51724C15.7062 3.94485 16.0751 4.41057 16.378 4.90694ZM2.8149 16.843L3.41209 14.7335L2.812 16.8447L2.8149 16.843ZM2.09611 5.58864C1.87854 6.05716 1.71621 6.53898 1.61318 7.03082C1.71434 6.54044 1.87535 6.05844 2.09611 5.58864ZM5.9699 0.646132C7.07153 0.211797 8.23112 0 9.42351 0C10.6108 0 11.7763 0.220275 12.8741 0.64494L12.8777 0.64636C13.9295 1.06262 14.8882 1.65247 15.7204 2.41013C16.5525 3.16771 17.2157 4.05506 17.6807 5.04137C18.1684 6.0769 18.4199 7.17161 18.4199 8.2882C18.4199 9.4125 18.1685 10.4933 17.6786 11.5084C17.2104 12.4845 16.5366 13.3406 15.7065 14.0717L15.704 14.0739C14.0081 15.5489 11.7784 16.352 9.42351 16.352C8.44526 16.352 7.49126 16.2122 6.57432 15.9385L3.32922 17.8491C3.16417 17.9511 2.98821 18 2.81024 18C2.55647 18 2.32801 17.9016 2.14408 17.7457L2.13896 17.7414L2.13393 17.7369C1.80934 17.4477 1.66144 16.9689 1.79204 16.5135L1.79233 16.5125L2.62578 13.5804C2.03654 12.9723 1.5457 12.2858 1.17757 11.5357C0.679312 10.5196 0.419922 9.42171 0.419922 8.2882C0.419922 7.16477 0.670958 6.06981 1.15952 5.04063C1.62445 4.05462 2.28754 3.16752 3.11945 2.41013L3.12128 2.40846C3.95948 1.65228 4.91792 1.06247 5.9699 0.646132ZM6.69402 2.80075C7.55977 2.46056 8.48055 2.28627 9.42351 2.28627C10.3666 2.28627 11.2862 2.46058 12.1499 2.80726L12.1527 2.80835C12.9812 3.13534 13.7211 3.58992 14.3499 4.16828C14.9751 4.74215 15.4538 5.38837 15.7927 6.09843M6.69402 2.80075C5.86558 3.12772 5.12586 3.58226 4.49708 4.16055L4.4942 4.1632C3.87058 4.72853 3.38692 5.38016 3.05613 6.08675C2.71733 6.81063 2.54664 7.55034 2.54664 8.29594C2.54664 9.78164 3.22011 11.2113 4.5055 12.3191L4.17306 12.7679L4.50363 12.3175C4.85419 12.6168 4.97632 13.0996 4.86578 13.5319L4.86385 13.5394L4.58964 14.508L5.9443 13.7125L5.94663 13.7111C6.19942 13.5605 6.50519 13.5231 6.79082 13.6322C7.62466 13.9213 8.51338 14.0735 9.42351 14.0735C13.3321 14.0735 16.3004 11.3668 16.3004 8.30368C16.3004 7.55498 16.1354 6.81686 15.7927 6.09843" fill="#65676B"/>
<path d="M13.8217 7.62844H5.04803C4.72454 7.62844 4.46417 7.28686 4.46417 6.86248C4.46417 6.4381 4.72454 6.09652 5.04803 6.09652H13.8217C14.1452 6.09652 14.4056 6.4381 14.4056 6.86248C14.4056 7.28686 14.1452 7.62844 13.8217 7.62844Z" fill="#65676B"/>
<path fill-rule="evenodd" clip-rule="evenodd" d="M5.04803 6.28801C4.85351 6.28801 4.6417 6.50709 4.6417 6.86248C4.6417 7.21787 4.85351 7.43695 5.04803 7.43695H13.8217C14.0163 7.43695 14.2281 7.21787 14.2281 6.86248C14.2281 6.50709 14.0163 6.28801 13.8217 6.28801H5.04803ZM4.28665 6.86248C4.28665 6.36911 4.59558 5.90503 5.04803 5.90503H13.8217C14.2742 5.90503 14.5831 6.36911 14.5831 6.86248C14.5831 7.35585 14.2742 7.81993 13.8217 7.81993H5.04803C4.59558 7.81993 4.28665 7.35585 4.28665 6.86248Z" fill="#65676B"/>
<path d="M12.3521 10.6923H5.79916C5.45294 10.6923 5.17427 10.3507 5.17427 9.92631C5.17427 9.50193 5.45294 9.16035 5.79916 9.16035H12.3605C12.7067 9.16035 12.9854 9.50193 12.9854 9.92631C12.9769 10.3507 12.6983 10.6923 12.3521 10.6923Z" fill="#65676B"/>
<path fill-rule="evenodd" clip-rule="evenodd" d="M5.79916 9.35184C5.57163 9.35184 5.3518 9.58395 5.3518 9.92631C5.3518 10.2687 5.57163 10.5008 5.79916 10.5008H12.3521C12.579 10.5008 12.8001 10.2692 12.8079 9.92425C12.807 9.58302 12.5876 9.35184 12.3605 9.35184H5.79916ZM4.99675 9.92631C4.99675 9.41991 5.33425 8.96886 5.79916 8.96886H12.3605C12.8254 8.96886 13.1629 9.41991 13.1629 9.92631V9.93042C13.1529 10.4331 12.8171 10.8838 12.3521 10.8838H5.79916C5.33425 10.8838 4.99675 10.4327 4.99675 9.92631Z" fill="#65676B"/>
</g>
</svg>
