<svg width="16" height="16" viewBox="0 0 16 16" fill="none" xmlns="http://www.w3.org/2000/svg">
<g id="Emoji">
<path id="Vector" d="M7.06083 13.9118C7.08167 13.6604 6.93615 13.4874 6.74601 13.4849H6.66763C6.47749 13.4874 6.33197 13.6604 6.35281 13.9118C6.38409 14.2892 6.34573 14.4956 6.33113 14.8784C6.32071 15.1594 6.45455 15.503 6.70682 15.5001C6.95909 15.503 7.09293 15.1594 7.08251 14.8784C7.06791 14.4956 7.02955 14.2892 7.06083 13.9118Z" fill="#DD2E44"/>
<path id="Vector_2" d="M7.1084 11.949C7.10881 11.8372 6.90575 11.783 6.70728 11.7847C6.5088 11.783 6.30574 11.8372 6.30615 11.949C6.30615 11.949 6.47669 13.3867 6.44417 14.7389C6.44125 14.8582 6.57468 14.9224 6.70728 14.9236C6.83987 14.9224 6.9733 14.8586 6.97038 14.7389C6.93786 13.3867 7.1084 11.949 7.1084 11.949Z" fill="#F7DECE"/>
<path id="Vector_3" d="M6.42627 13.8713H6.99543V14.1424H6.42627V13.8713Z" fill="#DD2E44"/>
<path id="Vector_4" d="M10.1139 9.17538C10.1139 9.17538 11.4324 8.22386 11.6142 8.2126C11.7172 8.20593 12.3993 8.15839 12.544 8.14464C13.069 8.09251 14.151 7.86527 14.2457 7.84484C14.3407 7.82399 14.3799 7.85776 14.5955 7.50876C14.8111 7.15934 14.5772 7.2419 14.5772 7.2419C14.5772 7.2419 14.4295 7.36407 14.3491 7.39993C14.2686 7.43579 14.1147 7.47207 13.9701 7.46915C13.5176 7.45956 10.9783 7.35198 10.9783 7.35198C10.6247 7.37241 10.4413 7.36866 10.3049 7.6326C10.0656 8.09293 10.0993 8.94104 10.1139 9.17538Z" fill="#F7DECE"/>
<path id="Vector_5" d="M6.70051 0.916967C6.78515 0.759354 6.92484 0.506255 7.45355 0.665953C8.25205 0.907377 7.53444 1.33393 7.53444 1.33393C7.53444 1.33393 8.36838 1.7509 8.36838 3.0018C8.36838 4.25271 7.39101 3.9896 7.39101 5.30805L7.24132 5.53071C7.24132 5.53071 7.50984 5.34808 6.67591 6.18201C5.00804 7.84988 3.84804 5.6508 4.00231 5.03369C4.22831 4.12928 3.78174 4.25271 3.78174 3.41877C3.78174 2.58484 4.61567 2.58484 4.61567 1.7509C4.61567 0.916967 5.44961 0.5 5.86657 0.5C6.28354 0.5 6.70051 0.916967 6.70051 0.916967Z" fill="#292F33"/>
<path id="Vector_6" d="M6.12725 3.83579C6.73175 3.83579 7.22179 3.27574 7.22179 2.58489C7.22179 1.89403 6.73175 1.33398 6.12725 1.33398C5.52276 1.33398 5.03271 1.89403 5.03271 2.58489C5.03271 3.27574 5.52276 3.83579 6.12725 3.83579Z" fill="#F7DECE"/>
<path id="Vector_7" d="M6.07516 0.916992C5.68863 0.916992 5.35506 1.04458 5.17534 1.2318C4.71543 1.14507 4.97645 1.86434 4.61577 2.58486C4.19881 3.4188 5.03274 4.25273 5.03274 3.83576C5.03274 3.4188 5.03274 2.16789 5.86668 2.16789H6.07516C6.65099 2.16789 7.11758 1.88811 7.11758 1.54244C7.11758 1.19678 6.65099 0.916992 6.07516 0.916992Z" fill="#292F33"/>
<path id="Vector_8" d="M7.76634 4.38605C7.35772 4.24679 7.06584 4.26221 6.56673 4.25554L6.3866 2.63646C6.36116 2.40754 6.15226 2.24117 5.92627 2.26828C5.69735 2.29371 5.53265 2.49969 5.55808 2.72861L5.72737 4.25304L4.91846 4.27222L4.92763 5.08656C4.93138 5.1958 4.96349 5.33173 5.03229 5.50352C5.44926 6.54594 7.53409 6.74817 7.53409 5.71201C7.53409 5.46016 7.51408 5.27002 7.47155 5.12533C7.97399 5.16203 8.87506 4.76382 7.76634 4.38605Z" fill="#F7DECE"/>
<path id="Vector_9" d="M5.44954 7.17151C5.44954 8.00544 5.44954 8.42241 4.6156 9.67331C3.78167 10.9242 2.94773 10.9242 2.53077 11.7581C2.1138 12.5921 2.53077 12.5921 3.3647 12.1751C4.19863 11.7581 3.78167 13.843 5.03257 13.843C6.28347 13.843 5.8665 12.5921 6.70044 12.5921C7.53437 12.5921 7.95134 13.843 8.78527 13.843C9.61921 13.843 9.86147 12.8343 9.20224 12.1751C8.78527 11.7581 10.0362 10.9242 10.4531 11.3412C11.1124 12.0004 11.8025 11.0226 10.8701 10.0903C10.4531 9.67331 10.1242 9.21256 10.8701 8.83938C11.704 8.42241 11.9125 6.75454 10.8701 7.17151C9.47577 7.72941 7.53437 8.48954 7.53437 7.17151V5.50364C7.53437 5.50364 6.96771 5.35186 6.78759 4.25983L6.70919 4.25732C6.70919 4.25732 6.47528 5.71421 5.53293 4.26066L5.44453 4.26149C5.44453 4.26149 5.80312 5.35228 5.1735 5.83346C5.13139 5.86515 5.44954 6.33757 5.44954 7.17151Z" fill="#DD2E44"/>
<path id="Vector_10" d="M10.87 8.37038C10.4021 8.6043 10.3571 8.87283 10.4913 9.14344C10.5576 9.03795 10.6773 8.93579 10.87 8.83947C11.3916 8.57886 11.6684 7.82874 11.5475 7.40552C11.4696 7.78162 11.2281 8.1915 10.87 8.37038ZM8.78512 13.374C7.95118 13.374 7.53421 12.1231 6.70028 12.1231C5.86634 12.1231 6.28331 13.374 5.03241 13.374C3.78151 13.374 4.19848 11.2892 3.36454 11.7061C2.91422 11.9313 2.5919 12.0284 2.45055 11.9446C2.19578 12.5809 2.60149 12.5567 3.36454 12.1752C4.19848 11.7582 3.78151 13.8431 5.03241 13.8431C6.28331 13.8431 5.86634 12.5922 6.70028 12.5922C7.53421 12.5922 7.95118 13.8431 8.78512 13.8431C9.37763 13.8431 9.66325 13.3335 9.54733 12.8023C9.46019 13.1288 9.19541 13.374 8.78512 13.374ZM10.453 10.8722C10.036 10.4552 8.78512 11.2892 9.20208 11.7061C9.20792 11.712 9.21084 11.7186 9.21626 11.7245C9.47186 11.3659 10.1632 11.0515 10.453 11.3413C10.9496 11.8379 11.4629 11.4055 11.2882 10.7638C11.1773 11.1032 10.8116 11.2308 10.453 10.8722Z" fill="#A0041E"/>
<path id="Vector_11" d="M14.9594 7.03668C14.9594 7.03668 14.7831 6.94912 14.6321 7.1697C14.6021 7.21431 14.5771 7.24141 14.5771 7.24141C14.5942 7.27143 14.5883 7.30396 14.5792 7.3319C14.525 7.49785 14.3824 7.6221 14.1097 7.6613C13.9963 7.67756 13.9054 7.69758 13.8245 7.71884L13.8324 7.46658L13.5614 7.45782L13.5497 7.82225C13.4263 7.89313 13.3871 7.96735 13.3687 8.02281C13.3287 8.14456 13.6006 8.28842 13.7703 8.34429C13.9237 8.39474 14.0571 8.41726 14.1497 8.42018C14.2519 8.4231 14.6234 8.514 14.6234 8.514L14.6601 8.40183C14.6601 8.40183 14.3598 8.26215 14.2573 8.21587C14.1747 8.17834 14.2243 7.97319 14.3507 7.95109C14.6863 7.8923 14.7664 7.9194 14.8177 7.76179L15.0045 7.18846C15.0391 7.08505 14.9594 7.03668 14.9594 7.03668Z" fill="#DD2E44"/>
<path id="Vector_12" d="M5.17555 4.35336C5.13343 4.32084 5.08548 4.29832 5.03378 4.28623C4.96414 4.26955 4.88742 4.27164 4.8057 4.29165C4.64308 4.3321 4.40374 4.37755 4.15022 4.42592C3.80414 4.4918 3.34506 4.62439 3.2208 4.62439C3.09655 4.62439 2.5891 4.46136 2.12251 4.40048C1.96823 4.38047 1.47538 4.33168 1.3703 4.32001C1.2277 4.30416 1.05507 4.28665 0.922896 4.25746C0.862019 4.24412 0.625598 4.18074 0.529696 4.16364C0.347898 4.13112 0.0455966 4.11569 0.0285009 4.15113C-0.0448853 4.30458 0.346647 4.24829 0.669797 4.53183C0.8591 4.69778 1.05174 4.69069 1.23479 4.67735C1.37947 4.66692 1.83814 4.91627 2.20465 5.02802C2.46943 5.10891 3.06194 5.25026 3.147 5.26235C3.23206 5.27444 3.68739 5.24067 3.99052 5.21649C4.29699 5.19272 4.56219 5.17187 4.77401 5.18521C4.97623 5.19814 5.12801 5.15227 5.22558 5.04928C5.34734 4.92044 5.34483 4.73989 5.3415 4.68777C5.33149 4.54642 5.2727 4.42758 5.17555 4.35336ZM9.84474 4.91001C9.77469 4.81453 9.60916 4.67443 9.25599 4.57644C8.98204 4.50014 7.59062 4.31417 7.31751 4.28165C7.10569 4.25621 7.23536 5.03594 7.34252 5.1014C7.41132 5.14352 7.49472 5.14727 7.62064 5.1602C8.13059 5.21273 8.8974 5.17187 9.03499 5.15811C9.09462 5.15227 9.12214 5.17396 9.12589 5.2119C9.09962 5.33282 9.00622 5.49085 8.927 5.67223C8.7944 5.97537 8.65347 6.38691 8.6026 6.43403L8.55632 6.47614C8.45166 6.49532 8.3274 6.5487 8.21649 6.63918C8.17688 6.67128 8.13977 6.7109 8.11141 6.79095C8.07222 6.9027 8.1823 6.91563 8.20898 6.8485C8.22024 6.82056 8.24693 6.77219 8.30864 6.75635C8.30655 6.76927 8.30238 6.78011 8.30197 6.79512C8.30113 6.81931 8.29488 6.83932 8.29071 6.861C8.19564 7.02571 8.00634 7.09159 8.01926 7.15538C8.02218 7.16914 8.03928 7.16998 8.05262 7.17373C7.98841 7.21709 7.93837 7.24712 7.94254 7.28047C7.94588 7.30758 7.9759 7.31383 8.01676 7.31008C7.98716 7.33218 7.96798 7.35177 7.97048 7.37221C7.98132 7.45935 8.20231 7.32384 8.30822 7.28089C8.48877 7.2075 8.59426 7.13078 8.71935 7.0157C8.86487 6.88144 8.93534 6.68755 8.9983 6.57997C9.04459 6.50074 9.59915 5.82651 9.72216 5.60093C9.90354 5.26819 9.91479 5.0055 9.84474 4.91001Z" fill="#F7DECE"/>
</g>
</svg>
