<svg width="15" height="16" viewBox="0 0 15 16" fill="none" xmlns="http://www.w3.org/2000/svg">
<g id="Emoji">
<path id="Vector" d="M15 13.8333C15 14.7537 14.2537 15.5 13.3333 15.5H1.66667C0.74625 15.5 0 14.7537 0 13.8333V2.16667C0 1.24625 0.74625 0.5 1.66667 0.5H13.3333C14.2537 0.5 15 1.24625 15 2.16667V13.8333Z" fill="#226699"/>
<path id="Vector_2" d="M7.49993 1.43701L9.06284 2.99993H11.2499V5.18701L12.8128 6.74993L11.2499 8.31284V10.4999H9.06284L7.49993 12.0628L5.93701 10.4999H3.74993V8.31284L2.18701 6.74993L3.74993 5.18701V2.99993H5.93701L7.49993 1.43701Z" fill="#55ACEE"/>
<path id="Vector_3" d="M7.49989 2.41431L8.43072 4.52639L10.4524 3.93597L9.86155 5.95722L12.5641 6.88847L9.86155 7.81931L10.4524 9.84056L8.43072 9.25014L7.49989 14.3143L6.56864 9.25014L4.5478 9.84056L5.13822 7.81931L2.4353 6.88847L5.13822 5.95722L4.5478 3.93597L6.56864 4.52639L7.49989 2.41431Z" fill="#FFD983"/>
<path id="Vector_4" d="M7.5 8C8.19036 8 8.75 7.44036 8.75 6.75C8.75 6.05964 8.19036 5.5 7.5 5.5C6.80964 5.5 6.25 6.05964 6.25 6.75C6.25 7.44036 6.80964 8 7.5 8Z" fill="#F5F8FA"/>
<path id="Vector_5" d="M4.1662 5.91662C4.08703 5.91662 4.00661 5.89412 3.93536 5.84662L1.43536 4.17995C1.24411 4.05245 1.19245 3.7937 1.31995 3.60203C1.44745 3.41037 1.7062 3.3587 1.89786 3.48662L4.39786 5.15328C4.58953 5.28078 4.64078 5.53953 4.51328 5.7312C4.43286 5.85162 4.30078 5.91662 4.1662 5.91662ZM10.8337 5.91662C10.6991 5.91662 10.5666 5.85162 10.4866 5.7312C10.3587 5.53953 10.4104 5.28078 10.602 5.15328L13.102 3.48662C13.2937 3.3587 13.5524 3.41037 13.6799 3.60203C13.8079 3.79328 13.7562 4.05245 13.5645 4.17995L11.0645 5.84662C10.9933 5.89412 10.9129 5.91662 10.8337 5.91662ZM1.66703 10.5C1.53245 10.5 1.40036 10.435 1.31995 10.3145C1.19245 10.1229 1.24411 9.86453 1.43536 9.73662L3.93536 8.06995C4.12661 7.94162 4.38536 7.9937 4.51328 8.18537C4.64078 8.37703 4.58911 8.63537 4.39786 8.76328L1.89786 10.43C1.82661 10.477 1.7462 10.5 1.66703 10.5ZM13.7495 10.5C13.6795 10.5 13.6083 10.4825 13.5433 10.445L10.6266 8.77828C10.427 8.66412 10.3574 8.40953 10.4716 8.20995C10.5858 8.01037 10.8399 7.94037 11.0399 8.05495L13.9566 9.72162C14.1562 9.83578 14.2258 10.0904 14.1116 10.29C14.0349 10.4245 13.8945 10.5 13.7495 10.5ZM4.16661 14.6666C4.10995 14.6666 4.05286 14.6554 3.99745 14.6308C3.78745 14.537 3.69245 14.2908 3.7862 14.0808L5.45286 10.3308C5.5462 10.1208 5.79203 10.0254 6.00286 10.1191C6.21286 10.2129 6.30786 10.4591 6.21411 10.6691L4.54745 14.4191C4.47828 14.5741 4.32578 14.6666 4.16661 14.6666ZM10.8337 14.6666C10.6737 14.6666 10.5216 14.5745 10.4524 14.4191L8.78578 10.6691C8.69245 10.4587 8.78703 10.2125 8.99745 10.1191C9.20828 10.0258 9.45411 10.1208 9.54745 10.3308L11.2141 14.0808C11.3074 14.2912 11.2129 14.5375 11.0024 14.6308C10.9474 14.6554 10.8904 14.6666 10.8337 14.6666ZM6.25036 3.83328C6.09745 3.83328 5.95036 3.74912 5.87703 3.60287L5.0437 1.9362C4.94078 1.73037 5.02411 1.47995 5.22995 1.37703C5.4362 1.27412 5.6862 1.35787 5.78911 1.56328L6.62245 3.22995C6.72536 3.43578 6.64203 3.6862 6.4362 3.78912C6.37661 3.81912 6.31286 3.83328 6.25036 3.83328ZM8.74953 3.83328C8.68703 3.83328 8.62328 3.81912 8.5637 3.78953C8.35786 3.68662 8.27453 3.4362 8.37745 3.23037L9.21078 1.5637C9.31411 1.35745 9.5637 1.27412 9.76995 1.37745C9.97578 1.48037 10.0591 1.73078 9.9562 1.93662L9.12286 3.60328C9.04953 3.74912 8.90245 3.83328 8.74953 3.83328Z" fill="#FFCC4D"/>
</g>
</svg>
