<svg width="19" height="20" viewBox="0 0 19 20" fill="none" xmlns="http://www.w3.org/2000/svg">
<path id="dark_mode" d="M9.16548 19.1834C6.60079 19.1834 4.43204 18.2966 2.65923 16.5228C0.886408 14.7491 0 12.5798 0 10.0152C0 7.45048 0.886842 5.27621 2.66053 3.49236C4.43421 1.70851 6.60334 0.816589 9.16793 0.816589C9.25436 0.816589 9.36347 0.820756 9.49525 0.829089C9.62703 0.837423 9.82028 0.849923 10.075 0.866589C9.55362 1.42856 9.15524 2.08906 8.87988 2.84811C8.60453 3.60718 8.46685 4.37639 8.46685 5.15574C8.46685 6.70667 9.01068 8.02221 10.0983 9.10236C11.186 10.1825 12.5041 10.7226 14.0527 10.7226C14.8596 10.7226 15.625 10.6047 16.3489 10.369C17.0728 10.1334 17.7328 9.75881 18.3288 9.24541C18.3248 9.41995 18.3302 9.57151 18.3448 9.70011C18.3595 9.8287 18.3668 9.93166 18.3668 10.009C18.3668 12.5729 17.4724 14.743 15.6834 16.5192C13.8945 18.2954 11.7218 19.1834 9.16548 19.1834ZM9.16793 17.2508C10.8074 17.2508 12.2612 16.7553 13.5293 15.7642C14.7974 14.773 15.6128 13.593 15.9755 12.2242C15.6589 12.3575 15.3106 12.4597 14.9309 12.5307C14.5511 12.6018 14.189 12.6353 13.8446 12.6313C11.8479 12.5795 10.1473 11.8584 8.74273 10.468C7.33814 9.07766 6.60796 7.37665 6.55218 5.36496C6.54818 5.06291 6.57435 4.73306 6.6307 4.37539C6.68703 4.01772 6.80488 3.60356 6.98423 3.13291C5.50271 3.63291 4.29039 4.52114 3.34728 5.79759C2.40416 7.07404 1.9326 8.48001 1.9326 10.0155C1.9326 12.037 2.6331 13.7483 4.0341 15.1493C5.43512 16.5503 7.14639 17.2508 9.16793 17.2508Z" fill="#65676B"/>
</svg>
