<svg width="18" height="18" viewBox="0 0 18 18" fill="none" xmlns="http://www.w3.org/2000/svg">
<path id="Vector" d="M5.50859 11.5587C5.79491 12.2764 6.16962 12.8372 6.63272 13.2411C7.0958 13.6451 7.6395 13.9321 8.26381 14.102V14.5352C8.26381 14.7291 8.33123 14.8901 8.46608 15.0182C8.60093 15.1462 8.76915 15.2102 8.97072 15.2102C9.17231 15.2102 9.33752 15.1426 9.46636 15.0074C9.59521 14.8722 9.65963 14.7077 9.65963 14.5137V14.1449C10.5273 14.0484 11.2075 13.7804 11.7001 13.3407C12.1928 12.901 12.4391 12.2898 12.4391 11.5072C12.4391 10.7738 12.2276 10.1604 11.8045 9.66689C11.3814 9.17343 10.6631 8.72317 9.64956 8.3161C8.84275 7.97252 8.25464 7.66498 7.88522 7.39351C7.5158 7.12205 7.33108 6.76772 7.33108 6.33054C7.33108 5.94626 7.47668 5.63447 7.76789 5.39514C8.05909 5.15581 8.46591 5.03614 8.98833 5.03614C9.43458 5.03614 9.80943 5.13589 10.1129 5.33538C10.4163 5.53488 10.6723 5.8503 10.8809 6.28164L12.1142 5.71399C11.8453 5.12793 11.5152 4.69199 11.1241 4.40615C10.7329 4.1203 10.259 3.93459 9.70258 3.84901V3.49842C9.70258 3.30446 9.63874 3.14347 9.51105 3.01544C9.38335 2.8874 9.21872 2.82338 9.01715 2.82338C8.81556 2.82338 8.64677 2.8874 8.51077 3.01544C8.37476 3.14347 8.30676 3.30446 8.30676 3.49842V3.85506C7.55236 3.98578 6.96851 4.27574 6.55522 4.72494C6.14192 5.17413 5.93526 5.72499 5.93526 6.37752C5.93526 7.1153 6.1637 7.70656 6.62057 8.15131C7.07744 8.59604 7.76866 8.99829 8.69424 9.35805C9.57249 9.72653 10.1836 10.0648 10.5275 10.3729C10.8714 10.681 11.0433 11.0583 11.0433 11.5048C11.0433 11.9363 10.8684 12.2821 10.5186 12.5425C10.1688 12.8029 9.70864 12.933 9.13818 12.933C8.5839 12.933 8.09606 12.772 7.67467 12.4499C7.25327 12.1278 6.96384 11.6875 6.80636 11.1292L5.50859 11.5587ZM8.98577 18C7.75194 18 6.58852 17.7658 5.49551 17.2974C4.40251 16.829 3.44753 16.1864 2.63058 15.3694C1.81364 14.5525 1.17096 13.5971 0.70257 12.5033C0.23419 11.4096 0 10.2444 0 9.00774C0 7.76197 0.23419 6.59237 0.70257 5.49895C1.17096 4.40552 1.81498 3.44947 2.63462 2.6308C3.45426 1.81212 4.40875 1.16898 5.49809 0.701388C6.58743 0.233796 7.74865 0 8.98174 0C10.2291 0 11.4025 0.233417 12.5017 0.700251C13.601 1.16708 14.5578 1.80918 15.3724 2.62655C16.1869 3.44391 16.8285 4.4007 17.2971 5.49691C17.7657 6.59312 18 7.76612 18 9.0159C18 10.2509 17.7662 11.413 17.2986 12.5022C16.831 13.5915 16.1879 14.5459 15.3692 15.3655C14.5505 16.185 13.594 16.829 12.4996 17.2974C11.4052 17.7658 10.2339 18 8.98577 18ZM8.99116 16.2139C10.9917 16.2139 12.6936 15.5122 14.0968 14.1086C15.5001 12.7051 16.2018 11.0052 16.2018 9.00884C16.2018 7.00833 15.5011 5.30644 14.0996 3.90316C12.6982 2.49987 10.9952 1.79822 8.99065 1.79822C7.00041 1.79822 5.30209 2.49894 3.89569 3.90037C2.48929 5.30182 1.78609 7.00481 1.78609 9.00935C1.78609 10.9996 2.48784 12.6979 3.89135 14.1043C5.29486 15.5107 6.9948 16.2139 8.99116 16.2139Z" fill="#65676B"/>
</svg>
