<svg width="21" height="18" viewBox="0 0 21 18" fill="none" xmlns="http://www.w3.org/2000/svg">
<path id="Vector" d="M0 11.8185V9.61102H8.77328V11.8185H0ZM0 7.02046V4.81301H13.1316V7.02046H0ZM0 2.22245V0H13.1316V2.22245H0ZM10.0137 18V14.3467L15.9622 8.43978C16.1404 8.24533 16.3445 8.10517 16.5746 8.0193C16.8047 7.93343 17.04 7.8905 17.2807 7.8905C17.5233 7.8905 17.7592 7.93781 17.9885 8.03244C18.2177 8.12706 18.4239 8.26284 18.607 8.43978L19.589 9.4483C19.7641 9.62524 19.897 9.82599 19.9875 10.0506C20.078 10.2751 20.1232 10.5035 20.1232 10.7358C20.1232 10.9814 20.0753 11.2226 19.9794 11.4593C19.8835 11.6961 19.7453 11.9074 19.5648 12.0931L13.667 18H10.0137ZM11.8969 16.1168H12.9055L16.0718 12.9274L15.5941 12.4213L15.0898 11.9419L11.8969 15.1047V16.1168ZM15.5941 12.4196L15.0898 11.9419L16.0718 12.9239L15.5941 12.4196Z" fill="#65676B"/>
</svg>
