<svg width="16" height="16" viewBox="0 0 16 16" fill="none" xmlns="http://www.w3.org/2000/svg">
<g id="Emoji">
<path id="Vector" d="M8.00928 15.5C12.1514 15.5 15.5093 12.1421 15.5093 8C15.5093 3.85786 12.1514 0.5 8.00928 0.5C3.86714 0.5 0.509277 3.85786 0.509277 8C0.509277 12.1421 3.86714 15.5 8.00928 15.5Z" fill="#F5F8FA"/>
<path id="Vector_2" d="M8.00928 5.08325C7.77928 5.08325 7.59261 4.89658 7.59261 4.66658V1.74991C7.59261 1.51991 7.77928 1.33325 8.00928 1.33325C8.23928 1.33325 8.42595 1.51991 8.42595 1.74991V4.66658C8.42595 4.89658 8.23928 5.08325 8.00928 5.08325ZM5.26636 6.95825C5.2247 6.95825 5.1822 6.952 5.14053 6.93866L1.79011 5.8795C1.57053 5.80991 1.44886 5.57616 1.51845 5.35658C1.58761 5.137 1.82261 5.01575 2.04136 5.08491L5.3922 6.14408C5.61178 6.21366 5.73345 6.44783 5.66386 6.667C5.6072 6.8445 5.44303 6.95825 5.26636 6.95825ZM10.9434 6.837C10.7626 6.837 10.5964 6.71825 10.5434 6.53616C10.4793 6.31491 10.6064 6.08408 10.8276 6.01991L13.6401 5.20408C13.8614 5.14033 14.0922 5.26783 14.1559 5.48825C14.2201 5.7095 14.093 5.94033 13.8718 6.0045L11.0593 6.82033C11.0209 6.83158 10.9818 6.837 10.9434 6.837ZM11.7772 13.0695C11.6497 13.0695 11.5247 13.0112 11.4426 12.9016L9.16803 9.84616C9.03053 9.662 9.06886 9.40075 9.25345 9.26325C9.43761 9.12533 9.69886 9.16408 9.83636 9.34866L12.1109 12.4041C12.2484 12.5882 12.2101 12.8495 12.0255 12.987C11.9509 13.0428 11.8634 13.0695 11.7772 13.0695ZM4.1547 13.0349C4.07261 13.0349 3.99011 13.0107 3.9172 12.9603C3.72803 12.8287 3.68178 12.5695 3.81303 12.3803L5.94845 9.30741C6.0797 9.11825 6.33928 9.07158 6.52845 9.20283C6.71761 9.33408 6.76386 9.59408 6.63261 9.78283L4.4972 12.8557C4.41636 12.9728 4.28636 13.0349 4.1547 13.0349ZM1.96761 11.7757C1.78428 11.7757 1.61595 11.6537 1.56553 11.4682L0.653863 8.10908C0.593446 7.887 0.724696 7.65825 0.947196 7.59783C1.17011 7.53908 1.39845 7.66908 1.45845 7.89116L2.37011 11.2503C2.43053 11.4724 2.29928 11.7012 2.07678 11.7612C2.04011 11.7716 2.00345 11.7757 1.96761 11.7757ZM9.67595 14.6666H5.92595C5.69595 14.6666 5.50928 14.4803 5.50928 14.2499C5.50928 14.0195 5.69595 13.8332 5.92595 13.8332H9.67595C9.90636 13.8332 10.0926 14.0195 10.0926 14.2499C10.0926 14.4803 9.90636 14.6666 9.67595 14.6666ZM13.8951 11.802C13.8622 11.802 13.8284 11.7982 13.7951 11.7899C13.5718 11.7349 13.4351 11.5091 13.4905 11.2857L14.3759 7.692C14.4314 7.46866 14.6589 7.33283 14.8801 7.387C15.1034 7.442 15.2401 7.66783 15.1847 7.89158L14.2993 11.4853C14.2522 11.6749 14.0822 11.802 13.8951 11.802ZM13.1393 3.70325C13.0684 3.70325 12.9968 3.68533 12.9309 3.64741L9.78011 1.8245C9.58095 1.70908 9.51261 1.4545 9.62845 1.25491C9.74303 1.05575 9.99761 0.986996 10.1976 1.10283L13.3484 2.92575C13.5476 3.04116 13.6159 3.29575 13.5001 3.49533C13.423 3.62866 13.283 3.70325 13.1393 3.70325ZM2.80136 3.70325C2.67136 3.70325 2.54386 3.64283 2.46261 3.5295C2.32845 3.342 2.37095 3.082 2.55803 2.94783L5.13636 1.09866C5.32345 0.964496 5.58386 1.00741 5.71803 1.19408C5.8522 1.38116 5.80928 1.64158 5.62261 1.77575L3.04386 3.62491C2.97011 3.67741 2.88553 3.70325 2.80136 3.70325Z" fill="#CCD6DD"/>
<path id="Vector_3" d="M11.1314 6.13167L8.12803 4.01375C7.98303 3.91167 7.78886 3.9125 7.64428 4.01625L4.65803 6.16917C4.51511 6.2725 4.45219 6.45417 4.50178 6.62375L5.54344 10.2C5.59511 10.3775 5.75803 10.5 5.94344 10.5H9.67594C9.85511 10.5 10.0134 10.3858 10.0709 10.2162L11.2864 6.605C11.3451 6.43042 11.2818 6.23792 11.1314 6.13167ZM1.04761 8.6425C1.07178 8.6425 1.09636 8.64042 1.12053 8.63583C1.24303 8.61417 1.34969 8.53875 1.41094 8.43L2.81719 5.93C2.83844 5.89208 2.85344 5.85167 2.86219 5.80875L3.41761 3.08333C3.44261 2.96083 3.41094 2.83333 3.33178 2.73667C3.25261 2.63958 3.13428 2.58333 3.00928 2.58333H2.83094C1.40303 3.94875 0.509277 5.86833 0.509277 8C0.509277 8.11083 0.520944 8.21875 0.525944 8.32833L0.776777 8.5425C0.852611 8.6075 0.948861 8.6425 1.04761 8.6425ZM4.93303 1.74792C4.97719 1.83917 5.06344 1.90333 5.16344 1.91958L7.81969 2.35375C7.83636 2.35625 7.85344 2.35792 7.87011 2.35792C7.88678 2.35792 7.90386 2.35667 7.92094 2.35375L10.4559 1.93708C10.5393 1.92333 10.6143 1.87625 10.6622 1.80625C10.7105 1.73625 10.728 1.65 10.7114 1.56667L10.5897 0.965417C9.78428 0.669583 8.91761 0.5 8.00928 0.5C6.99886 0.5 6.03678 0.7025 5.15719 1.065L4.94011 1.46083C4.89136 1.54958 4.88886 1.65667 4.93303 1.74792ZM13.4818 2.88292L12.8551 2.84333C12.7601 2.83792 12.6655 2.875 12.6014 2.94708C12.538 3.01917 12.5105 3.11458 12.5284 3.20958L13.0147 5.79208C13.0218 5.82792 13.0347 5.85375 13.0534 5.88542C13.6751 6.92875 14.3668 8.09417 14.4622 8.29458C14.4722 8.32958 14.488 8.3275 14.5097 8.3575C14.568 8.43875 14.6647 8.41667 14.7647 8.41667H14.7676C14.8501 8.41667 14.9022 8.45583 15.5043 8.10292C15.5047 8.06833 15.5093 8.03458 15.5093 8C15.5093 6.01958 14.7359 4.22333 13.4818 2.88292ZM6.56803 14.4067C6.57261 14.3237 6.54386 14.2421 6.48844 14.18L4.61344 12.0967C4.58844 12.0692 4.55886 12.0458 4.52553 12.0288C2.07344 10.75 2.02803 10.735 1.99803 10.7246C1.96553 10.7142 1.93094 10.7083 1.89719 10.7083C1.67344 10.7083 1.60761 10.7354 1.40344 11.5517C2.33511 13.2804 3.92553 14.6 5.83844 15.1779L6.46344 14.6225C6.52553 14.5675 6.56303 14.4896 6.56803 14.4067ZM13.9984 10.8371C13.9197 10.8038 13.8297 10.8046 13.7518 10.8392L11.2172 11.9504C11.173 11.9696 11.1339 11.9987 11.103 12.0358L9.33219 14.1538C9.27844 14.2179 9.25303 14.3004 9.26053 14.3837C9.26886 14.4671 9.30928 14.5437 9.37386 14.5963C9.65844 14.8292 9.89928 15.0254 10.1101 15.1962C11.9589 14.6571 13.5076 13.4262 14.4659 11.8021L14.1693 11.015C14.1393 10.9346 14.0772 10.8704 13.9984 10.8371Z" fill="#31373D"/>
</g>
</svg>
