<svg width="10" height="16" viewBox="0 0 10 16" fill="none" xmlns="http://www.w3.org/2000/svg">
<g id="Emoji">
<path id="Vector" d="M6.66991 13.6477C6.50386 13.3536 5.80748 12.1767 5.72007 11.8902C5.63307 11.6024 5.4482 9.41414 5.54231 8.33631C5.54231 8.33631 3.79821 7.20412 3.95087 8.45384C4.10604 9.72197 4.47243 12.124 4.54144 12.3557C4.61087 12.5866 5.62429 13.7953 5.93923 14.1931C6.11364 14.4135 6.81462 13.9032 6.66991 13.6477Z" fill="#FFDC5D"/>
<path id="Vector_2" d="M5.67502 8.33643C5.61229 8.94665 5.64198 10.175 5.67502 10.8656C5.6905 11.1901 4.27222 11.8188 4.22621 11.4469C4.1183 10.5749 3.91336 9.23357 3.80127 8.45395L5.67502 8.33643Z" fill="#8E9195"/>
<path id="Vector_3" d="M4.19193 11.1818C4.60683 11.1015 5.1196 10.9618 5.66709 10.6804C5.66123 10.5361 5.6558 10.3796 5.6512 10.2119C5.09325 10.5289 4.56501 10.6816 4.13672 10.7682L4.19193 11.1818Z" fill="#B7C0C1"/>
<path id="Vector_4" d="M4.89355 11.4482C4.77519 10.3921 4.59325 8.66686 4.57527 8.44602L4.15869 8.48032C4.1658 8.56397 4.36405 10.4599 4.48702 11.5565C4.60329 11.5448 4.74675 11.5047 4.89355 11.4482ZM5.12568 11.347C5.28085 11.27 5.42348 11.1809 5.52469 11.0931C5.45777 10.1608 5.36952 8.82161 5.34192 8.35693L4.92534 8.38328C4.95671 8.87389 5.05793 10.4143 5.12568 11.347Z" fill="#A0A7AD"/>
<path id="Vector_5" d="M1.97877 1.92074L0.885882 1.32724C0.698088 1.2231 0.898011 0.782263 1.08622 0.886407L2.21215 1.49956L1.97877 1.92074Z" fill="#66757F"/>
<path id="Vector_6" d="M5.17223 8.01067C4.95516 6.81197 2.98898 8.20683 2.98898 8.20683C2.98898 8.20683 2.24951 11.8243 2.24951 12.1718C2.24951 12.5181 2.63179 14.0657 2.73677 14.6211C2.7719 14.8047 3.83802 14.8779 3.79201 14.473C3.76315 14.2225 3.57578 12.5943 3.60631 12.4035C3.63684 12.212 3.79536 11.1956 4.07015 10.5524C4.26672 10.0923 5.46208 9.61173 5.17223 8.01067Z" fill="#FFDC5D"/>
<path id="Vector_7" d="M3.80965 14.5565C3.53445 14.1952 1.83594 14.6636 1.25081 14.9568C0.860165 15.153 0.97602 15.5001 0.97602 15.5001H3.91756C3.91756 15.5001 4.08444 14.9183 3.80965 14.5565Z" fill="#CCD6DD"/>
<path id="Vector_8" d="M5.42578 4.17899C4.52738 3.71055 3.32492 3.0309 2.38386 1.78954C2.28557 1.65988 1.49633 2.18436 1.56033 2.27303C2.4491 3.50185 3.41651 4.5734 6.19243 5.36724C6.22129 5.3756 5.79802 4.37348 5.42578 4.17899Z" fill="#F9CA55"/>
<path id="Vector_9" d="M5.36594 9.46074C5.63738 9.10857 5.80845 8.64976 5.66415 8.01025L2.62599 8.24029C2.62599 8.24029 2.10444 10.1722 1.97394 11.3805C1.93045 11.7833 3.67496 11.997 3.77534 11.6323C3.86066 11.3215 3.97443 10.9702 4.11538 10.6741C4.24838 10.2918 5.09993 9.84051 5.36594 9.46074Z" fill="#A0A7AD"/>
<path id="Vector_10" d="M4.94127 9.8925C5.10857 9.75364 5.27503 9.59512 5.41054 9.40482C4.02865 9.65953 3.09553 9.37889 2.39999 9.13965C2.37447 9.27516 2.32387 9.45041 2.29333 9.60098C2.81824 9.77622 3.43139 9.92679 4.31766 9.92679C4.51674 9.92679 4.72629 9.91341 4.94127 9.8925ZM3.85215 11.3639C3.89564 11.2225 3.94625 11.0803 4.00021 10.9415C3.20261 10.9666 2.5652 10.8097 2.07752 10.6717C2.05702 10.8051 2.02105 11.0184 2.00391 11.1092C2.47151 11.2388 3.08173 11.3651 3.8099 11.3651L3.85215 11.3639Z" fill="#CCD6DD"/>
<path id="Vector_11" d="M2.85073 8.27657C2.83149 8.36775 2.40446 10.6652 2.2334 11.6451C2.34591 11.6941 2.48602 11.7342 2.63575 11.7635C2.79343 10.8517 3.20792 8.61284 3.2602 8.36231L2.85073 8.27657ZM4.30958 8.19961L3.89301 8.16113C3.89259 8.16699 3.83738 8.76174 3.76251 9.13231C3.74118 9.23812 3.71107 9.35565 3.6797 9.47485C3.64499 9.60534 3.60567 9.74128 3.56259 9.88139C3.45803 10.2218 3.33674 10.5799 3.22172 10.9153L3.2213 10.917C3.18659 11.0182 3.03978 11.4678 2.94108 11.807C3.09457 11.8208 3.24347 11.8225 3.37396 11.8104C3.48563 11.4477 3.64666 10.9659 3.65461 10.9421C3.77004 10.6054 3.88757 10.2532 3.98879 9.91569C4.03145 9.77264 4.06951 9.63504 4.10339 9.50204C4.12806 9.40417 4.15441 9.30462 4.1724 9.21512C4.25145 8.82238 4.30707 8.22471 4.30958 8.19961ZM5.02437 8.41166C5.02437 8.67474 4.91353 9.21177 4.81399 9.48238C4.79517 9.53299 4.46225 10.1729 4.40202 10.3101C4.55217 10.1875 4.74833 10.052 4.9449 9.8885C5.02897 9.81865 5.11179 9.74295 5.19167 9.66139C5.21886 9.59154 5.24521 9.51124 5.26988 9.42466C5.36943 9.07668 5.44262 8.63584 5.44262 8.41166H5.02437Z" fill="#B7C0C1"/>
<path id="Vector_12" d="M7.52507 2.62484C7.52507 3.4513 6.85546 4.12175 6.02858 4.12175C5.2017 4.12175 4.53125 3.4513 4.53125 2.62484C4.53125 1.79838 5.2017 1.12793 6.02858 1.12793C6.85504 1.12793 7.52507 1.79796 7.52507 2.62484Z" fill="#FFDC5D"/>
<path id="Vector_13" d="M2.62576 8.24097C2.62576 8.24097 2.44633 5.37011 3.72952 4.38012C4.68689 3.64065 6.29882 4.19358 6.72627 5.0489C7.15455 5.90421 5.52422 6.35299 5.71661 8.51199C5.75509 8.93819 2.62576 9.07914 2.62576 8.24097Z" fill="#FA743E"/>
<path id="Vector_14" d="M5.35171 2.87404C5.1568 3.32073 5.02213 3.70092 4.93848 4.03803C5.17855 4.15137 5.38224 4.58593 5.64992 4.68297C6.09159 4.84316 6.14052 4.56711 6.15056 4.5165C6.25805 3.97404 6.53033 3.45541 6.706 3.17685C6.92014 2.83849 5.59931 2.30522 5.35171 2.87404Z" fill="#FFDC5D"/>
<path id="Vector_15" d="M7.52509 2.78757C7.52509 3.67886 6.91403 4.03102 6.55141 4.12137C6.18879 4.21213 5.65343 3.86289 5.35982 3.44339C5.05032 3.00088 4.86754 2.52826 5.30796 2.10499C5.74838 1.68214 5.2494 2.00419 5.05743 2.19031C4.83366 2.40738 4.83366 2.79552 4.83366 2.79552C4.83366 2.79552 4.3485 2.2794 4.68435 1.70807C5.0202 1.13674 6.39541 1.65663 6.58529 1.76872C6.77559 1.88123 7.52509 2.78757 7.52509 2.78757Z" fill="#FFAC33"/>
<path id="Vector_16" d="M5.24724 2.62422C4.53204 2.0897 4.16523 1.01396 4.43166 0.731642C4.93188 0.201303 5.97416 0.686053 6.24184 1.14278C6.50993 1.60034 5.4639 2.78608 5.24724 2.62422Z" fill="#8E9195"/>
<path id="Vector_17" d="M4.83398 1.72281C4.83398 2.20421 5.53413 3.59907 6.9131 3.59363C7.63541 3.5907 7.76507 2.79478 7.76131 2.26695C7.7588 1.81482 7.26945 1.02642 6.58686 0.8311C5.9047 0.635778 4.83398 1.11509 4.83398 1.72281Z" fill="#A0A7AD"/>
<path id="Vector_18" d="M6.48427 13.5995C7.11164 13.4929 7.02214 14.1792 7.00582 14.4252C6.96693 15.0107 6.85107 15.5001 6.43617 15.5001H5.04717C5.04717 15.5001 4.97021 14.8635 5.71762 14.7188C5.86526 14.6899 5.58712 13.7518 6.48427 13.5995Z" fill="#CCD6DD"/>
<path id="Vector_19" d="M2.61264 3.86853C2.31275 3.52222 2.20401 3.03914 2.27971 2.43603C2.52731 2.3277 2.70047 2.08763 2.70047 1.8074C2.70047 1.42554 2.38135 1.11646 1.98735 1.11646C1.5942 1.11646 1.27466 1.42554 1.27466 1.8074C1.27466 1.89356 1.29306 1.97554 1.32276 2.05166C1.32067 2.05459 1.31188 2.05333 1.31105 2.05751C0.946752 5.0367 3.02545 5.32989 3.70845 5.42651C3.75069 5.43236 4.44791 4.48796 4.40525 4.48796C3.57168 4.48796 2.96857 4.27967 2.61264 3.86853Z" fill="#FFDC5D"/>
<path id="Vector_20" d="M2.95303 3.9502C2.79242 4.48681 2.28174 5.08909 2.28174 5.08909C3.01995 5.7495 3.88949 5.80806 3.88949 5.80806C3.88949 5.80806 4.64986 4.95106 4.79248 4.4362C4.14378 4.61688 2.95303 3.9502 2.95303 3.9502Z" fill="#FA743E"/>
<path id="Vector_21" d="M9.28724 5.42714C9.28181 5.42463 9.27721 5.42421 9.27177 5.42212C9.25127 5.40706 9.23371 5.39033 9.21029 5.37737L2.67724 1.75952C2.48945 1.65537 2.38196 2.14681 2.56975 2.25096L8.79455 5.69733C8.61219 6.01018 8.49466 6.47987 8.44866 6.67561C8.36961 7.0123 8.9242 7.34899 9.28683 7.34899C9.64945 7.34941 9.71637 5.64588 9.28724 5.42714Z" fill="#66757F"/>
</g>
</svg>
