<svg width="30" height="31" viewBox="0 0 30 31" fill="none" xmlns="http://www.w3.org/2000/svg">
<g id="google">
<path id="vector" d="M28.1264 15.9582C28.1264 14.8791 28.0371 14.0916 27.8437 13.2749H15.2693V18.1457H22.6502C22.5014 19.3561 21.6979 21.1791 19.9121 22.404L19.8871 22.5671L23.8629 25.5855L24.1383 25.6124C26.668 23.3228 28.1264 19.954 28.1264 15.9582Z" fill="#4285F4"/>
<path id="vector_2" d="M15.2685 28.7917C18.8845 28.7917 21.9201 27.625 24.1375 25.6125L19.9113 22.4041C18.7803 23.177 17.2625 23.7166 15.2685 23.7166C11.7268 23.7166 8.72092 21.4271 7.6494 18.2625L7.49234 18.2755L3.35826 21.411L3.3042 21.5583C5.50655 25.8458 10.0304 28.7917 15.2685 28.7917Z" fill="#34A853"/>
<path id="vector_3" d="M7.64997 18.2626C7.36723 17.4459 7.20361 16.5709 7.20361 15.6667C7.20361 14.7625 7.36723 13.8876 7.63509 13.0709L7.6276 12.897L3.44171 9.71118L3.30476 9.77502C2.39706 11.5542 1.87622 13.5522 1.87622 15.6667C1.87622 17.7813 2.39706 19.7792 3.30476 21.5584L7.64997 18.2626Z" fill="#FBBC05"/>
<path id="vector_4" d="M15.2685 7.61671C17.7834 7.61671 19.4798 8.68129 20.4471 9.57094L24.2268 5.95425C21.9055 3.83967 18.8846 2.54175 15.2685 2.54175C10.0304 2.54175 5.50656 5.48756 3.3042 9.77502L7.63455 13.0709C8.72096 9.90632 11.7269 7.61671 15.2685 7.61671Z" fill="#EB4335"/>
</g>
</svg>
