<svg width="18" height="18" viewBox="0 0 18 18" fill="none" xmlns="http://www.w3.org/2000/svg">
<g id="Frame 8712">
<rect x="0.5" y="0.5" width="17" height="17" rx="8.5" fill="#B40000"/>
<rect x="0.5" y="0.5" width="17" height="17" rx="8.5" stroke="white"/>
<path id="Vector" d="M9.45033 13C9.33024 13 9.21369 12.9806 9.10066 12.9417C8.98764 12.9029 8.88521 12.8375 8.79338 12.7457L8.24238 12.2265C7.36645 11.4283 6.60706 10.6512 5.96424 9.89536C5.32141 9.13951 5 8.33422 5 7.47947C5 6.78013 5.23311 6.19205 5.69934 5.71523C6.16556 5.23841 6.74481 5 7.43709 5C7.79029 5 8.13996 5.0777 8.48609 5.23311C8.83223 5.38852 9.15364 5.64989 9.45033 6.01722C9.78234 5.64989 10.1108 5.38852 10.4358 5.23311C10.7607 5.0777 11.1033 5 11.4636 5C12.1629 5 12.7492 5.23841 13.2225 5.71523C13.6958 6.19205 13.9325 6.78013 13.9325 7.47947C13.9325 8.33422 13.604 9.14128 12.947 9.90066C12.2901 10.66 11.5307 11.4389 10.6689 12.2371L10.1179 12.7457C10.026 12.8375 9.92185 12.9029 9.8053 12.9417C9.68874 12.9806 9.57042 13 9.45033 13Z" fill="white"/>
</g>
</svg>
