<svg width="19" height="18" viewBox="0 0 19 18" fill="none" xmlns="http://www.w3.org/2000/svg">
<path id="Vector" d="M0.984375 15.9761V6.67568C0.984375 6.35001 1.0593 6.04743 1.20915 5.76794C1.359 5.48847 1.5805 5.24832 1.87366 5.04747L8.651 0.381905C9.02281 0.127302 9.46333 0 9.97258 0C10.4818 0 10.9341 0.127302 11.3293 0.381905L18.1067 5.04747C18.382 5.24832 18.5972 5.48847 18.7521 5.76794C18.9069 6.04743 18.9844 6.35001 18.9844 6.67568V15.9761C18.9844 16.5392 18.7667 17.0172 18.3314 17.4103C17.8962 17.8034 17.3704 18 16.7542 18H13.3615C13.0316 18 12.7624 17.9024 12.5536 17.7071C12.3449 17.5118 12.2406 17.2681 12.2406 16.9759V11.6639C12.2406 11.388 12.1337 11.1524 11.92 10.9571C11.7063 10.7618 11.4484 10.6642 11.1463 10.6642H8.83396C8.51418 10.6642 8.24742 10.7618 8.03369 10.9571C7.81996 11.1524 7.71309 11.388 7.71309 11.6639V16.9759C7.71309 17.2681 7.60873 17.5118 7.40003 17.7071C7.1913 17.9024 6.93091 18 6.61885 18H3.19949C2.58327 18 2.06003 17.8034 1.62976 17.4103C1.1995 17.0172 0.984375 16.5392 0.984375 15.9761Z" fill="#65676B"/>
</svg>
