<svg width="11" height="16" viewBox="0 0 11 16" fill="none" xmlns="http://www.w3.org/2000/svg">
<g id="Emoji">
<path id="Vector" d="M3.69107 10.85L2.96242 9.33496C2.78194 9.43321 2.0107 9.86332 1.54981 10.2782C1.28205 10.5194 1.31831 10.7008 1.39801 11.098L1.40518 11.1338C1.48487 11.5353 2.33497 14.2335 2.44671 14.5861L3.01386 14.4452C3.0185 14.2572 2.99699 13.2633 2.89917 12.6447C2.86838 12.4494 2.83718 12.2125 2.80893 12.0029C2.77899 11.7739 2.69803 11.5445 2.67863 11.445C2.65164 11.3042 2.73345 11.2371 2.86122 11.1751C3.2247 10.9993 3.58439 10.8968 3.69107 10.85ZM7.39885 11.6533C7.16861 11.6251 6.93206 11.6196 6.83128 11.6133C6.68833 11.6044 6.58797 11.5066 6.56014 11.367C6.48087 10.9711 6.46526 10.6219 6.44713 10.5072L4.79754 10.8306C4.8473 11.0301 5.0691 11.8848 5.355 12.4355C5.52071 12.7547 5.70541 12.7653 6.10979 12.7889L6.14648 12.791C6.55761 12.815 9.38029 12.6712 9.74968 12.6523L9.75601 12.0683C9.57469 12.016 8.66387 11.7883 8.04021 11.7275C7.84456 11.7086 7.608 11.679 7.39885 11.6533Z" fill="#F7DECE"/>
<path id="Vector_2" d="M9.05394 12.8855L8.97888 12.7471C8.96961 12.7248 8.98057 12.6995 9.00334 12.6915C9.07545 12.6666 9.22177 12.6 9.27279 12.573C9.22851 12.6742 9.17791 12.8361 9.12141 12.885C9.09948 12.9032 9.06491 12.9116 9.05394 12.8855Z" fill="#8899A6"/>
<path id="Vector_3" d="M10.1475 11.8123C10.0889 11.7655 9.95478 11.7423 9.87045 11.7343C9.81225 11.7288 9.66045 11.7241 9.53353 11.7309C9.47618 11.7343 9.41082 11.741 9.38383 11.749C9.30034 11.7731 9.26366 11.8085 9.24384 11.8325C9.2198 11.8616 9.21769 11.8932 9.22318 11.9088C9.2451 11.9734 9.35137 12.0851 9.39775 12.1914C9.41335 12.2268 9.42221 12.2614 9.41883 12.2938C9.40745 12.4102 9.25902 12.5797 9.1477 12.7054C9.08107 12.7809 9.02752 12.8403 9.02541 12.8635C9.02288 12.8884 9.03005 12.9095 9.04101 12.9301V12.931C9.07137 12.9866 9.13758 13.0444 9.18312 13.1962C9.21221 13.294 9.34968 13.7406 9.34968 13.7406C9.38257 13.8544 9.42642 13.8823 9.44498 13.9434C9.48335 14.0687 9.55082 14.4047 9.58455 14.511C9.61828 14.6172 9.69883 14.6628 9.76081 14.6716C9.8228 14.6805 9.85864 14.6657 9.85864 14.6657C9.85864 14.6657 10.0041 14.6004 10.1007 14.0547C10.1703 13.6605 10.1087 13.5998 10.0564 13.0077C10.0041 12.4157 10.1475 11.8123 10.1475 11.8123Z" fill="#DD551F"/>
<path id="Vector_4" d="M10.0255 12.6927C9.92638 12.6522 9.70036 12.5029 9.63669 12.3423C9.57934 12.1972 9.54013 11.8055 9.53296 11.7313C9.6544 11.7203 9.8412 11.7283 9.90108 11.7342C9.98035 11.7418 10.0714 11.7481 10.1263 11.7945L10.1473 11.8127C10.1473 11.8127 10.0508 12.4338 10.0255 12.6927Z" fill="#FA743E"/>
<path id="Vector_5" d="M9.15645 13.133C9.12567 13.133 9.09657 13.1157 9.08266 13.0861C9.06326 13.0452 9.08055 12.9963 9.12145 12.9774L9.26567 12.909C9.30657 12.8896 9.35506 12.9069 9.37488 12.9478C9.39428 12.9887 9.37699 13.0377 9.33609 13.0566L9.19187 13.1249C9.18007 13.1304 9.16826 13.133 9.15645 13.133ZM9.24838 13.3965C9.2138 13.3965 9.18175 13.3741 9.17037 13.3396C9.15687 13.2966 9.18049 13.2506 9.2235 13.2367L9.38373 13.1857C9.42464 13.1717 9.47229 13.1954 9.4862 13.2388C9.4997 13.2818 9.47608 13.3278 9.43307 13.3417L9.27283 13.3927C9.26524 13.3957 9.25681 13.3965 9.24838 13.3965ZM9.32597 13.6651C9.28759 13.6651 9.25386 13.6385 9.24585 13.5997C9.23699 13.5555 9.26524 13.5125 9.30994 13.5032L9.46006 13.4728C9.50686 13.4631 9.54734 13.4926 9.55662 13.5369C9.56548 13.5812 9.53722 13.6242 9.49253 13.6335L9.34241 13.6638L9.32597 13.6651ZM10.4965 11.9236C10.494 11.9118 10.4851 11.8658 10.4539 11.8097C10.4434 11.7908 10.4194 11.7849 10.3949 11.7819C10.3645 11.7781 10.1419 11.7461 10.1377 11.7912C10.1377 11.7912 10.1364 11.8582 10.1052 11.9042C10.0736 11.9502 10.0517 12.0632 10.0437 12.1475C10.0356 12.2314 9.99938 12.5485 10.0078 12.7707C10.0162 12.9934 10.085 13.3957 10.0879 13.5297C10.0913 13.6638 10.0879 13.873 10.0593 14.0273C10.0306 14.1817 10.0002 14.3191 9.97661 14.4039C9.94625 14.5131 9.90577 14.6025 9.85896 14.6649C9.85896 14.6649 10.0348 14.6531 10.1693 14.3929C10.2756 14.1876 10.335 13.9902 10.3574 13.7979C10.3591 13.7832 10.405 13.27 10.427 13.0136C10.443 12.826 10.47 12.5266 10.47 12.5266C10.5041 12.172 10.5121 11.9915 10.4965 11.9236Z" fill="#CCD6DD"/>
<path id="Vector_6" d="M2.05657 13.9818L2.17 13.8726C2.18898 13.8574 2.21639 13.8612 2.2303 13.8814C2.27331 13.9442 2.37705 14.0674 2.41626 14.1095C2.30663 14.0939 2.13753 14.088 2.07513 14.0467C2.05151 14.0307 2.03465 13.9995 2.05657 13.9818Z" fill="#8899A6"/>
<path id="Vector_7" d="M3.38238 14.75C3.4119 14.6813 3.39841 14.5455 3.38365 14.462C3.37353 14.4047 3.33769 14.2571 3.29679 14.1365C3.27865 14.0821 3.2542 14.021 3.23944 13.9973C3.1939 13.9231 3.15004 13.8974 3.12137 13.8848C3.08679 13.8696 3.05601 13.8755 3.04209 13.8852C2.98559 13.9235 2.90631 14.056 2.8165 14.1289C2.78656 14.1534 2.75578 14.1711 2.72373 14.1766C2.60861 14.1968 2.40537 14.099 2.25483 14.0252C2.16459 13.9809 2.09248 13.9455 2.07014 13.9493C2.04526 13.9535 2.02713 13.9657 2.00984 13.9822L2.00899 13.9826H2.00941C1.96387 14.0264 1.9255 14.1061 1.79183 14.19C1.70497 14.244 1.31112 14.4953 1.31112 14.4953C1.20992 14.5573 1.19516 14.6071 1.14119 14.6412C1.03071 14.7117 0.724996 14.8664 0.631384 14.9271C0.537773 14.9879 0.515424 15.0777 0.523858 15.1401C0.532291 15.2025 0.555905 15.2328 0.555905 15.2328C0.555905 15.2328 0.65795 15.3556 1.20908 15.3028C1.60756 15.2649 1.64973 15.1894 2.20634 14.9811C2.76295 14.7732 3.38238 14.75 3.38238 14.75Z" fill="#DD551F"/>
<path id="Vector_8" d="M2.50146 14.8674C2.51412 14.7612 2.59761 14.5035 2.73549 14.3994C2.85989 14.3057 3.22717 14.1632 3.29674 14.1362C3.33975 14.2505 3.38192 14.4327 3.39204 14.4917C3.40596 14.5701 3.42409 14.6595 3.39373 14.7249L3.38192 14.7498C3.38234 14.7502 2.75742 14.8227 2.50146 14.8674Z" fill="#FA743E"/>
<path id="Vector_9" d="M2.02864 14.3274C2.00587 14.3274 1.98268 14.3177 1.96665 14.2992L1.8625 14.1781C1.83298 14.144 1.83678 14.0921 1.87093 14.0626C1.90509 14.0331 1.95737 14.0369 1.98647 14.071L2.09062 14.1921C2.12014 14.2262 2.11635 14.2781 2.08219 14.3076C2.06617 14.3211 2.04719 14.3274 2.02864 14.3274ZM1.78618 14.5066C1.75961 14.5066 1.73347 14.4936 1.71744 14.4695L1.62552 14.3287C1.60106 14.2907 1.6116 14.2401 1.64955 14.2153C1.6875 14.1908 1.73768 14.2009 1.76298 14.2389L1.85491 14.3797C1.87937 14.4177 1.86882 14.4683 1.83087 14.4931C1.81696 14.5024 1.80178 14.5066 1.78618 14.5066ZM1.526 14.6487C1.49648 14.6487 1.46781 14.6323 1.45305 14.604L1.38348 14.4674C1.36324 14.4274 1.37926 14.378 1.41932 14.3574C1.45938 14.3367 1.50829 14.3527 1.52938 14.3932L1.59895 14.5298C1.61919 14.5703 1.60317 14.6192 1.56311 14.6399C1.5513 14.6462 1.53823 14.6487 1.526 14.6487ZM3.3683 15.1159C3.37926 15.11 3.42101 15.0898 3.46697 15.0443C3.48215 15.0291 3.48173 15.0042 3.47793 14.9797C3.47371 14.9494 3.44504 14.7263 3.40034 14.7343C3.40034 14.7343 3.33541 14.7512 3.2827 14.7331C3.22999 14.7149 3.11487 14.7242 3.0318 14.7385C2.94873 14.7533 2.63374 14.8026 2.42164 14.8701C2.20954 14.9376 1.84015 15.1109 1.71154 15.1501C1.58293 15.1889 1.38095 15.2416 1.22408 15.2551C1.06764 15.2686 0.926804 15.2762 0.839096 15.2758C0.725665 15.2758 0.629102 15.2606 0.556152 15.2323C0.556152 15.2323 0.614343 15.3985 0.901082 15.4588C1.12752 15.5064 1.3333 15.5111 1.52474 15.4811C1.53907 15.479 2.04635 15.3862 2.29893 15.339C2.48405 15.3044 2.77964 15.2505 2.77964 15.2505C3.13089 15.1889 3.30673 15.1488 3.3683 15.1159Z" fill="#CCD6DD"/>
<path id="Vector_10" d="M2.66513 9.32716C2.9818 9.15933 4.02924 8.63013 4.75115 8.56646C4.81693 8.56056 4.87681 8.60357 4.89958 8.66555L5.45956 10.1983C5.48823 10.2768 5.44817 10.3632 5.36848 10.3885C5.03915 10.4939 4.21309 10.7743 3.58901 11.1134C3.52281 11.1492 3.44269 11.1307 3.4001 11.0687C3.20782 10.7887 2.70771 10.0242 2.58922 9.48318C2.57573 9.41993 2.6082 9.35752 2.66513 9.32716Z" fill="#C63900"/>
<path id="Vector_11" d="M4.71451 11.117C4.63186 10.7683 4.38349 9.6213 4.50325 8.90657C4.51421 8.84121 4.57072 8.7944 4.6365 8.78808L6.26121 8.63206C6.3447 8.62405 6.41765 8.68477 6.42229 8.76826C6.44168 9.11319 6.50493 9.98352 6.67571 10.673C6.69384 10.7459 6.65547 10.8189 6.58463 10.8446C6.265 10.9601 5.39931 11.2515 4.84607 11.23C4.78155 11.227 4.72969 11.1802 4.71451 11.117Z" fill="#DD551F"/>
<path id="Vector_12" d="M3.66077 4.84648C3.62493 5.10454 3.68186 5.49838 4.27895 5.60001C4.87604 5.70163 5.46469 5.62489 5.71728 5.55447C5.96986 5.48405 5.95721 5.92723 6.03227 6.34384C6.10775 6.76214 6.15919 7.08936 6.13853 7.1758C6.10395 7.32212 5.79739 7.60212 5.92052 7.85554C6.04365 8.10897 6.23973 8.3527 6.48219 8.26119C6.72466 8.16969 6.92495 8.0609 6.98947 7.92512C7.05398 7.78934 6.76809 7.37905 6.7567 7.2614C6.74532 7.14418 6.85242 5.62194 6.83851 5.44905C6.82164 5.23779 6.80562 4.94852 6.46069 4.82919C6.11576 4.70943 4.73435 4.44125 4.38816 4.3742C3.99094 4.29619 3.70842 4.5045 3.66077 4.84648ZM3.1594 0.778589C2.38141 0.698471 1.43012 1.35586 1.49 2.21439C1.57349 3.41236 2.48852 4.19077 3.18133 3.91416C3.90787 3.62404 4.32111 3.32929 4.40882 2.4733C4.49737 1.6173 3.93781 0.858707 3.1594 0.778589Z" fill="#F7DECE"/>
<path id="Vector_13" d="M4.2655 2.72719C4.95072 1.24374 2.5261 2.04745 2.5261 2.04745C2.06563 2.19419 2.60242 2.87983 2.50164 3.36391C2.43333 3.69872 3.10843 3.67722 3.10843 3.67722C3.10843 3.67722 3.39728 3.59204 3.51113 3.9395L3.51197 3.94287C3.54065 4.03142 3.56089 4.14064 3.55878 4.29455C3.54739 5.05693 4.61423 5.22434 4.62477 4.46069C4.62899 4.15835 4.52821 3.92179 4.42321 3.70673L4.41393 3.68776C4.25707 3.36729 4.09641 3.09404 4.2655 2.72719Z" fill="#F7DECE"/>
<path id="Vector_14" d="M4.10943 0.774716C3.63293 0.403643 2.35695 0.31467 1.786 1.1129C1.2509 1.16729 1.19102 1.70662 1.31246 1.97353C1.40945 2.1869 1.97323 2.09118 2.22876 2.47617C2.29454 2.34334 2.25912 2.11901 2.20599 2.00853C2.42737 2.12787 2.4746 2.59002 3.2412 2.68659C3.98208 2.77978 4.02846 3.39837 4.02846 3.39837C4.02846 3.39837 4.33165 3.13567 4.4961 2.78652C4.81025 2.11943 4.63483 1.18416 4.10943 0.774716Z" fill="#292F33"/>
<path id="Vector_15" d="M5.53459 4.60956C5.2099 3.91633 4.68407 3.53008 4.10764 3.78435C3.34483 4.12127 3.07749 4.94648 3.1243 5.74597C3.17574 6.61673 3.78042 7.40062 3.77831 8.95112C3.77831 8.95112 5.0893 9.14045 6.44161 9.10292C6.44161 9.10292 6.31595 6.27813 5.53459 4.60956Z" fill="#FA743E"/>
<path id="Vector_16" d="M4.47247 4.69886C4.22916 4.55338 3.85598 4.45766 3.50093 5.01301C3.14588 5.56835 3.0004 6.17514 2.89077 6.46061C2.7883 6.72711 2.41554 6.54326 1.96561 6.44164C1.51442 6.33959 0.941369 6.16586 0.863359 6.10852C0.731375 6.01195 0.779446 5.73997 0.473311 5.75558C0.167175 5.77118 0.016638 5.73576 0.0052528 6.01786C-0.00571072 6.29996 -0.00950594 6.58248 0.0988643 6.70476C0.207656 6.82705 0.574091 6.72163 0.738122 6.7794C0.859142 6.82199 2.34175 7.57046 2.52096 7.62992C2.73981 7.70244 3.03667 7.80913 3.30274 7.51396C3.56882 7.21878 4.42355 5.94786 4.63818 5.62907C4.88444 5.26348 4.79547 4.89199 4.47247 4.69886Z" fill="#F7DECE"/>
</g>
</svg>
