<svg width="16" height="16" viewBox="0 0 16 16" fill="none" xmlns="http://www.w3.org/2000/svg">
<g id="Emoji">
<path id="Vector" d="M7.13063 15.0363H6.56169C6.56169 15.0363 6.03234 13.6408 6.11404 12.6455L7.28151 12.8743C7.50075 13.5291 7.13063 15.0363 7.13063 15.0363ZM8.85787 15.0363H9.42681C9.42681 15.0363 9.95615 13.6408 9.87446 12.6455L8.70699 12.8743C8.48775 13.5291 8.85787 15.0363 8.85787 15.0363Z" fill="#F7DECE"/>
<path id="Vector_2" d="M6.25273 15.15C6.29524 15.0487 6.38528 14.8608 6.39486 14.752C6.40445 14.6432 6.40903 14.6044 6.49489 14.5744C6.63953 14.524 7.09343 14.5382 7.17137 14.5678C7.2489 14.5973 7.25015 14.6774 7.2614 14.7445C7.27265 14.8116 7.30892 14.9212 7.35601 15.0112C7.40353 15.1013 7.52649 15.3018 7.4648 15.4422C7.43896 15.5006 7.296 15.4997 6.83668 15.4997C6.37736 15.4997 6.24606 15.4889 6.2148 15.4506C6.18354 15.4122 6.21022 15.2517 6.25273 15.15ZM9.73556 15.15C9.69304 15.0487 9.60301 14.8608 9.59343 14.752C9.58384 14.6432 9.57926 14.6044 9.49339 14.5744C9.34876 14.524 8.89486 14.5382 8.81692 14.5678C8.73898 14.5973 8.73814 14.6774 8.72689 14.7445C8.71564 14.8116 8.67937 14.9212 8.63227 15.0112C8.58517 15.1013 8.4618 15.3018 8.52349 15.4422C8.54933 15.5006 8.69229 15.4997 9.15161 15.4997C9.61093 15.4997 9.74223 15.4889 9.77349 15.4506C9.80475 15.4122 9.77807 15.2517 9.73556 15.15Z" fill="#FA743E"/>
<path id="Vector_3" d="M4.10782 2.2279C4.11241 2.28084 4.47086 2.8677 4.65926 3.32619C4.84765 3.78467 4.95519 4.24233 5.05439 4.34653C5.25279 4.55451 5.92635 5.12971 6.35357 5.73991C6.7808 6.35011 6.65534 6.78317 6.37858 6.95781C6.01179 7.18914 5.62708 7.04284 5.36282 6.62937C5.17484 6.33511 4.54964 5.29184 4.22119 4.71165C4.09365 4.48616 3.88942 4.08144 3.71352 3.63879C3.54805 3.22199 3.52846 2.73516 3.50345 2.67514C3.43093 2.49799 3.03663 2.26792 3.02246 2.08869C3.02246 2.08869 4.0924 2.0491 4.10782 2.2279ZM11.9054 2.2279C11.9008 2.28084 11.5424 2.8677 11.354 3.32619C11.1656 3.78467 11.0581 4.24233 10.9589 4.34653C10.7605 4.55451 10.0869 5.12971 9.65967 5.73991C9.23245 6.35011 9.35791 6.78317 9.63467 6.95781C10.0015 7.18914 10.3862 7.04284 10.6504 6.62937C10.8384 6.33511 11.4636 5.29184 11.7921 4.71165C11.9188 4.48657 12.1234 4.08186 12.2993 3.63921C12.4648 3.2224 12.4844 2.73557 12.5094 2.67555C12.5823 2.49841 12.9766 2.26833 12.9908 2.08953C12.9908 2.08869 11.9208 2.0491 11.9054 2.2279Z" fill="#F7DECE"/>
<path id="Vector_4" d="M15.5092 1.95889C15.5092 2.07393 15.4158 2.16729 15.3007 2.16729H0.712553C0.597515 2.16729 0.50415 2.07393 0.50415 1.95889C0.50415 1.84385 0.597515 1.75049 0.712553 1.75049H15.3007C15.4158 1.75049 15.5092 1.84385 15.5092 1.95889Z" fill="#99AAB5"/>
<path id="Vector_5" d="M14.6755 0.5C14.445 0.5 14.2587 0.686729 14.2587 0.916806C14.2587 0.686729 14.0724 0.5 13.8419 0.5C13.6114 0.5 13.4251 0.686729 13.4251 0.916806V3.00083C13.4251 3.23091 13.6114 3.41764 13.8419 3.41764C14.0724 3.41764 14.2587 3.23091 14.2587 3.00083C14.2587 3.23091 14.445 3.41764 14.6755 3.41764C14.906 3.41764 15.0923 3.23091 15.0923 3.00083V0.916806C15.0923 0.686729 14.906 0.5 14.6755 0.5ZM2.17132 0.5C1.94082 0.5 1.75451 0.686729 1.75451 0.916806C1.75451 0.686729 1.5682 0.5 1.3377 0.5C1.10721 0.5 0.920898 0.686729 0.920898 0.916806V3.00083C0.920898 3.23091 1.10721 3.41764 1.3377 3.41764C1.5682 3.41764 1.75451 3.23091 1.75451 3.00083C1.75451 3.23091 1.94082 3.41764 2.17132 3.41764C2.40181 3.41764 2.58812 3.23091 2.58812 3.00083V0.916806C2.58812 0.686729 2.40181 0.5 2.17132 0.5Z" fill="#292F33"/>
<path id="Vector_6" d="M9.74559 5.62085C9.43632 5.79549 9.21083 6.14477 9.12372 6.29482C8.84654 6.34359 8.64398 6.41987 8.64398 6.41987H7.36897C7.36897 6.41987 7.1664 6.34359 6.88922 6.29482C6.80211 6.14477 6.57662 5.79591 6.26735 5.62085C6.26735 5.62085 5.38331 6.0114 5.1228 6.25481C5.21033 6.47864 5.32787 6.69121 5.42124 6.84542C5.58796 7.30058 6.04728 7.89869 6.09896 8.00289C6.2611 8.328 6.40781 9.87852 6.40781 9.87852L8.00668 10.5033L9.60513 9.8781C9.60513 9.8781 9.75185 8.32759 9.91398 8.00248C9.96608 7.89828 10.4254 7.30016 10.5917 6.84501C10.6851 6.69079 10.8026 6.47864 10.8901 6.25439C10.6296 6.0114 9.74559 5.62085 9.74559 5.62085Z" fill="#FA743E"/>
<g id="Group">
<path id="Vector_7" d="M11.798 2.31867C11.6605 2.25324 11.5996 2.14028 11.6409 2.01899L11.6421 2.01482C11.6834 1.89353 11.7634 1.87061 11.9497 1.87353C11.9497 1.87353 12.5837 1.9052 12.9655 2.17029C12.9655 2.17029 12.7754 2.297 12.6742 2.4037V2.40787C12.597 2.63336 11.8847 2.35994 11.798 2.31867Z" fill="#F7DECE"/>
<path id="Vector_8" d="M12.1092 1.94656C12.0521 1.9328 12.0171 1.87445 12.0309 1.81735L12.0671 1.66855C12.0809 1.61144 12.1392 1.57643 12.1963 1.59019C12.2534 1.60394 12.2884 1.66229 12.2747 1.7194L12.2384 1.8682C12.2243 1.9253 12.1663 1.96031 12.1092 1.94656ZM11.9237 1.58393C11.8558 1.56101 11.7812 1.59811 11.7583 1.66604L11.642 2.01491C11.6191 2.08327 11.712 1.98657 11.7804 2.00949C11.8483 2.03242 11.9229 1.99574 11.9458 1.9278L12.0059 1.74982C12.0288 1.68147 11.9917 1.60728 11.9237 1.58393Z" fill="#F7DECE"/>
<path id="Vector_9" d="M12.3348 1.91667C12.2777 1.90291 12.2427 1.84456 12.2564 1.78746L12.2906 1.64824C12.3043 1.59114 12.3627 1.55613 12.4198 1.56988C12.4769 1.58364 12.5119 1.64199 12.4982 1.69909L12.464 1.83831C12.4498 1.89541 12.3919 1.93042 12.3348 1.91667Z" fill="#F7DECE"/>
<path id="Vector_10" d="M12.5499 1.92709C12.4928 1.91333 12.4577 1.85498 12.4715 1.79788L12.4998 1.68242C12.5136 1.62532 12.5719 1.59031 12.629 1.60406C12.6861 1.61782 12.7212 1.67617 12.7074 1.73327L12.6791 1.84873C12.6649 1.90583 12.607 1.94084 12.5499 1.92709Z" fill="#F7DECE"/>
<path id="Vector_11" d="M12.7662 1.93726C12.7091 1.92351 12.674 1.86515 12.6878 1.80805L12.7045 1.74053C12.7182 1.68343 12.7766 1.64841 12.8337 1.66217C12.8908 1.67592 12.9258 1.73428 12.912 1.79138L12.8954 1.8589C12.8812 1.916 12.8228 1.95143 12.7662 1.93726Z" fill="#F7DECE"/>
</g>
<g id="Group_2">
<path id="Vector_12" d="M4.21532 2.31867C4.35287 2.25323 4.41372 2.14028 4.37246 2.01899L4.37121 2.01482C4.32995 1.89395 4.24992 1.87061 4.06361 1.87352C4.06361 1.87352 3.42965 1.9052 3.04785 2.17029C3.04785 2.17029 3.23708 2.30117 3.34045 2.40787C3.3813 2.52874 3.90814 2.46497 4.21532 2.31867Z" fill="#F7DECE"/>
<path id="Vector_13" d="M3.90381 1.94656C3.96091 1.9328 3.99593 1.87445 3.98217 1.81735L3.94591 1.66855C3.93216 1.61144 3.8738 1.57643 3.8167 1.59019C3.7596 1.60436 3.72459 1.66229 3.73834 1.7194L3.7746 1.8682C3.78877 1.9253 3.84671 1.96031 3.90381 1.94656ZM4.08929 1.58393C4.15723 1.56101 4.23184 1.59811 4.25476 1.66604L4.37105 2.01491C4.39398 2.08327 4.30103 1.98657 4.23267 2.00949C4.16473 2.03242 4.09012 1.99574 4.0672 1.9278L4.00718 1.74982C3.98426 1.68147 4.02135 1.60728 4.08929 1.58393Z" fill="#F7DECE"/>
<path id="Vector_14" d="M3.6783 1.91667C3.73541 1.90291 3.77042 1.84456 3.75666 1.78746L3.72248 1.64824C3.70873 1.59114 3.65038 1.55613 3.59327 1.56988C3.53659 1.58406 3.50116 1.64199 3.51533 1.69909L3.54951 1.83831C3.56326 1.89541 3.6212 1.93042 3.6783 1.91667Z" fill="#F7DECE"/>
<path id="Vector_15" d="M3.46335 1.92709C3.52045 1.91333 3.55546 1.85498 3.54171 1.79788L3.51336 1.68242C3.49961 1.62532 3.44167 1.59031 3.38457 1.60406C3.32747 1.61782 3.29246 1.67617 3.30621 1.73327L3.33455 1.84873C3.34831 1.90583 3.40625 1.94084 3.46335 1.92709Z" fill="#F7DECE"/>
<path id="Vector_16" d="M3.24709 1.93724C3.30419 1.92348 3.3392 1.86513 3.32545 1.80803L3.30919 1.74051C3.29502 1.68382 3.23708 1.64839 3.17998 1.66215C3.12288 1.67632 3.08787 1.73425 3.10162 1.79136L3.11829 1.85888C3.13205 1.91598 3.1904 1.95141 3.24709 1.93724Z" fill="#F7DECE"/>
</g>
<path id="Vector_17" d="M9.6073 10.7121L8.00677 10.0869L6.40624 10.7121C6.40624 10.7121 6.06446 11.5111 6.0061 12.8745H7.28153C7.64832 12.4665 7.7817 11.3723 7.7817 11.3723H8.23185C8.23185 11.3723 8.36522 12.4665 8.73201 12.8745H10.0074C9.94908 11.5111 9.6073 10.7121 9.6073 10.7121Z" fill="#DD551F"/>
<path id="Vector_18" d="M6.39624 9.87793H9.61773V10.7115H6.39624V9.87793Z" fill="#C1694F"/>
<path id="Vector_19" d="M8.42334 9.83594H8.69426V10.7567H8.42334V9.83594Z" fill="#14171A"/>
<path id="Vector_20" d="M8.21511 10.3467C8.25356 10.3467 8.28472 10.3156 8.28472 10.2771C8.28472 10.2387 8.25356 10.2075 8.21511 10.2075C8.17667 10.2075 8.14551 10.2387 8.14551 10.2771C8.14551 10.3156 8.17667 10.3467 8.21511 10.3467Z" fill="#14171A"/>
<path id="Vector_21" d="M8.01543 10.2771C8.01543 10.3155 7.98417 10.3467 7.94583 10.3467C7.90748 10.3467 7.87622 10.3155 7.87622 10.2771C7.87622 10.2388 7.90748 10.2075 7.94583 10.2075C7.98417 10.2079 8.01543 10.2388 8.01543 10.2771Z" fill="#14171A"/>
<path id="Vector_22" d="M7.67654 10.3467C7.71498 10.3467 7.74615 10.3156 7.74615 10.2771C7.74615 10.2387 7.71498 10.2075 7.67654 10.2075C7.6381 10.2075 7.60693 10.2387 7.60693 10.2771C7.60693 10.3156 7.6381 10.3467 7.67654 10.3467Z" fill="#14171A"/>
<path id="Vector_23" d="M7.40725 10.3467C7.4457 10.3467 7.47686 10.3156 7.47686 10.2771C7.47686 10.2387 7.4457 10.2075 7.40725 10.2075C7.36881 10.2075 7.33765 10.2387 7.33765 10.2771C7.33765 10.3156 7.36881 10.3467 7.40725 10.3467Z" fill="#14171A"/>
<path id="Vector_24" d="M7.13845 10.3467C7.1769 10.3467 7.20806 10.3156 7.20806 10.2771C7.20806 10.2387 7.1769 10.2075 7.13845 10.2075C7.10001 10.2075 7.06885 10.2387 7.06885 10.2771C7.06885 10.3156 7.10001 10.3467 7.13845 10.3467Z" fill="#14171A"/>
<path id="Vector_25" d="M6.86917 10.3467C6.90761 10.3467 6.93877 10.3156 6.93877 10.2771C6.93877 10.2387 6.90761 10.2075 6.86917 10.2075C6.83072 10.2075 6.79956 10.2387 6.79956 10.2771C6.79956 10.3156 6.83072 10.3467 6.86917 10.3467Z" fill="#14171A"/>
<path id="Vector_26" d="M6.59988 10.3467C6.63832 10.3467 6.66949 10.3156 6.66949 10.2771C6.66949 10.2387 6.63832 10.2075 6.59988 10.2075C6.56144 10.2075 6.53027 10.2387 6.53027 10.2771C6.53027 10.3156 6.56144 10.3467 6.59988 10.3467Z" fill="#14171A"/>
<path id="Vector_27" d="M7.67654 10.3467C7.71498 10.3467 7.74615 10.3156 7.74615 10.2771C7.74615 10.2387 7.71498 10.2075 7.67654 10.2075C7.6381 10.2075 7.60693 10.2387 7.60693 10.2771C7.60693 10.3156 7.6381 10.3467 7.67654 10.3467Z" fill="#14171A"/>
<path id="Vector_28" d="M7.40348 10.339C7.43755 10.339 7.46517 10.3113 7.46517 10.2773C7.46517 10.2432 7.43755 10.2156 7.40348 10.2156C7.36941 10.2156 7.3418 10.2432 7.3418 10.2773C7.3418 10.3113 7.36941 10.339 7.40348 10.339Z" fill="#657786"/>
<path id="Vector_29" d="M7.30566 10.2156H7.40361V10.3394H7.30566V10.2156Z" fill="#657786"/>
<path id="Vector_30" d="M7.47683 10.8556H7.16089V9.73145H7.47683V9.87733H7.30635V10.7097H7.47683V10.8556Z" fill="#657786"/>
<path id="Vector_31" d="M8.66988 2.10075C8.32685 1.98988 7.52033 2.01989 7.3186 2.28248C6.79426 2.29248 6.17905 2.76639 6.09819 3.3916C6.01817 4.01056 6.19614 4.29773 6.2595 4.76331C6.33119 5.29057 6.62754 5.45896 6.8647 5.52981C7.20565 5.98038 7.56827 5.96079 8.17639 5.96079C9.3647 5.96079 9.93072 5.16552 9.98074 3.81507C10.0112 2.99813 9.53184 2.3796 8.66988 2.10075Z" fill="#292F33"/>
<path id="Vector_32" d="M7.49731 5.62085V6.63952C7.49731 6.92087 7.72531 7.14886 8.00665 7.14886C8.28799 7.14886 8.51599 6.92087 8.51599 6.63952V5.62085H7.49731Z" fill="#F7DECE"/>
<path id="Vector_33" d="M9.34926 3.87208C9.23423 3.71286 9.08709 3.58448 8.76449 3.53947C8.88536 3.5949 9.00165 3.78664 9.01665 3.8925C9.03166 3.99837 9.04708 4.08423 8.95122 3.97837C8.56734 3.55406 8.14928 3.7212 7.73539 3.46194C7.44613 3.28105 7.35818 3.08057 7.35818 3.08057C7.35818 3.08057 7.32276 3.34774 6.88428 3.61991C6.75715 3.69869 6.60543 3.87458 6.52124 4.13425C6.4608 4.32098 6.47956 4.48729 6.47956 4.77155C6.47956 5.60141 7.16354 6.29956 8.00757 6.29956C8.8516 6.29956 9.53558 5.59557 9.53558 4.77155C9.53474 4.25554 9.48056 4.05381 9.34926 3.87208Z" fill="#F7DECE"/>
<path id="Vector_34" d="M8.68559 5.62066H7.32764C7.32764 5.62066 7.49728 5.95994 8.00661 5.95994C8.51595 5.95994 8.68559 5.62066 8.68559 5.62066ZM8.17625 5.19594H7.83656C7.78946 5.19594 7.75153 5.15801 7.75153 5.11091C7.75153 5.06381 7.78946 5.02588 7.83656 5.02588H8.17625C8.22335 5.02588 8.26128 5.06381 8.26128 5.11091C8.26128 5.15801 8.22335 5.19594 8.17625 5.19594Z" fill="#C1694F"/>
<path id="Vector_35" d="M7.3276 4.6026C7.23382 4.6026 7.15796 4.52674 7.15796 4.43296V4.2629C7.15796 4.16912 7.23382 4.09326 7.3276 4.09326C7.42138 4.09326 7.49724 4.16912 7.49724 4.2629V4.43254C7.49724 4.52674 7.42138 4.6026 7.3276 4.6026ZM8.68555 4.6026C8.59177 4.6026 8.51591 4.52674 8.51591 4.43296V4.2629C8.51591 4.16912 8.59177 4.09326 8.68555 4.09326C8.77933 4.09326 8.85519 4.16912 8.85519 4.2629V4.43254C8.85519 4.52674 8.77933 4.6026 8.68555 4.6026Z" fill="#662113"/>
</g>
</svg>
