<svg width="16" height="16" viewBox="0 0 16 16" fill="none" xmlns="http://www.w3.org/2000/svg">
<g id="Emoji">
<path id="Vector" d="M9.25245 8.96914C8.35147 9.26946 8.05114 7.76783 8.05114 7.76783C8.05114 7.76783 8.46106 7.35663 8.15096 6.99089C8.63438 6.5079 8.35189 6.26577 8.35189 6.26577C7.52185 5.43615 6.17739 5.43615 5.34819 6.26577C5.24369 6.37027 5.17233 6.46414 5.11328 6.55378C5.08737 6.59031 5.06443 6.62769 5.04107 6.66507L5.03512 6.67654C4.91406 6.87832 4.82655 7.09368 4.77812 7.31755C4.71186 7.45306 4.61713 7.59749 4.44721 7.76783C3.84656 8.36848 2.34492 7.4675 1.14319 8.66881C1.13087 8.68113 1.12407 8.69812 1.11388 8.71299C1.07395 8.74867 1.03189 8.7801 0.993237 8.81919C-0.416645 10.2291 -0.282411 12.65 1.29399 14.2259C2.79095 15.7233 5.04914 15.9162 6.48026 14.7229C6.5049 14.7098 6.52996 14.697 6.55035 14.6766C6.58051 14.646 6.60388 14.6172 6.63234 14.5874C6.65485 14.5666 6.67864 14.5479 6.70073 14.5267C7.4199 13.8071 7.69559 12.9422 7.58684 12.0582C7.55796 11.6377 7.51675 11.308 7.75251 11.0723C8.05284 10.7719 8.95382 11.0723 9.55447 10.4716C10.4538 9.57022 9.82252 8.77968 9.25245 8.96914Z" fill="#BB1A34"/>
<path id="Vector_2" d="M6.34644 8.26862L12.8623 1.75317L13.7633 2.65458L7.24742 9.17045L6.34644 8.26862Z" fill="#292F33"/>
<path id="Vector_3" d="M4.22849 12.6119C4.98546 13.1543 5.06065 14.0872 5.01817 14.6301C5.00033 14.8543 5.23864 15.0115 5.43404 14.9007C6.52278 14.2822 7.38893 13.2911 7.14935 11.5648C7.1022 11.2525 7.1965 10.6655 8.11447 10.5427C9.03245 10.4195 9.36378 10.0759 9.4772 9.91191C9.5422 9.81803 9.60039 9.55848 9.34467 9.54913C9.08937 9.53979 8.45516 9.73859 7.88721 9.06657C7.31927 8.39455 7.22496 8.12014 7.20585 8.01606C7.18673 7.91199 6.60732 6.44689 6.13325 7.22425C5.73947 7.87036 5.30151 9.13964 3.88738 9.47012C3.31179 9.60436 2.5837 9.89704 2.37342 10.3027C2.02 10.9841 2.56883 11.4603 3.04204 11.7823C3.51569 12.1038 4.22849 12.6119 4.22849 12.6119Z" fill="#F5F8FA"/>
<path id="Vector_4" d="M5.53302 8.48194L6.13367 7.88086L7.63573 9.3825L7.03508 9.98315L5.53302 8.48194ZM3.63208 10.3825L4.23316 9.7818L5.7348 11.2834L5.13414 11.8841L3.63208 10.3825Z" fill="#292F33"/>
<path id="Vector_5" d="M3.12183 11.7856L12.3831 2.54126L12.6083 2.76682L3.34739 12.0111L3.12183 11.7856ZM3.49097 12.1543L12.7523 2.9104L12.9774 3.13597L3.71653 12.3807L3.49097 12.1543Z" fill="#CCD6DD"/>
<path id="Vector_6" d="M4.14943 12.2681C4.31467 12.4333 4.31467 12.7035 4.14943 12.8687C3.98419 13.034 3.71402 13.034 3.54878 12.8687L2.64737 11.9678C2.48213 11.8025 2.48213 11.5323 2.64737 11.3671H2.6478C2.81304 11.2019 3.08321 11.2019 3.24845 11.3671L4.14943 12.2681Z" fill="#292F33"/>
<path id="Vector_7" d="M5.51439 13.2158C5.749 13.2158 5.93918 13.0256 5.93918 12.791C5.93918 12.5564 5.749 12.3662 5.51439 12.3662C5.27978 12.3662 5.0896 12.5564 5.0896 12.791C5.0896 13.0256 5.27978 13.2158 5.51439 13.2158Z" fill="#292F33"/>
<path id="Vector_8" d="M6.11626 13.7787C6.11626 13.9397 5.98585 14.0701 5.82485 14.0701C5.66386 14.0701 5.53345 13.9397 5.53345 13.7787C5.53345 13.6177 5.66386 13.4873 5.82485 13.4873C5.98585 13.4873 6.11626 13.6177 6.11626 13.7787Z" fill="#292F33"/>
<path id="Vector_9" d="M14.8853 2.16444C15.0615 2.34073 15.0615 2.62958 14.8848 2.80587L13.0319 4.08874C12.8552 4.26503 12.5667 4.26503 12.3905 4.08874L11.4283 3.12616C11.252 2.94988 11.252 2.66102 11.4287 2.48473L12.7116 0.632216C12.8883 0.455928 13.1767 0.455928 13.353 0.632216L14.8853 2.16444Z" fill="#BB1A34"/>
<path id="Vector_10" d="M13.6256 4.49534C13.7722 4.49534 13.8911 4.37648 13.8911 4.22985C13.8911 4.08322 13.7722 3.96436 13.6256 3.96436C13.479 3.96436 13.3601 4.08322 13.3601 4.22985C13.3601 4.37648 13.479 4.49534 13.6256 4.49534Z" fill="#66757F"/>
<path id="Vector_11" d="M14.16 4.13621C14.3067 4.13621 14.4255 4.01735 14.4255 3.87072C14.4255 3.72409 14.3067 3.60522 14.16 3.60522C14.0134 3.60522 13.8945 3.72409 13.8945 3.87072C13.8945 4.01735 14.0134 4.13621 14.16 4.13621Z" fill="#66757F"/>
<path id="Vector_12" d="M14.6949 3.77733C14.8416 3.77733 14.9604 3.65846 14.9604 3.51183C14.9604 3.3652 14.8416 3.24634 14.6949 3.24634C14.5483 3.24634 14.4294 3.3652 14.4294 3.51183C14.4294 3.65846 14.5483 3.77733 14.6949 3.77733Z" fill="#66757F"/>
<path id="Vector_13" d="M11.327 2.12034C11.4736 2.12034 11.5925 2.00148 11.5925 1.85485C11.5925 1.70822 11.4736 1.58936 11.327 1.58936C11.1804 1.58936 11.0615 1.70822 11.0615 1.85485C11.0615 2.00148 11.1804 2.12034 11.327 2.12034Z" fill="#66757F"/>
<path id="Vector_14" d="M11.6852 1.59349C11.8318 1.59349 11.9507 1.47462 11.9507 1.32799C11.9507 1.18137 11.8318 1.0625 11.6852 1.0625C11.5385 1.0625 11.4197 1.18137 11.4197 1.32799C11.4197 1.47462 11.5385 1.59349 11.6852 1.59349Z" fill="#66757F"/>
<path id="Vector_15" d="M12.0433 1.06737C12.19 1.06737 12.3088 0.9485 12.3088 0.801871C12.3088 0.655243 12.19 0.536377 12.0433 0.536377C11.8967 0.536377 11.7778 0.655243 11.7778 0.801871C11.7778 0.9485 11.8967 1.06737 12.0433 1.06737Z" fill="#66757F"/>
</g>
</svg>
