<svg width="19" height="18" viewBox="0 0 19 18" fill="none" xmlns="http://www.w3.org/2000/svg">
<g id="Malipoma_logo 1" clip-path="url(#clip0_331_1786)">
<g id="Layer_x0020_1">
<g id="_2283828683184">
<g id="Group">
<path id="Vector" d="M6.55187 7.13438C7.24175 7.13438 7.80101 6.57513 7.80101 5.88525C7.80101 5.19537 7.24175 4.63611 6.55187 4.63611C5.86199 4.63611 5.30273 5.19537 5.30273 5.88525C5.30273 6.57513 5.86199 7.13438 6.55187 7.13438Z" fill="#65676B"/>
<path id="Vector_2" d="M13.9425 9.99571C14.6324 9.99571 15.1916 9.43645 15.1916 8.74657C15.1916 8.05669 14.6324 7.49744 13.9425 7.49744C13.2526 7.49744 12.6934 8.05669 12.6934 8.74657C12.6934 9.43645 13.2526 9.99571 13.9425 9.99571Z" fill="#65676B"/>
<path id="Vector_3" d="M8.10558 15.0793C8.79546 15.0793 9.35472 14.5201 9.35472 13.8302C9.35472 13.1403 8.79546 12.5811 8.10558 12.5811C7.4157 12.5811 6.85645 13.1403 6.85645 13.8302C6.85645 14.5201 7.4157 15.0793 8.10558 15.0793Z" fill="#65676B"/>
<path id="Vector_4" fill-rule="evenodd" clip-rule="evenodd" d="M17.416 12.5831C16.1736 15.7543 13.0867 18.0001 9.47509 18.0001C5.86347 18.0001 2.7766 15.7543 1.53418 12.5831H3.88622C4.97876 14.5431 7.0719 15.869 9.47509 15.869C11.8783 15.869 13.9714 14.543 15.064 12.5831H17.416Z" fill="#65676B"/>
<path id="Vector_5" fill-rule="evenodd" clip-rule="evenodd" d="M9.13684 9.54331C9.04644 9.68033 7.53857 9.85845 7.25346 9.77995C7.22926 9.57682 7.2168 9.37004 7.2168 9.16036C7.2168 7.34253 8.15331 5.74346 9.57013 4.81917C10.0784 5.20747 10.5028 5.98204 10.591 6.41962C9.70156 7.0066 9.11474 8.01497 9.11474 9.16036C9.11474 9.28992 9.12316 9.41763 9.13684 9.54331Z" fill="#65676B"/>
<path id="Vector_6" fill-rule="evenodd" clip-rule="evenodd" d="M5.20117 11.0985C5.71985 10.1275 6.1915 9.39296 6.93435 9.00005C6.81878 8.48016 7.05104 7.63631 7.23694 7.22697C5.97275 7.58533 5.28218 9.60483 5.20117 11.0985Z" fill="#65676B"/>
<path id="Vector_7" fill-rule="evenodd" clip-rule="evenodd" d="M9.48815 8.99899C9.41661 8.8513 10.0348 7.46442 10.2481 7.25951C10.435 7.34262 10.6191 7.43763 10.7993 7.54486C12.3614 8.47457 13.2565 10.0972 13.3261 11.7874C12.7324 12.0256 11.8499 11.9941 11.4287 11.8461C11.3791 10.7816 10.8128 9.76159 9.82854 9.17582C9.71718 9.10954 9.60315 9.05151 9.48815 8.99899Z" fill="#65676B"/>
<path id="Vector_8" fill-rule="evenodd" clip-rule="evenodd" d="M9.77447 9.61315C9.93819 9.62424 10.8362 10.8486 10.9084 11.1354C10.7436 11.2566 10.5698 11.3693 10.3873 11.4727C8.80551 12.3684 6.95256 12.3414 5.4502 11.564C5.5376 10.9303 6.00254 10.1795 6.33985 9.88701C7.2889 10.3717 8.45549 10.3855 9.45213 9.82106C9.56486 9.7572 9.67185 9.68696 9.77447 9.61307V9.61315Z" fill="#65676B"/>
<path id="Vector_9" fill-rule="evenodd" clip-rule="evenodd" d="M10.1543 4.81505C10.7174 5.76103 11.1022 6.54458 11.0546 7.38357C11.5593 7.55344 12.1616 8.18849 12.4158 8.55931C12.7626 7.29196 11.391 5.65671 10.1543 4.81513V4.81505Z" fill="#65676B"/>
<path id="Vector_10" fill-rule="evenodd" clip-rule="evenodd" d="M13.0803 12.2209C11.9796 12.2464 11.1081 12.1966 10.401 11.7427C10.0049 12.0989 9.15587 12.3112 8.70801 12.3505C9.64128 13.2754 11.7395 12.8845 13.0803 12.221V12.2209Z" fill="#65676B"/>
</g>
<path id="Vector_11" fill-rule="evenodd" clip-rule="evenodd" d="M17.3015 6.39153C17.3404 6.3709 17.3796 6.3518 17.4185 6.33148L18.1784 5.93081C18.1892 5.92498 18.1969 5.92158 18.208 5.91608C18.2182 5.91098 18.2296 5.90224 18.2407 5.90135C18.241 5.90288 18.2415 5.90483 18.2423 5.90717C18.2457 5.90507 18.2491 5.90305 18.2526 5.90119C18.2059 5.78845 18.1568 5.67758 18.1087 5.56525C18.0427 5.41084 17.9413 5.22065 17.8664 5.07069L17.7903 4.92866C17.7439 4.85113 17.703 4.76996 17.6562 4.69275C17.6055 4.60899 17.5573 4.52523 17.5044 4.44285L17.4617 4.37487C17.4089 4.28536 17.3427 4.19561 17.285 4.10885C17.2307 4.02719 16.9663 3.66043 16.9409 3.64335C16.9222 3.64772 16.629 3.79444 16.5815 3.8184L16.2199 3.99442C16.1881 4.01036 15.9968 4.1074 15.9796 4.11144C15.963 4.10035 15.9204 4.04184 15.9073 4.02558L15.7604 3.85304C15.7539 3.84535 15.7481 3.8413 15.7419 3.83361C15.7338 3.8235 15.7316 3.82115 15.7225 3.81184L15.6841 3.76806C15.6777 3.75973 15.6729 3.75576 15.6657 3.74856L15.6277 3.70744C15.6185 3.69838 15.6166 3.69506 15.6086 3.68543L15.3099 3.38324C15.3008 3.37402 15.2975 3.37216 15.2879 3.36414C15.2736 3.35217 15.2621 3.33752 15.2482 3.32473C15.2396 3.3168 15.2348 3.3147 15.226 3.30588L15.0999 3.19169C15.0914 3.18489 15.0871 3.17906 15.0782 3.17226L14.9481 3.06204C14.8651 2.99487 14.7614 2.90649 14.6765 2.84968C14.6814 2.82872 14.6976 2.81116 14.7087 2.79335L14.8135 2.62292C14.8362 2.58456 14.8598 2.54919 14.8823 2.5114C14.9728 2.35909 15.0697 2.21139 15.161 2.05957L15.2129 1.97549C15.2187 1.96658 15.2273 1.95485 15.2299 1.94514C15.2204 1.94263 15.2084 1.93138 15.1997 1.92482L14.9923 1.77163C14.9726 1.75673 14.9531 1.74435 14.9332 1.72962C14.9233 1.72234 14.9138 1.71546 14.9036 1.70858C14.7239 1.58686 14.5554 1.47308 14.3692 1.36067C14.3468 1.34707 14.3264 1.33509 14.3039 1.3215C14.2814 1.3079 14.2612 1.29665 14.2383 1.28273L14.1074 1.20804C14.0862 1.19582 14.0647 1.18473 14.0427 1.17162C14.0199 1.15794 13.9972 1.14839 13.975 1.13488C13.9636 1.12792 13.9538 1.12428 13.9418 1.11756C13.9294 1.11068 13.9224 1.10631 13.9091 1.09967C13.8959 1.09312 13.888 1.0877 13.8765 1.08171L13.6351 0.959504C13.6107 0.947364 13.5888 0.937977 13.5644 0.925756C13.5493 0.918149 13.1476 0.729828 13.1333 0.733874C13.1248 0.736302 13.0601 0.836249 13.0542 0.844585L12.8398 1.15195C12.8 1.21046 12.6918 1.37022 12.6454 1.43197C12.6311 1.4509 12.5138 1.61584 12.5103 1.62895C12.4783 1.6215 12.3484 1.5659 12.3091 1.5519C12.1897 1.50925 12.0688 1.46426 11.9471 1.42695L11.7874 1.37791C11.6467 1.3321 11.3759 1.26663 11.2315 1.23806C11.1525 1.22244 11.0788 1.20739 10.9974 1.19379C10.9518 1.18619 10.8001 1.15867 10.7553 1.15762L10.7598 1.02611C10.7661 0.984915 10.7606 0.934659 10.7652 0.892414C10.7695 0.854296 10.7705 0.804039 10.771 0.762118L10.7741 0.695756C10.7742 0.623892 10.7874 0.50436 10.7869 0.433385L10.79 0.332143C10.7907 0.318061 10.7931 0.317009 10.7933 0.300662C10.7935 0.28917 10.7928 0.277111 10.7931 0.265619L10.7962 0.199177C10.7964 0.182829 10.7987 0.181777 10.7996 0.167695C10.8001 0.156689 10.7994 0.143983 10.7994 0.132815C10.7994 0.119704 10.8009 0.115253 10.8019 0.107808C10.8018 0.102548 10.8018 0.0973681 10.8021 0.0921887C10.7666 0.0874139 10.7314 0.0828818 10.6938 0.0773787C10.6035 0.0642682 10.5064 0.0567418 10.416 0.0452499C10.2874 0.0289022 9.85609 0.00308592 9.73389 0.00324778C9.69844 0.00324778 9.67165 0.000172482 9.63451 9.15527e-05H9.63273L9.17095 0.00316685C9.14942 0.00308592 9.14205 0.00656587 9.12053 0.00648494C9.05562 0.00624215 8.98513 0.0106932 8.92419 0.0157108L8.77868 0.0251795C8.73061 0.0289832 8.68335 0.0293878 8.63431 0.0357003C8.60541 0.039423 8.57062 0.0419318 8.53881 0.0446025L8.30541 0.0705806C8.27199 0.0746271 8.27482 0.065563 8.27288 0.139289C8.27255 0.150943 8.27061 0.175222 8.26883 0.18898C8.25685 0.280106 8.25499 0.381024 8.24488 0.474982C8.24334 0.489631 8.24188 0.509944 8.24131 0.522002L8.20328 1.00264C8.20287 1.01575 8.20134 1.03736 8.19964 1.05273C8.19656 1.08146 8.19308 1.11869 8.19065 1.14807C8.15237 1.15697 8.10851 1.16013 8.06999 1.1666C8.02936 1.1734 7.99133 1.17963 7.9507 1.18643C7.80106 1.2116 7.63702 1.2451 7.48981 1.28217C7.45121 1.29188 7.41673 1.30046 7.37853 1.31001C7.09269 1.38147 6.81235 1.47365 6.53849 1.58314C6.51397 1.59293 6.45716 1.62061 6.43547 1.62247C6.43102 1.60329 6.19883 1.16644 6.17609 1.12282L6.00638 0.799184C5.9923 0.770778 5.95111 0.705306 5.94528 0.680056C5.90004 0.690577 5.69853 0.780894 5.64803 0.803473C5.57924 0.834226 5.49758 0.875338 5.43114 0.902773C5.36858 0.928589 5.21741 1.00798 5.14732 1.0427C5.13324 1.04966 5.1262 1.05492 5.1126 1.06172C5.09933 1.06835 5.09002 1.07305 5.07675 1.0796C4.96766 1.13374 4.77092 1.24599 4.67073 1.30604C4.64864 1.31931 4.62743 1.33129 4.6051 1.34481C4.45425 1.43585 4.16784 1.61559 4.0267 1.72145L3.87399 1.83127C3.77299 1.90726 3.77323 1.88857 3.795 1.93243C3.82956 2.00219 3.85796 2.07487 3.89187 2.14544C3.9312 2.22726 3.96544 2.3081 4.00477 2.38992C4.05365 2.49157 4.09735 2.59354 4.14494 2.69567C4.15877 2.72537 4.22206 2.85486 4.22821 2.88124C4.22295 2.88909 4.21615 2.89265 4.20782 2.8988L4.16355 2.93368C4.03649 3.0329 3.9087 3.13398 3.79095 3.24421L3.53951 3.47664C3.48666 3.52989 3.4309 3.58168 3.38137 3.63793C3.36931 3.6516 3.35507 3.66431 3.34188 3.6775L3.28337 3.73917C3.27544 3.74775 3.27333 3.7526 3.26451 3.76142C3.24938 3.77648 3.23967 3.78943 3.22494 3.80407L3.16974 3.8659C3.16173 3.87545 3.15906 3.87885 3.15056 3.88784C3.14296 3.89593 3.1415 3.90014 3.13324 3.90847C3.12458 3.91721 3.12216 3.92166 3.11423 3.93057C3.06348 3.98754 3.01663 4.04832 2.96855 4.10748C2.95957 4.11848 2.94023 4.1464 2.93157 4.15272L2.65957 3.97564C2.57993 3.92239 2.46599 3.84608 2.38578 3.7972C2.33901 3.76871 2.07486 3.58864 2.05559 3.58346C2.02727 3.6024 1.73633 4.00567 1.71723 4.03254C1.63889 4.14292 1.56703 4.25728 1.49144 4.36969C1.4759 4.39275 1.46319 4.41501 1.44838 4.43734C1.37264 4.55194 1.3049 4.67252 1.23635 4.79141C1.23004 4.80241 1.22389 4.81423 1.21693 4.82572C1.181 4.88528 1.15138 4.94679 1.11739 5.00765C1.10986 5.02116 1.10419 5.03096 1.0974 5.04455L0.820134 5.6117L0.734106 5.8103C0.730869 5.81831 0.729655 5.82212 0.726013 5.8307C0.722129 5.83992 0.720106 5.84146 0.717839 5.85101C0.728846 5.86736 0.922266 5.99474 0.937319 6.00469L1.07579 6.10027C1.21563 6.1952 1.35305 6.29385 1.49387 6.38741C1.53287 6.4133 1.56848 6.43912 1.60644 6.46453C1.59827 6.49957 1.54242 6.62946 1.52697 6.676C1.48666 6.79747 1.43754 6.9187 1.40339 7.04261L1.35839 7.1937C1.34374 7.24525 1.32861 7.29689 1.31615 7.34747C1.30304 7.40031 1.29049 7.45033 1.2769 7.50431C1.21871 7.73592 1.18059 7.96835 1.14846 8.20758C1.14506 8.23275 1.13883 8.22109 1.11633 8.21964C1.10136 8.21867 1.08396 8.21996 1.06875 8.21972C1.05021 8.21947 1.04277 8.21624 1.02148 8.2164C0.956984 8.2168 0.896207 8.20992 0.831626 8.21017C0.811393 8.21025 0.805809 8.20701 0.787519 8.20677C0.771091 8.20661 0.752963 8.20782 0.736777 8.20693C0.660623 8.2028 0.57937 8.19762 0.502649 8.19754C0.48266 8.19754 0.476348 8.19414 0.455387 8.19423C0.361348 8.19463 0.266175 8.18605 0.173754 8.18492L0.103913 8.18128C0.077368 8.18152 0.086513 8.19034 0.080848 8.23089C0.0221745 8.64888 0 9.04374 0 9.47509V9.49038C0 9.54347 0.000161858 9.59664 0 9.64973V9.67709C0.000485573 9.69279 0.0030753 9.69894 0.00331809 9.71528L0.0221745 10.1392C0.0224982 10.2458 0.0810098 10.7474 0.0980858 10.8476C0.102699 10.8747 0.110144 10.9059 0.110711 10.9329H3.22243C3.22194 10.911 3.1886 10.7754 3.18318 10.7477C3.14813 10.5705 3.10791 10.3401 3.0931 10.161C3.09027 10.127 3.08477 10.0932 3.08339 10.0601L3.07344 9.9278C3.0668 9.8663 3.06753 9.792 3.0617 9.74029C3.06 9.72516 3.06122 9.70282 3.0613 9.68696C3.06146 9.66406 3.0579 9.6554 3.05798 9.6333C3.05822 9.57406 3.05369 9.33087 3.05936 9.293C3.0647 9.25771 3.06381 9.08574 3.07247 9.02779C3.08064 8.97365 3.07765 8.92242 3.08509 8.86966C3.08987 8.83599 3.09181 8.80054 3.09537 8.76922C3.09942 8.73353 3.10233 8.70278 3.10718 8.66725C3.13405 8.4727 3.16246 8.27815 3.20721 8.08732C3.23586 7.96536 3.26386 7.84259 3.29793 7.72581C3.33532 7.59754 3.37676 7.46991 3.41884 7.3439L3.52874 7.05531C3.55027 7.00133 3.57236 6.94913 3.59559 6.89758L3.75899 6.55185C3.76619 6.53737 3.77234 6.52847 3.77906 6.51503L3.837 6.40537C3.86767 6.34338 3.90603 6.28357 3.94019 6.22393L4.25152 5.74467C4.32638 5.63614 4.47302 5.44426 4.55945 5.34731L4.81187 5.06527C4.83672 5.03306 4.86828 5.00797 4.89628 4.97892L5.03693 4.8381C5.06461 4.81034 5.12361 4.75394 5.15517 4.72869C5.18593 4.70417 5.21263 4.67455 5.24371 4.64962C5.24986 4.64468 5.25237 4.64096 5.25828 4.6357C5.3426 4.56076 5.43171 4.48679 5.52146 4.41824L5.71666 4.27192C5.79734 4.21171 5.89899 4.14041 5.98502 4.08805L6.19325 3.95792C6.252 3.92255 6.31124 3.88678 6.3721 3.8553L6.78314 3.64651L6.9386 3.57739C7.12935 3.49865 7.31945 3.42403 7.51652 3.36147C7.63006 3.32546 7.74627 3.29026 7.86726 3.25999C8.27571 3.15786 8.61424 3.10477 9.03499 3.07102C9.07027 3.06819 9.1062 3.06746 9.1393 3.06471C9.15784 3.06317 9.17621 3.066 9.19474 3.06325C9.24483 3.05564 9.57551 3.05848 9.64203 3.05815C9.66405 3.05807 9.6727 3.06155 9.69569 3.06139C9.77508 3.0609 9.85601 3.06778 9.93305 3.07385C9.94228 3.07458 9.95151 3.07345 9.96089 3.0745L10.1172 3.08891C10.1525 3.09352 10.1857 3.09635 10.2204 3.09959C10.3185 3.10889 10.4192 3.125 10.517 3.14135C10.8534 3.19743 11.1886 3.27917 11.5113 3.38672C11.7055 3.45147 11.8944 3.52851 12.0824 3.60944C12.2139 3.66609 12.3352 3.73027 12.4617 3.79299C12.5182 3.82099 12.5697 3.85304 12.6251 3.88258L13.0269 4.129C13.0507 4.14487 13.0723 4.15838 13.0947 4.17505C13.1168 4.19148 13.1399 4.20508 13.162 4.22151C13.2265 4.26942 13.2944 4.31449 13.3572 4.36475L13.4851 4.46453C13.5262 4.49788 13.5695 4.52993 13.6082 4.56594L13.8486 4.77773C13.8878 4.81552 13.9385 4.86918 13.9766 4.90268C13.9833 4.90859 13.9856 4.909 13.9924 4.91531C14.0222 4.94291 14.0475 4.97358 14.0762 5.00231C14.0935 5.01963 14.1185 5.04156 14.1328 5.05952L14.2944 5.23635C14.3004 5.24315 14.3007 5.24526 14.3071 5.25214L14.5 5.48311C14.5172 5.50423 14.5315 5.52357 14.5488 5.54494C14.558 5.55618 14.5645 5.56557 14.5733 5.57739C14.6621 5.69611 14.7491 5.81597 14.8312 5.9393L15.0979 6.38101C15.1023 6.38943 15.1039 6.39056 15.1084 6.3989L15.2803 6.73621C15.2863 6.74851 15.2904 6.76 15.2971 6.77319C15.3041 6.78703 15.3086 6.79933 15.315 6.8122C15.3212 6.82467 15.3266 6.83753 15.333 6.85121C15.3966 6.98749 15.4636 7.15526 15.5123 7.29486C15.6505 7.69052 15.7436 8.04434 15.8125 8.46218C15.8341 8.59345 15.8485 8.73062 15.8626 8.86424C15.8658 8.89394 15.8711 8.93432 15.8715 8.96596L15.8887 9.29033C15.8979 9.3511 15.8902 9.5438 15.8906 9.62691C15.8906 9.65006 15.8873 9.65985 15.8872 9.68057C15.8872 9.69821 15.8886 9.7203 15.8872 9.73746L15.8746 9.94949C15.8711 10.0225 15.8538 10.1824 15.8439 10.2573L15.8006 10.5554L15.7458 10.839C15.7401 10.8655 15.7266 10.9092 15.726 10.9331H18.8377L18.8735 10.6779C18.8847 10.5934 18.8945 10.5011 18.9036 10.4139C18.9083 10.3691 18.9104 10.3223 18.9159 10.2807L18.9391 9.93703C18.9392 9.92473 18.9383 9.91113 18.9389 9.89891C18.9397 9.88459 18.9421 9.88159 18.9422 9.86427C18.9424 9.76773 18.9485 9.67595 18.9485 9.57641V9.56265C18.9484 9.47193 18.948 9.38105 18.9485 9.29033V9.2815L18.9082 8.58883C18.8967 8.49933 18.8908 8.41063 18.8798 8.32314C18.8759 8.29158 18.8718 8.25986 18.8677 8.22822L18.8535 8.22587C18.8536 8.22716 18.8536 8.2283 18.8536 8.22927C18.8079 8.22927 18.7646 8.22045 18.7208 8.2198C18.6751 8.21915 18.5712 8.20531 18.5184 8.20402C18.4757 8.20296 18.374 8.19091 18.3161 8.18816L18.1819 8.17691C18.16 8.17367 18.1362 8.17391 18.1138 8.17221L17.8448 8.15028C17.8274 8.15004 17.7929 8.14737 17.7784 8.14397L17.7402 7.90385C17.7246 7.82568 17.7121 7.74839 17.6954 7.67029C17.6437 7.42872 17.5701 7.13608 17.4911 6.90058C17.4796 6.86634 17.4688 6.82904 17.4559 6.79666L17.3009 6.39186L17.3015 6.39153Z" fill="#65676B"/>
</g>
</g>
</g>
<defs>
<clipPath id="clip0_331_1786">
<rect width="18.9488" height="18" fill="white"/>
</clipPath>
</defs>
</svg>
