<svg width="44" height="50" viewBox="0 0 44 50" fill="none" xmlns="http://www.w3.org/2000/svg">
<path id="Vector" d="M40.7828 31.2507C42.4191 28.1778 43.2725 24.7488 43.2674 21.2675C43.2674 9.52157 33.7458 0 21.9999 0C10.254 0 0.732453 9.52157 0.732453 21.2675C0.723844 26.2844 2.49727 31.1414 5.73656 34.9725L5.76158 35.0037C5.77034 35.0112 5.77785 35.0213 5.7841 35.0288H5.73656L18.3569 48.4273C18.8248 48.9239 19.3892 49.3196 20.0156 49.59C20.642 49.8605 21.317 50 21.9993 50C22.6816 50 23.3566 49.8605 23.983 49.59C24.6094 49.3196 25.1738 48.9239 25.6417 48.4273L38.2633 35.0288H38.2157L38.2357 35.005L38.2382 35.0025C38.3283 34.8949 38.4184 34.7873 38.5072 34.6772C39.375 33.6107 40.1375 32.4628 40.7841 31.2494L40.7828 31.2507ZM22.0049 29.3991C20.0142 29.3991 18.1049 28.6083 16.6973 27.2006C15.2896 25.793 14.4988 23.8837 14.4988 21.893C14.4988 19.9022 15.2896 17.993 16.6973 16.5853C18.1049 15.1776 20.0142 14.3868 22.0049 14.3868C23.9957 14.3868 25.9049 15.1776 27.3126 16.5853C28.7203 17.993 29.5111 19.9022 29.5111 21.893C29.5111 23.8837 28.7203 25.793 27.3126 27.2006C25.9049 28.6083 23.9957 29.3991 22.0049 29.3991Z" fill="#050505"/>
</svg>
