<svg width="13" height="16" viewBox="0 0 13 16" fill="none" xmlns="http://www.w3.org/2000/svg">
<g id="Emoji">
<path id="Vector" d="M9.97966 11.75H2.47966C1.55924 11.75 0.812988 12.4962 0.812988 13.4167V15.5H11.6463V13.4167C11.6463 12.4962 10.9001 11.75 9.97966 11.75Z" fill="#FA743E"/>
<path id="Vector_2" d="M9.56283 13.833H9.97949V15.4997H9.56283V13.833ZM2.47949 13.833H2.89616V15.4997H2.47949V13.833Z" fill="#DD551F"/>
<path id="Vector_3" d="M7.85664 1.02554C7.01497 0.753043 5.03497 0.827626 4.53997 1.47096C3.25289 1.49554 1.74289 2.65888 1.54497 4.19388C1.34914 5.71263 1.7858 6.41804 1.94122 7.56013C2.11705 8.85429 2.84455 9.26804 3.42622 9.44138C4.26289 10.5472 5.15205 10.4997 6.6458 10.4997C9.56247 10.4997 10.9516 8.54804 11.0746 5.23346C11.1487 3.22846 9.97247 1.71013 7.85664 1.02554Z" fill="#FFAC33"/>
<path id="Vector_4" d="M4.97925 9.66699V12.167C4.97925 12.8574 5.53883 13.417 6.22925 13.417C6.91966 13.417 7.47925 12.8574 7.47925 12.167V9.66699H4.97925Z" fill="#FFDC5D"/>
<path id="Vector_5" d="M9.52463 5.37553C9.24254 4.9847 8.88088 4.67012 8.08879 4.55887C8.38588 4.69512 8.67046 5.16512 8.70754 5.42512C8.74463 5.68512 8.78171 5.89553 8.54671 5.63553C7.60505 4.59428 6.57921 5.00428 5.56254 4.36845C4.85254 3.92428 4.63629 3.43262 4.63629 3.43262C4.63629 3.43262 4.54963 4.08845 3.47296 4.75678C3.16088 4.95053 2.78838 5.38178 2.58171 6.01928C2.43296 6.4772 2.47921 6.88553 2.47921 7.58345C2.47921 9.62053 4.15796 11.3335 6.22921 11.3335C8.30046 11.3335 9.97921 9.60553 9.97921 7.58345C9.97921 6.31637 9.84629 5.82137 9.52463 5.37553Z" fill="#FFDC5D"/>
<path id="Vector_6" d="M6.22957 10.0833C6.68981 10.0833 7.06291 9.89679 7.06291 9.66667C7.06291 9.43655 6.68981 9.25 6.22957 9.25C5.76934 9.25 5.39624 9.43655 5.39624 9.66667C5.39624 9.89679 5.76934 10.0833 6.22957 10.0833Z" fill="#C1694F"/>
<path id="Vector_7" d="M6.64591 8.62467H5.81258C5.69758 8.62467 5.60425 8.53134 5.60425 8.41634C5.60425 8.30134 5.69758 8.20801 5.81258 8.20801H6.64591C6.76091 8.20801 6.85425 8.30134 6.85425 8.41634C6.85425 8.53134 6.76091 8.62467 6.64591 8.62467Z" fill="#C1694F"/>
<path id="Vector_8" d="M4.77251 2.05354L3.49001 1.97979L3.44918 1.74146C2.51584 2.17354 0.955844 2.32354 0.812928 3.43187C0.718761 4.16229 1.11584 5.52187 0.810428 6.07312L1.01626 7.27771C1.01626 7.27771 1.08626 7.68812 1.49709 7.61812C1.90751 7.54771 1.83751 7.13729 1.83751 7.13729L1.70709 4.46229C1.94043 4.34021 2.15334 4.16812 2.27001 4.00354L2.96626 3.01979L4.71168 3.11937C5.00585 3.13646 5.25876 2.91146 5.27501 2.61687C5.29168 2.32312 5.06668 2.07104 4.77251 2.05354Z" fill="#E39C2F"/>
<path id="Vector_9" d="M0.579203 2.80708L1.33879 1.73417L1.41587 0.5H3.02629L3.30254 1.84625L4.58337 1.92C4.87754 1.93792 5.10254 2.19 5.08587 2.48417C5.0692 2.77833 4.8167 3.00333 4.52254 2.98667L2.77754 2.88708L2.08129 3.87042C1.96462 4.035 1.75129 4.20708 1.51837 4.32917L1.64879 7.00417C1.64879 7.00417 1.71879 7.41458 1.30837 7.485C0.897953 7.55542 0.827536 7.14458 0.827536 7.14458L0.265869 3.86125L0.579203 2.80708Z" fill="#FFDC5D"/>
<path id="Vector_10" d="M9.04432 1.53638L8.96849 1.98013L7.68599 2.05388C7.39182 2.07138 7.16682 2.32346 7.18349 2.61804C7.20015 2.91221 7.45265 3.13721 7.74682 3.12054L9.49224 3.02096L10.1885 4.00471C10.3052 4.16929 10.5185 4.34138 10.7514 4.46346L10.621 7.13846C10.621 7.13846 10.5506 7.54888 10.9614 7.61929C11.3718 7.68929 11.4422 7.27888 11.4422 7.27888L11.9322 4.41388C11.4377 3.25679 10.2968 2.20804 9.04432 1.53638Z" fill="#E39C2F"/>
<path id="Vector_11" d="M11.8794 2.80708L11.1198 1.73417L11.0427 0.5H9.43228L9.15603 1.84625L7.8752 1.92C7.58103 1.93792 7.35603 2.19 7.3727 2.48417C7.38936 2.77833 7.64186 3.00333 7.93603 2.98667L9.68145 2.88708L10.3777 3.87083C10.4944 4.03542 10.7077 4.2075 10.9406 4.32958L10.8102 7.00458C10.8102 7.00458 10.7402 7.415 11.1506 7.48542C11.561 7.55583 11.6314 7.145 11.6314 7.145L12.1931 3.86125L11.8794 2.80708Z" fill="#FFDC5D"/>
<path id="Vector_12" d="M8.69 6.77339C8.65333 6.74381 8.60125 6.74256 8.56291 6.77048C8.56041 6.77256 8.30041 6.95839 7.79166 6.95839C7.28333 6.95839 7.02291 6.77256 7.02083 6.77089C6.98291 6.74256 6.93041 6.74298 6.89333 6.77256C6.85625 6.80214 6.84375 6.85298 6.86291 6.89631C6.87541 6.92464 7.17583 7.58339 7.79166 7.58339C8.40791 7.58339 8.70791 6.92464 8.72041 6.89673C8.73958 6.85339 8.72708 6.80298 8.69 6.77339ZM5.565 6.77339C5.52833 6.74381 5.47625 6.74256 5.43791 6.77048C5.43541 6.77256 5.17541 6.95839 4.66666 6.95839C4.15833 6.95839 3.89791 6.77256 3.89583 6.77089C3.85791 6.74256 3.80541 6.74298 3.76833 6.77256C3.73124 6.80214 3.71874 6.85298 3.73791 6.89631C3.75041 6.92464 4.05083 7.58339 4.66666 7.58339C5.28291 7.58339 5.58291 6.92464 5.59541 6.89673C5.61416 6.85339 5.60208 6.80298 5.565 6.77339Z" fill="#662113"/>
</g>
</svg>
