<svg width="12" height="16" viewBox="0 0 12 16" fill="none" xmlns="http://www.w3.org/2000/svg">
<g id="Emoji">
<path id="Vector" d="M10.3901 13.2914C10.3156 12.6946 9.73381 12.4832 9.44544 12.4832C9.07545 12.4832 8.19317 12.9461 8.03287 12.2384L8.01738 12.1618L3.86966 12.1567L3.84748 12.2337C3.69053 12.9486 2.80448 12.4832 2.43366 12.4832C2.14528 12.4832 1.56351 12.6946 1.48901 13.2914C1.48901 13.2914 4.32043 14.3114 5.94017 14.3114C7.56118 14.3114 10.3901 13.2914 10.3901 13.2914Z" fill="#4289C1"/>
<path id="Vector_2" d="M3.4981 7.80104C3.26958 7.76295 3.05445 7.89898 3.01636 8.12666L2.67107 10.0352C2.64135 10.0532 2.61163 10.0716 2.58024 10.0917C1.84278 10.5651 1.88505 11.5687 1.35225 12.0237C1.28068 12.0848 0.955058 12.3443 0.848749 12.5782C0.70812 12.8871 0.940827 12.7641 0.867583 12.8691C0.697656 13.1136 0.694308 13.4877 0.814429 13.5748L0.970544 13.6166C1.20367 13.7853 1.84152 13.0575 1.92523 12.6532C2.05079 12.0492 3.21224 11.2929 3.42737 10.7057C3.49517 10.5199 3.52112 10.3763 3.49977 10.2562L3.96268 8.10281C4.00076 7.87428 3.72579 7.83871 3.4981 7.80104ZM10.9992 12.8934C10.9259 12.7883 11.1821 12.8867 11.0414 12.5778C10.9347 12.3434 10.5856 12.0844 10.5145 12.0233C9.98168 11.5683 10.0474 10.5647 9.30993 10.0913C9.27519 10.0687 9.24129 10.0478 9.20823 10.0281L8.86419 8.12666C8.82652 7.89898 8.61013 7.76337 8.38287 7.80104C8.15476 7.83913 7.86597 7.87428 7.90364 8.10239L8.38538 10.288C8.37366 10.4018 8.40044 10.5358 8.46239 10.7057C8.6771 11.2925 9.83896 12.0488 9.96452 12.6532C10.0487 13.0579 10.6865 13.7857 10.9192 13.6166L11.0753 13.5748C11.1963 13.4869 11.1695 13.1378 10.9992 12.8934Z" fill="#FFDC5D"/>
<path id="Vector_3" d="M7.93114 15.4918C7.49586 15.529 7.08569 15.4047 6.67552 15.4918C6.47672 15.5043 6.33985 15.4918 6.14105 15.3177C5.94224 15.1435 2.67262 14.6836 2.07578 14.286C1.80038 14.1022 1.38017 13.6414 1.4915 13.2543C1.60158 12.8721 1.96822 12.6562 2.41145 12.6453C3.27573 12.6239 4.92268 13.8762 6.11594 14.3362C6.33274 14.4199 6.51271 14.3144 6.78727 14.386C7.07313 14.4605 7.75703 14.1537 8.10525 14.1993C8.57778 14.2617 8.76403 14.4852 8.72678 14.8707C8.68744 15.2783 8.36642 15.4545 7.93114 15.4918Z" fill="#FFDC5D"/>
<path id="Vector_4" d="M7.93126 15.4917C7.49598 15.529 7.08581 15.4047 6.67564 15.4917C6.47683 15.5043 6.33997 15.4917 6.14117 15.3176C5.94236 15.1435 6.51325 14.3135 6.78781 14.3851C7.07367 14.4596 7.75756 14.1528 8.10579 14.1985C8.57832 14.2608 8.76457 14.4843 8.72732 14.8698C8.68756 15.2783 8.36654 15.4545 7.93126 15.4917ZM3.09253 14.3977C3.19214 14.1365 3.58975 14.0248 3.77642 14.0001C3.96309 13.9754 4.27365 14.0871 4.48501 14.1742C4.69637 14.2612 4.95293 14.2721 5.11449 14.2098C5.27605 14.1474 5.39407 14.1579 5.51545 14.2098C5.5481 14.2236 5.69249 14.2098 5.74397 14.1817C5.74397 14.1817 6.49316 14.4395 6.21943 14.5266C5.94613 14.6136 3.95053 14.7459 3.67723 14.7459C3.40392 14.7459 3.09253 14.3977 3.09253 14.3977Z" fill="#F9CA55"/>
<path id="Vector_5" d="M1.4915 13.2544C1.49401 13.246 1.4982 13.2389 1.50071 13.231C1.58483 13.5499 1.8188 13.9257 2.08708 14.0253C2.42275 14.1497 5.12023 14.9453 5.4559 14.9825C5.79157 15.0198 6.28879 15.0696 6.3884 15.1441C6.48802 15.2186 6.74877 15.2437 6.96013 15.1939C7.17149 15.1441 7.70596 15.3429 7.97969 15.281C8.25299 15.219 8.65103 15.0947 8.72553 14.759C8.72678 14.7528 8.72846 14.7498 8.73013 14.7448C8.7318 14.785 8.73138 14.8264 8.7272 14.8712C8.68786 15.2793 8.36684 15.4555 7.93156 15.4927C7.49628 15.53 7.08611 15.4057 6.67594 15.4927C6.47713 15.5053 6.34027 15.4927 6.14147 15.3186C5.94266 15.1445 2.67303 14.6845 2.0762 14.2869C1.80038 14.1024 1.38017 13.6411 1.4915 13.2544Z" fill="#F9CA55"/>
<path id="Vector_6" d="M3.94943 15.4918C4.38471 15.529 4.79488 15.4047 5.20505 15.4918C5.40386 15.5043 5.54072 15.4918 5.73952 15.3177C5.93833 15.1435 9.20796 14.6836 9.80479 14.286C10.0802 14.1022 10.5004 13.6414 10.3891 13.2543C10.279 12.8721 9.91236 12.6562 9.46912 12.6453C8.60484 12.6239 6.95789 13.8762 5.76464 14.3362C5.54783 14.4199 5.36786 14.3144 5.0933 14.386C4.80744 14.4605 4.12354 14.1537 3.77532 14.1993C3.30279 14.2617 3.11654 14.4852 3.15379 14.8707C3.19313 15.2783 3.51415 15.4545 3.94943 15.4918Z" fill="#FFDC5D"/>
<path id="Vector_7" d="M9.06177 8.51728C9.06177 8.51728 8.82948 7.27213 7.83797 7.06286C6.65727 6.81383 6.32202 6.77783 5.94031 6.77783C5.5586 6.77783 5.22335 6.81383 4.04266 7.06286C3.05114 7.27171 2.81885 8.51728 2.81885 8.51728L3.84762 8.7818C3.84762 8.7818 3.99578 9.71095 3.99578 10.5317C3.99578 11.3525 3.84762 12.2188 3.84762 12.2188C3.84762 12.2188 4.69767 12.359 5.94031 12.359C7.18295 12.359 8.033 12.2188 8.033 12.2188C8.033 12.2188 7.88484 11.352 7.88484 10.5317C7.88484 9.71137 8.033 8.7818 8.033 8.7818L9.06177 8.51728Z" fill="#FA743E"/>
<path id="Vector_8" d="M6.86871 0.584231C6.39116 0.42979 5.2678 0.472062 4.98654 0.837028C4.25619 0.851258 3.39944 1.51129 3.28727 2.38185C3.17594 3.24363 3.42372 3.64375 3.51203 4.29207C3.61206 5.02618 4.02474 5.26098 4.35455 5.35934C4.82917 5.98673 5.33393 5.95994 6.18147 5.95994C7.83637 5.95994 8.62448 4.85249 8.69438 2.97199C8.73665 1.83441 8.06908 0.972635 6.86871 0.584231Z" fill="#FFAC33"/>
<path id="Vector_9" d="M5.23584 5.48682V6.90524C5.23584 7.297 5.55351 7.61467 5.94526 7.61467C6.33702 7.61467 6.65469 7.29742 6.65469 6.90524V5.48682H5.23584Z" fill="#FFDC5D"/>
<path id="Vector_10" d="M5.23584 6.54698C5.48529 6.63822 6.05827 6.78219 6.65427 6.53986V5.48682H5.23584V6.54698Z" fill="#F9CA55"/>
<path id="Vector_11" d="M7.81496 3.05207C7.65466 2.83024 7.45 2.65195 7.00049 2.58875C7.16916 2.66618 7.33071 2.93278 7.35164 3.08011C7.37257 3.22744 7.39391 3.34714 7.2604 3.19939C6.72592 2.60842 6.14374 2.84112 5.56699 2.48034C5.16394 2.22838 5.04131 1.94922 5.04131 1.94922C5.04131 1.94922 4.99234 2.3213 4.38127 2.7005C4.20423 2.81057 3.99287 3.05542 3.87568 3.41662C3.79155 3.67653 3.8175 3.9084 3.8175 4.30434C3.8175 5.46034 4.77009 6.43219 5.94535 6.43219C7.12061 6.43219 8.0732 5.45197 8.0732 4.30434C8.07278 3.58571 7.99745 3.30487 7.81496 3.05207Z" fill="#FFDC5D"/>
<path id="Vector_12" d="M6.89073 5.487H4.99977C4.99977 5.487 5.23625 5.95995 5.94525 5.95995C6.65425 5.95995 6.89073 5.487 6.89073 5.487ZM6.18131 4.89602H5.70836C5.64306 4.89602 5.59033 4.84329 5.59033 4.778C5.59033 4.7127 5.64306 4.65997 5.70836 4.65997H6.18131C6.2466 4.65997 6.29933 4.7127 6.29933 4.778C6.29975 4.84329 6.24702 4.89602 6.18131 4.89602ZM5.20778 4.16191H4.57998C4.52264 4.16191 4.47534 4.11461 4.47534 4.05727C4.47534 3.99993 4.52264 3.95264 4.57998 3.95264H5.20778C5.26554 3.95264 5.31242 3.99993 5.31242 4.05727C5.31242 4.11461 5.26554 4.16191 5.20778 4.16191ZM7.30048 4.16191H6.67267C6.61491 4.16191 6.56804 4.11461 6.56804 4.05727C6.56804 3.99993 6.61491 3.95264 6.67267 3.95264H7.30048C7.35824 3.95264 7.40511 3.99993 7.40511 4.05727C7.40511 4.11461 7.35824 4.16191 7.30048 4.16191Z" fill="#C1694F"/>
</g>
</svg>
