<svg width="20" height="16" viewBox="0 0 20 16" fill="none" xmlns="http://www.w3.org/2000/svg">
<g id="Emoji">
<path id="Vector" d="M6.95279 15.3251C0.0889779 14.3143 0.204468 7.4219 0.204468 5.33691H19.2659C19.2659 6.40996 19.3147 14.1781 11.9076 15.3823C10.7628 15.5684 8.28709 15.5219 6.95279 15.3251Z" fill="#292F33"/>
<path id="Vector_2" d="M18.3622 3.23295C19.7453 0.107987 13.6916 0.287389 12.1757 0.77626C11.3953 0.685438 10.5801 0.63386 9.73524 0.63386C4.47147 0.63386 0.204502 2.44358 0.204502 5.36783C0.204502 5.93351 0.367646 6.47732 0.663098 6.98862C-1.76275 10.1909 3.04354 10.7931 5.81194 10.1898C7.00945 10.4909 8.33478 10.663 9.73524 10.663C14.999 10.663 19.266 8.29209 19.266 5.36839C19.266 4.56669 18.9358 3.85245 18.3622 3.23295Z" fill="#66757F"/>
<path id="Vector_3" d="M9.7354 9.82223C14.3798 9.82223 18.1449 8.06521 18.1449 5.89781C18.1449 3.73041 14.3798 1.97339 9.7354 1.97339C5.09098 1.97339 1.32593 3.73041 1.32593 5.89781C1.32593 8.06521 5.09098 9.82223 9.7354 9.82223Z" fill="#FFCC4D"/>
<path id="Vector_4" d="M1.88624 4.77647C1.58238 3.56046 3.0075 1.41268 5.81066 1.97331C6.37129 1.41268 7.40173 0.852051 9.17445 0.852051C10.2957 0.852051 12.3207 1.84717 11.417 3.65521C10.8563 4.77647 8.61382 6.45837 5.81066 5.3371C5.25003 5.89773 2.44687 7.019 1.88624 4.77647Z" fill="#77B255"/>
<path id="Vector_5" d="M6.37156 5.33662C6.23197 5.3568 6.10751 5.37754 5.99146 5.39885C8.7094 6.37771 10.8689 4.75132 11.4172 3.65472C12.0216 2.446 11.3158 1.60281 10.4468 1.17505C10.6677 2.19652 9.8144 4.84494 6.37156 5.33662Z" fill="#5C913B"/>
<path id="Vector_6" d="M2.44692 4.77624C2.74125 4.04013 5.25008 3.09435 8.05323 6.45814C8.61387 7.01877 10.6243 7.3473 11.417 8.14003C11.9777 8.70066 11.417 9.26129 9.1745 9.26129C6.93197 9.26129 1.32566 7.5794 2.44692 4.77624Z" fill="#D99E82"/>
<path id="Vector_7" d="M3.03076 7.02881C4.45925 8.45449 7.62233 9.26124 9.17472 9.26124C11.4172 9.26124 11.9779 8.70061 11.4172 8.13998C11.2345 7.95721 10.9856 7.79968 10.7064 7.65784C8.9101 8.62941 4.15819 7.57711 3.03076 7.02881Z" fill="#B27962"/>
<path id="Vector_8" d="M14.7808 6.45856C14.6636 6.45856 14.5437 6.4395 14.4259 6.40025L12.744 5.83962C12.1565 5.6434 11.8392 5.00876 12.0348 4.42122C12.2305 3.83424 12.864 3.51636 13.4532 3.71202L15.1351 4.27266C15.7227 4.46888 16.04 5.10351 15.8443 5.69105C15.6879 6.16142 15.2506 6.45856 14.7808 6.45856ZM14.2202 8.13989H13.0989C12.7889 8.13989 12.5383 7.88929 12.5383 7.57926C12.5383 7.26923 12.7889 7.01863 13.0989 7.01863H14.2202C14.5302 7.01863 14.7808 7.26923 14.7808 7.57926C14.7808 7.88929 14.5302 8.13989 14.2202 8.13989Z" fill="#FFE8B6"/>
</g>
</svg>
