<svg width="24" height="25" viewBox="0 0 24 25" fill="none" xmlns="http://www.w3.org/2000/svg">
<g id="person_FILL0_wght400_GRAD0_opsz24 1">
<path id="Vector" d="M12 12.6667C10.9 12.6667 9.95833 12.2751 9.175 11.4917C8.39167 10.7084 8 9.76675 8 8.66675C8 7.56675 8.39167 6.62508 9.175 5.84175C9.95833 5.05841 10.9 4.66675 12 4.66675C13.1 4.66675 14.0417 5.05841 14.825 5.84175C15.6083 6.62508 16 7.56675 16 8.66675C16 9.76675 15.6083 10.7084 14.825 11.4917C14.0417 12.2751 13.1 12.6667 12 12.6667ZM4 20.6667V17.8667C4 17.3001 4.14583 16.7792 4.4375 16.3042C4.72917 15.8292 5.11667 15.4667 5.6 15.2167C6.63333 14.7001 7.68333 14.3126 8.75 14.0542C9.81667 13.7959 10.9 13.6667 12 13.6667C13.1 13.6667 14.1833 13.7959 15.25 14.0542C16.3167 14.3126 17.3667 14.7001 18.4 15.2167C18.8833 15.4667 19.2708 15.8292 19.5625 16.3042C19.8542 16.7792 20 17.3001 20 17.8667V20.6667H4ZM6 18.6667H18V17.8667C18 17.6834 17.9542 17.5167 17.8625 17.3667C17.7708 17.2167 17.65 17.1001 17.5 17.0167C16.6 16.5667 15.6917 16.2292 14.775 16.0042C13.8583 15.7792 12.9333 15.6667 12 15.6667C11.0667 15.6667 10.1417 15.7792 9.225 16.0042C8.30833 16.2292 7.4 16.5667 6.5 17.0167C6.35 17.1001 6.22917 17.2167 6.1375 17.3667C6.04583 17.5167 6 17.6834 6 17.8667V18.6667ZM12 10.6667C12.55 10.6667 13.0208 10.4709 13.4125 10.0792C13.8042 9.68758 14 9.21675 14 8.66675C14 8.11675 13.8042 7.64591 13.4125 7.25425C13.0208 6.86258 12.55 6.66675 12 6.66675C11.45 6.66675 10.9792 6.86258 10.5875 7.25425C10.1958 7.64591 10 8.11675 10 8.66675C10 9.21675 10.1958 9.68758 10.5875 10.0792C10.9792 10.4709 11.45 10.6667 12 10.6667Z" fill="#65676B"/>
</g>
</svg>
