<svg width="15" height="16" viewBox="0 0 15 16" fill="none" xmlns="http://www.w3.org/2000/svg">
<g id="Emoji">
<path id="Vector" d="M15 8C15 12.1421 11.6421 15.5 7.5 15.5C3.35792 15.5 0 12.1421 0 8C0 3.85792 3.35792 0.5 7.5 0.5C11.6421 0.5 15 3.85792 15 8Z" fill="#E1E8ED"/>
<path id="Vector_2" d="M12.5 8C12.5 10.7617 10.2617 13 7.5 13C4.73833 13 2.5 10.7617 2.5 8C2.5 5.23833 4.73833 3 7.5 3C10.2617 3 12.5 5.23833 12.5 8Z" fill="#CCD6DD"/>
<path id="Vector_3" d="M12.0832 8.00008C12.0832 10.5313 10.0311 12.5834 7.49984 12.5834C4.96817 12.5834 2.9165 10.5313 2.9165 8.00008C2.9165 5.46841 4.96859 3.41675 7.49984 3.41675C10.0311 3.41675 12.0832 5.46841 12.0832 8.00008Z" fill="#E1E8ED"/>
<g id="Group">
<path id="Vector_4" d="M0.416667 1.33333C0.646785 1.33333 0.833333 1.14679 0.833333 0.916667C0.833333 0.686548 0.646785 0.5 0.416667 0.5C0.186548 0.5 0 0.686548 0 0.916667C0 1.14679 0.186548 1.33333 0.416667 1.33333Z" fill="#99AAB5"/>
<path id="Vector_5" d="M0 0.916748H0.833333V3.83341H0V0.916748Z" fill="#99AAB5"/>
<path id="Vector_6" d="M2.08317 1.33333C2.31329 1.33333 2.49984 1.14679 2.49984 0.916667C2.49984 0.686548 2.31329 0.5 2.08317 0.5C1.85305 0.5 1.6665 0.686548 1.6665 0.916667C1.6665 1.14679 1.85305 1.33333 2.08317 1.33333Z" fill="#99AAB5"/>
<path id="Vector_7" d="M1.6665 0.916748H2.49984V3.83341H1.6665V0.916748Z" fill="#99AAB5"/>
<path id="Vector_8" d="M3.75016 1.33333C3.98028 1.33333 4.16683 1.14679 4.16683 0.916667C4.16683 0.686548 3.98028 0.5 3.75016 0.5C3.52004 0.5 3.3335 0.686548 3.3335 0.916667C3.3335 1.14679 3.52004 1.33333 3.75016 1.33333Z" fill="#99AAB5"/>
<path id="Vector_9" d="M3.33333 0.916748H4.16667V3.83341H3.33333V0.916748ZM1.25 6.33341H2.91667V14.6667H1.25V6.33341Z" fill="#99AAB5"/>
<path id="Vector_10" d="M2.08333 15.4999C2.54357 15.4999 2.91667 15.1268 2.91667 14.6666C2.91667 14.2063 2.54357 13.8333 2.08333 13.8333C1.6231 13.8333 1.25 14.2063 1.25 14.6666C1.25 15.1268 1.6231 15.4999 2.08333 15.4999Z" fill="#99AAB5"/>
<path id="Vector_11" d="M3.33333 3.83325C3.33333 4.06325 3.14667 4.24992 2.91667 4.24992C2.68667 4.24992 2.5 4.06325 2.5 3.83325H1.66667C1.66667 4.06325 1.48 4.24992 1.25 4.24992C1.02 4.24992 0.833333 4.06325 0.833333 3.83325H0C0 5.44409 0.416667 6.74992 2.08333 6.74992C3.75 6.74992 4.16667 5.44409 4.16667 3.83325H3.33333Z" fill="#99AAB5"/>
<path id="Vector_12" d="M0.416667 4.25008C0.646785 4.25008 0.833333 4.06353 0.833333 3.83341C0.833333 3.6033 0.646785 3.41675 0.416667 3.41675C0.186548 3.41675 0 3.6033 0 3.83341C0 4.06353 0.186548 4.25008 0.416667 4.25008Z" fill="#99AAB5"/>
<path id="Vector_13" d="M2.08317 4.25008C2.31329 4.25008 2.49984 4.06353 2.49984 3.83341C2.49984 3.6033 2.31329 3.41675 2.08317 3.41675C1.85305 3.41675 1.6665 3.6033 1.6665 3.83341C1.6665 4.06353 1.85305 4.25008 2.08317 4.25008Z" fill="#99AAB5"/>
<path id="Vector_14" d="M3.75016 4.25008C3.98028 4.25008 4.16683 4.06353 4.16683 3.83341C4.16683 3.6033 3.98028 3.41675 3.75016 3.41675C3.52004 3.41675 3.3335 3.6033 3.3335 3.83341C3.3335 4.06353 3.52004 4.25008 3.75016 4.25008Z" fill="#99AAB5"/>
</g>
<g id="Group_2">
<path id="Vector_15" d="M12.5 6.33325H14.1667V14.6666H12.5V6.33325Z" fill="#99AAB5"/>
<path id="Vector_16" d="M13.3333 15.4999C13.7936 15.4999 14.1667 15.1268 14.1667 14.6666C14.1667 14.2063 13.7936 13.8333 13.3333 13.8333C12.8731 13.8333 12.5 14.2063 12.5 14.6666C12.5 15.1268 12.8731 15.4999 13.3333 15.4999Z" fill="#99AAB5"/>
<path id="Vector_17" d="M13.3333 0.5C13.75 0.5 14.1667 0.916667 14.1667 1.75V8.41667C14.1667 8.41667 11.25 9.25 11.25 5.08333C11.25 2.58333 12.5 0.5 13.3333 0.5Z" fill="#99AAB5"/>
</g>
</g>
</svg>
