<svg width="30" height="30" viewBox="0 0 30 30" fill="none" xmlns="http://www.w3.org/2000/svg">
<g id="iconamoon:search-fill">
<path id="Vector" fill-rule="evenodd" clip-rule="evenodd" d="M13.7498 2.5C11.9527 2.50019 10.1819 2.93088 8.58549 3.75599C6.98908 4.58111 5.61357 5.77665 4.57409 7.24253C3.53461 8.70841 2.86142 10.402 2.61086 12.1814C2.36031 13.9609 2.53969 15.7745 3.13398 17.4705C3.72827 19.1664 4.72018 20.6952 6.02668 21.9291C7.33317 23.1629 8.91624 24.0659 10.6433 24.5623C12.3705 25.0587 14.1914 25.1341 15.9536 24.7823C17.7159 24.4304 19.3682 23.6616 20.7723 22.54L25.366 27.1338C25.6018 27.3614 25.9175 27.4874 26.2453 27.4846C26.573 27.4817 26.8865 27.3503 27.1183 27.1185C27.35 26.8868 27.4815 26.5732 27.4844 26.2455C27.4872 25.9178 27.3612 25.602 27.1335 25.3662L22.5398 20.7725C23.8623 19.1173 24.6905 17.1224 24.9291 15.0172C25.1678 12.9121 24.8071 10.7823 23.8887 8.87312C22.9703 6.96391 21.5314 5.35285 19.7377 4.22537C17.944 3.09789 15.8684 2.49982 13.7498 2.5ZM6.24976 13.75C6.24976 12.7651 6.44375 11.7898 6.82066 10.8799C7.19757 9.96993 7.75002 9.14314 8.44646 8.4467C9.1429 7.75026 9.96969 7.19781 10.8796 6.8209C11.7896 6.44399 12.7648 6.25 13.7498 6.25C14.7347 6.25 15.7099 6.44399 16.6199 6.8209C17.5298 7.19781 18.3566 7.75026 19.0531 8.4467C19.7495 9.14314 20.3019 9.96993 20.6789 10.8799C21.0558 11.7898 21.2498 12.7651 21.2498 13.75C21.2498 15.7391 20.4596 17.6468 19.0531 19.0533C17.6465 20.4598 15.7389 21.25 13.7498 21.25C11.7606 21.25 9.85298 20.4598 8.44646 19.0533C7.03994 17.6468 6.24976 15.7391 6.24976 13.75Z" fill="#65676B"/>
</g>
</svg>
