<svg width="15" height="14" viewBox="0 0 15 14" fill="none" xmlns="http://www.w3.org/2000/svg">
<path id="settings" d="M6.12276 14L5.77276 11.8015C5.60755 11.7474 5.42446 11.6622 5.2235 11.5461C5.02253 11.4299 4.85369 11.3169 4.71696 11.2071L2.6648 12.1441L0.84668 8.90704L2.70103 7.54544C2.68992 7.48011 2.68315 7.39096 2.68073 7.27798C2.67832 7.165 2.67711 7.07028 2.67711 6.99382C2.67711 6.92222 2.67832 6.83428 2.68073 6.73C2.68315 6.62573 2.68992 6.53223 2.70103 6.44948L0.84668 5.07626L2.6648 1.86531L4.72131 2.80231C4.85175 2.70506 5.01866 2.59716 5.22205 2.47861C5.42542 2.36006 5.609 2.27369 5.77276 2.2195L6.12276 0H9.7235L10.0568 2.21006C10.2332 2.26426 10.4226 2.35063 10.6253 2.46918C10.828 2.58772 10.9952 2.69877 11.1271 2.80231L13.1909 1.86531L14.9996 5.07626L13.1119 6.41391C13.123 6.50778 13.1357 6.60964 13.1499 6.71948C13.1642 6.82932 13.1713 6.9256 13.1713 7.00835C13.1713 7.09109 13.1642 7.1846 13.1499 7.28886C13.1357 7.39314 13.1254 7.48665 13.1191 7.5694L14.9923 8.90704L13.1648 12.1441L11.1126 11.2071C10.9759 11.3169 10.8067 11.4327 10.605 11.5544C10.4033 11.6761 10.2262 11.7585 10.0735 11.8015L9.7235 14H6.12276ZM7.89813 9.24454C8.52083 9.24454 9.04981 9.02655 9.48508 8.59059C9.92035 8.15463 10.138 7.6248 10.138 7.00109C10.138 6.38367 9.92035 5.85541 9.48508 5.41631C9.04981 4.97719 8.52083 4.75763 7.89813 4.75763C7.26914 4.75763 6.73859 4.97719 6.30646 5.41631C5.87434 5.85541 5.65828 6.38367 5.65828 7.00109C5.65828 7.6248 5.87434 8.15463 6.30646 8.59059C6.73859 9.02655 7.26914 9.24454 7.89813 9.24454Z" fill="white"/>
</svg>
