<svg width="19" height="18" viewBox="0 0 19 18" fill="none" xmlns="http://www.w3.org/2000/svg">
<path id="Vector" d="M6.79444 18L6.34372 15.1734C6.13096 15.1037 5.89643 14.9958 5.64012 14.8497C5.38382 14.7036 5.16514 14.5567 4.98408 14.4092L2.34134 15.6139L0 11.4519L2.388 9.69774C2.37369 9.61717 2.36497 9.50515 2.36185 9.36169C2.35875 9.21824 2.3572 9.09301 2.3572 8.98601C2.3572 8.89143 2.35875 8.7802 2.36185 8.65232C2.36497 8.52444 2.37369 8.4044 2.388 8.29219L0 6.52662L2.34134 2.39826L4.98968 3.60298C5.15673 3.47425 5.37144 3.33461 5.63381 3.18404C5.89618 3.03345 6.13282 2.92332 6.34372 2.85364L6.79444 0H11.4314L11.8607 2.84151C12.0877 2.91119 12.3317 3.02224 12.5927 3.17466C12.8537 3.32707 13.0691 3.46985 13.2389 3.60298L15.8966 2.39826L18.2258 6.52662L15.7949 8.24645C15.8092 8.36356 15.8256 8.49452 15.8439 8.63934C15.8623 8.78414 15.8714 8.90794 15.8714 9.01073C15.8714 9.11352 15.8623 9.23375 15.8439 9.3714C15.8256 9.50906 15.8123 9.62929 15.8042 9.73208L18.2165 11.4519L15.863 15.6139L13.2203 14.4092C13.0442 14.5504 12.8263 14.6992 12.5666 14.8557C12.3069 15.0121 12.0787 15.118 11.8821 15.1734L11.4314 18H6.79444ZM8.267 16.2148H9.94375L10.2554 13.8138C10.7464 13.6912 11.2076 13.5101 11.6392 13.2703C12.0708 13.0306 12.4644 12.7243 12.8201 12.3515L15.082 13.3509L15.8313 11.9633L13.8352 10.5066C13.9006 10.2605 13.9547 10.0124 13.9976 9.76234C14.0405 9.51229 14.062 9.25856 14.062 9.00116C14.062 8.74376 14.0421 8.49095 14.0023 8.24272C13.9625 7.99451 13.9139 7.74971 13.8567 7.50832L15.8434 6.04884L15.0913 4.66121L12.8184 5.65132C12.4878 5.26311 12.1054 4.93407 11.671 4.66421C11.2367 4.39435 10.7601 4.2288 10.2414 4.16756L9.95884 1.79729H8.24553L7.96651 4.16756C7.45949 4.27394 6.98372 4.45436 6.53922 4.70881C6.09472 4.96325 5.70388 5.27337 5.3667 5.63917L3.1406 4.66121L2.36374 6.04884L4.34768 7.49338C4.28234 7.74285 4.23179 7.9917 4.19602 8.23993C4.16025 8.48816 4.14236 8.74259 4.14236 9.00322C4.14236 9.26329 4.16025 9.519 4.19602 9.77033C4.23179 10.0217 4.28234 10.2671 4.34768 10.5066L2.36374 11.9633L3.13454 13.3509L5.37601 12.3515C5.73995 12.7316 6.1406 13.0473 6.57794 13.2987C7.0153 13.55 7.47816 13.7289 7.96651 13.8352L8.267 16.2148ZM9.08072 11.8858C9.87942 11.8858 10.5598 11.6051 11.122 11.0435C11.6841 10.482 11.9652 9.80229 11.9652 9.00444C11.9652 8.21432 11.6841 7.53554 11.122 6.96812C10.5598 6.40068 9.87942 6.11696 9.08072 6.11696C8.27072 6.11696 7.58748 6.39966 7.03101 6.96507C6.47453 7.53048 6.19629 8.20824 6.19629 8.99837C6.19629 9.79622 6.47453 10.4769 7.03101 11.0405C7.58748 11.604 8.27072 11.8858 9.08072 11.8858Z" fill="#65676B"/>
</svg>
