<svg width="20" height="18" viewBox="0 0 20 18" fill="none" xmlns="http://www.w3.org/2000/svg">
<path id="Vector" d="M19.0156 8.07216V15.8892C19.0156 16.464 18.8039 16.9596 18.3806 17.3758C17.9573 17.7919 17.4532 18 16.8683 18H3.09761C2.50925 18 2.00817 17.7919 1.59437 17.3758C1.18056 16.9596 0.973657 16.464 0.973657 15.8892V8.16495C0.506853 7.68557 0.226771 7.15162 0.133411 6.56311C0.0400499 5.9746 0.0789502 5.41061 0.250111 4.87113L1.23507 1.74254C1.41868 1.1994 1.70446 0.773196 2.09242 0.463918C2.48038 0.154639 2.95642 0 3.52054 0H16.3489C16.9065 0 17.397 0.162371 17.8204 0.487113C18.2438 0.811856 18.5488 1.22938 18.7355 1.73969L19.7392 4.87113C19.9103 5.39691 19.9298 5.94588 19.7975 6.51804C19.6652 7.09021 19.4046 7.60825 19.0156 8.07216ZM12.0957 7.09794C12.4679 7.09794 12.7962 6.97423 13.0806 6.7268C13.3651 6.47938 13.484 6.1701 13.4373 5.79897L12.8771 2.13402H10.8699V5.77577C10.8699 6.14095 10.9852 6.45261 11.2157 6.71075C11.4463 6.96888 11.7397 7.09794 12.0957 7.09794ZM7.73141 7.09794C8.10088 7.09794 8.42458 6.97274 8.7025 6.72235C8.98042 6.47194 9.11938 6.15642 9.11938 5.77577V2.13402H7.13546L6.5753 5.79897C6.51306 6.13917 6.59086 6.44072 6.8087 6.70361C7.02654 6.96649 7.33411 7.09794 7.73141 7.09794ZM3.49986 7.09794C3.80742 7.09794 4.08568 6.98196 4.33464 6.75C4.5836 6.51804 4.72364 6.23969 4.75477 5.91495L5.36161 2.13402H3.35435L2.32739 5.38144C2.18735 5.83318 2.23403 6.23219 2.46743 6.57849C2.70083 6.92479 3.04497 7.09794 3.49986 7.09794ZM16.4606 7.09794C16.9036 7.09794 17.2495 6.92783 17.4985 6.58763C17.7475 6.24742 17.8019 5.84536 17.6619 5.38144L16.6349 2.13402H14.6743L15.2345 5.91495C15.2501 6.23969 15.3777 6.51804 15.6173 6.75C15.8569 6.98196 16.138 7.09794 16.4606 7.09794ZM3.09761 15.8892H16.8683V9.20876C16.9131 9.22423 16.8814 9.22809 16.7735 9.22036C16.6656 9.21263 16.5638 9.20876 16.4683 9.20876C16.1593 9.20876 15.8219 9.14304 15.4562 9.0116C15.0906 8.88015 14.7137 8.66753 14.3255 8.37371C14.0757 8.6366 13.7573 8.84149 13.3703 8.9884C12.9833 9.13531 12.5799 9.20876 12.16 9.20876C11.72 9.20876 11.325 9.15077 10.9749 9.03479C10.6248 8.91881 10.3019 8.74485 10.0063 8.51289C9.71492 8.72856 9.39701 8.89846 9.05255 9.02259C8.7081 9.14671 8.32751 9.20876 7.91078 9.20876C7.43321 9.20876 7.01236 9.13897 6.64824 8.9994C6.2841 8.8598 5.95636 8.65124 5.66503 8.37371C5.24491 8.68299 4.83646 8.89948 4.43967 9.0232C4.04289 9.14691 3.7278 9.20876 3.4944 9.20876C3.38547 9.20876 3.29649 9.21263 3.22743 9.22036C3.15839 9.22809 3.11512 9.22423 3.09761 9.20876V15.8892Z" fill="#65676B"/>
</svg>
