<svg width="15" height="12" viewBox="0 0 15 12" fill="none" xmlns="http://www.w3.org/2000/svg">
<g id="Emoji">
<path id="Vector" d="M13.3093 6.4C13.7841 6.4 14.1093 6.7144 14.1093 7.2C14.1093 7.6292 13.7161 8 13.3093 8H8.90928C8.31088 8 8.10928 7.6748 8.10928 7.2C8.10928 6.974 8.36208 6.6032 8.50928 6.4L11.7093 1.6H8.90928C8.45808 1.6 8.10928 1.2628 8.10928 0.8C8.10928 0.3708 8.48088 0 8.90928 0H13.3093C13.9649 0 14.1093 0.4048 14.1093 0.8C14.1093 1.0484 13.8553 1.4076 13.7093 1.6L10.5093 6.4H13.3093ZM6.90928 8.4C7.16248 8.4 7.30928 8.5412 7.30928 8.8C7.30928 9.0292 7.12608 9.2 6.90928 9.2H4.50928C4.19008 9.2 4.10928 9.0532 4.10928 8.8C4.10928 8.6796 4.24408 8.5084 4.32248 8.4L6.10928 6H4.50928C4.26848 6 4.10928 5.8464 4.10928 5.6C4.10928 5.3708 4.28048 5.2 4.50928 5.2H6.90928C7.25888 5.2 7.30928 5.3892 7.30928 5.6C7.30928 5.7324 7.17408 5.9508 7.09608 6.0532L5.30928 8.4H6.90928ZM3.30928 11.2C3.56248 11.2 3.70928 11.3412 3.70928 11.6C3.70928 11.8292 3.52608 12 3.30928 12H0.909277C0.590077 12 0.509277 11.8532 0.509277 11.6C0.509277 11.4796 0.644077 11.3084 0.722477 11.2L2.50928 8.8H0.909277C0.668477 8.8 0.509277 8.6464 0.509277 8.4C0.509277 8.1712 0.680477 8 0.909277 8H3.30928C3.65888 8 3.70928 8.1892 3.70928 8.4C3.70928 8.5324 3.57408 8.7508 3.49608 8.8532L1.70928 11.2H3.30928Z" fill="#4289C1"/>
</g>
</svg>
