<svg width="15" height="16" viewBox="0 0 15 16" fill="none" xmlns="http://www.w3.org/2000/svg">
<g id="Emoji">
<path id="Vector" d="M15 8C15 12.1421 11.6421 15.5 7.5 15.5C3.35833 15.5 0 12.1421 0 8C0 3.85833 3.35833 0.5 7.5 0.5C11.6421 0.5 15 3.85833 15 8Z" fill="#FFCC4D"/>
<path id="Vector_2" d="M11.8571 7.91521C11.8321 7.85896 11.2325 6.54146 9.99999 6.54146C8.76791 6.54146 8.16791 7.85896 8.14291 7.91521C8.10457 8.00146 8.12957 8.10229 8.20332 8.16146C8.27624 8.22062 8.38082 8.22271 8.45749 8.16729C8.46249 8.16354 8.98332 7.79146 9.99999 7.79146C11.0108 7.79146 11.5308 8.15854 11.5425 8.16687C11.5792 8.19437 11.6233 8.20812 11.6667 8.20812C11.7125 8.20812 11.7587 8.19271 11.7967 8.16271C11.8704 8.10354 11.8958 8.00187 11.8571 7.91521ZM6.85707 7.91521C6.83207 7.85896 6.23249 6.54146 4.99999 6.54146C3.76791 6.54146 3.16791 7.85896 3.14291 7.91521C3.10457 8.00146 3.12957 8.10229 3.20291 8.16146C3.27624 8.22062 3.38082 8.22271 3.45707 8.16729C3.46249 8.16354 3.98291 7.79146 4.99999 7.79146C6.01082 7.79146 6.53082 8.15854 6.54249 8.16687C6.57916 8.19437 6.62332 8.20812 6.66666 8.20812C6.71249 8.20812 6.75874 8.19271 6.79666 8.16271C6.87082 8.10354 6.89541 8.00187 6.85707 7.91521ZM12.9167 7.16646C12.7517 7.16646 12.595 7.06729 12.5296 6.90437C11.7887 5.05229 9.93666 4.66229 9.91791 4.65812C9.69249 4.61312 9.54582 4.39354 9.59124 4.16771C9.63624 3.94187 9.85582 3.79646 10.0817 3.84104C10.1758 3.85979 12.3967 4.32771 13.3033 6.59437C13.3887 6.80812 13.2846 7.05062 13.0708 7.13604C13.0208 7.15687 12.9683 7.16646 12.9167 7.16646ZM2.08332 7.16646C2.03166 7.16646 1.97957 7.15687 1.92874 7.13646C1.71499 7.05104 1.61124 6.80854 1.69666 6.59479C2.60332 4.32812 4.82416 3.86021 4.91832 3.84146C5.14457 3.79729 5.36332 3.94271 5.40874 4.16812C5.45374 4.39312 5.30791 4.61229 5.08332 4.65812C5.00624 4.67396 3.20582 5.06646 2.47041 6.90437C2.40499 7.06729 2.24832 7.16646 2.08332 7.16646ZM7.49999 9.66646C5.99041 9.66646 4.98874 9.49062 3.74999 9.24979C3.46707 9.19521 2.91666 9.24979 2.91666 10.0831C2.91666 11.7498 4.83124 13.8331 7.49999 13.8331C10.1683 13.8331 12.0833 11.7498 12.0833 10.0831C12.0833 9.24979 11.5329 9.19479 11.25 9.24979C10.0112 9.49062 9.00957 9.66646 7.49999 9.66646Z" fill="#664500"/>
<path id="Vector_3" d="M3.75 10.0833C3.75 10.0833 5 10.4999 7.5 10.4999C10 10.4999 11.25 10.0833 11.25 10.0833C11.25 10.0833 10.4167 11.7499 7.5 11.7499C4.58333 11.7499 3.75 10.0833 3.75 10.0833Z" fill="white"/>
<path id="Vector_4" d="M4.51948 12.2621C4.23615 13.3775 3.10281 14.0516 1.9874 13.7683C0.872398 13.4854 0.197815 12.3521 0.480732 11.2366C0.763648 10.1212 3.12115 7.60831 3.52532 7.71081C3.92948 7.81372 4.8024 11.1471 4.51948 12.2621ZM10.472 12.2621C10.7553 13.3775 11.8886 14.0516 13.0041 13.7683C14.1195 13.4854 14.7941 12.3521 14.5107 11.2366C14.2274 10.1212 11.8699 7.60831 11.4657 7.71081C11.0624 7.81372 10.1891 11.1471 10.472 12.2621Z" fill="#5DADEC"/>
</g>
</svg>
