<svg width="22" height="12" viewBox="0 0 22 12" fill="none" xmlns="http://www.w3.org/2000/svg">
<path id="Vector" d="M6.79235 12C5.13209 12 3.72088 11.4156 2.55871 10.2468C1.39652 9.07805 0.81543 7.65882 0.81543 5.98913C0.81543 4.31945 1.39652 2.90385 2.55871 1.74231C3.72088 0.580769 5.13209 0 6.79235 0H16.0231C17.6834 0 19.0946 0.584392 20.2568 1.75318C21.419 2.92195 22 4.34118 22 6.01087C22 7.68055 21.419 9.09615 20.2568 10.2577C19.0946 11.4192 17.6834 12 16.0231 12H6.79235ZM6.79895 10.1538H16.0164C17.154 10.1538 18.1279 9.74972 18.9383 8.94148C19.7487 8.13321 20.1539 7.15177 20.1539 5.99714C20.1539 4.84251 19.7478 3.86202 18.9356 3.05566C18.1234 2.24932 17.1526 1.84615 16.0231 1.84615H6.80569C5.64823 1.84615 4.66818 2.25 3.86553 3.05769C3.0629 3.86538 2.66158 4.84615 2.66158 6C2.66158 7.15385 3.06381 8.13461 3.86828 8.94231C4.67274 9.75 5.64963 10.1538 6.79895 10.1538ZM6.78148 8.26154C7.41308 8.26154 7.94588 8.04206 8.37986 7.60311C8.81383 7.16415 9.03081 6.63114 9.03081 6.00406C9.03081 5.377 8.81338 4.84263 8.3785 4.40095C7.94362 3.95929 7.41038 3.73846 6.77878 3.73846C6.14718 3.73846 5.61078 3.95794 5.16956 4.39689C4.72834 4.83585 4.50774 5.36886 4.50774 5.99594C4.50774 6.623 4.7288 7.15737 5.17092 7.59905C5.61303 8.04071 6.14988 8.26154 6.78148 8.26154Z" fill="#65676B"/>
</svg>
