<svg width="16" height="16" viewBox="0 0 16 16" fill="none" xmlns="http://www.w3.org/2000/svg">
<g id="Emoji">
<path id="Vector" d="M9.17854 2.39429C9.17854 4.92882 7.64864 10.0429 4.58927 10.0429C1.5299 10.0429 0 4.92924 0 2.39429C0 -0.601247 3.44195 0.864399 4.58927 0.864399C5.72073 0.864399 9.17854 -0.617101 9.17854 2.39429Z" fill="#A6D388"/>
<path id="Vector_2" d="M2.29441 5.45361C4.20647 6.60092 5.35378 6.60092 6.88368 5.45361C8.031 4.68887 6.11894 8.13082 4.58904 8.13082C3.05915 8.13082 1.14709 4.68887 2.29441 5.45361ZM1.52925 3.92413C1.47168 3.92413 1.41327 3.91119 1.3582 3.88366C1.16962 3.78937 1.09285 3.55949 1.18756 3.37049C1.4529 2.83981 1.99402 2.4735 2.56559 2.43804C2.91563 2.41843 3.59109 2.50271 4.14222 3.32961C4.25945 3.50525 4.21189 3.74264 4.03625 3.85988C3.85977 3.97711 3.62279 3.92955 3.50598 3.75391C3.25148 3.37216 2.94066 3.18067 2.61315 3.20153C2.30859 3.2203 2.01738 3.42098 1.87178 3.71302C1.80461 3.84653 1.66943 3.92413 1.52925 3.92413ZM7.64884 3.92413C7.50865 3.92413 7.37348 3.84653 7.30673 3.7126C7.1607 3.42098 6.86991 3.2203 6.56535 3.20111C6.2416 3.18359 5.92744 3.37175 5.67253 3.75349C5.55488 3.92955 5.3179 3.9767 5.14226 3.85946C4.96662 3.74223 4.91905 3.50484 5.03629 3.32919C5.587 2.50187 6.25912 2.41718 6.61291 2.43762C7.18448 2.47308 7.7256 2.83939 7.99094 3.37008C8.08565 3.55907 8.00888 3.78854 7.81989 3.88324C7.76482 3.91119 7.70641 3.92413 7.64884 3.92413Z" fill="#5C913B"/>
<path id="Vector_3" d="M15.0194 7.85124C15.0194 10.3853 13.4895 15.4999 10.4301 15.4999C7.37072 15.4999 5.84082 10.3853 5.84082 7.85124C5.84082 4.85528 9.28277 6.32134 10.4301 6.32134C11.562 6.32134 15.0194 4.83942 15.0194 7.85124Z" fill="#CBB7EA"/>
<path id="Vector_4" d="M12.3075 13.0599C10.8473 12.1625 10.0129 12.1625 8.55269 13.0599C7.40537 13.8247 8.90022 11.2171 10.4301 11.2171C11.96 11.2171 13.4549 13.8247 12.3075 13.0599ZM7.09246 9.62466C7.03489 9.62466 6.97648 9.61173 6.92141 9.58419C6.73241 9.48991 6.65607 9.26002 6.75035 9.07103C7.0424 8.48736 7.75332 8.03219 8.44046 7.98963C9.06168 7.94833 9.61489 8.2337 9.98329 8.78691C10.1005 8.96297 10.053 9.19995 9.87732 9.3176C9.70167 9.43483 9.46428 9.38727 9.34705 9.21163C9.12927 8.88537 8.84014 8.73268 8.48802 8.75312C8.02033 8.78191 7.58518 9.1115 7.43416 9.41356C7.3674 9.54706 7.23223 9.62466 7.09246 9.62466ZM13.7682 9.62466C13.6276 9.62466 13.4928 9.54706 13.4257 9.41272C13.2755 9.11108 12.8403 8.78191 12.3726 8.7527C12.0213 8.73309 11.7305 8.88454 11.5132 9.21121C11.3964 9.38686 11.1581 9.43442 10.9829 9.31718C10.8073 9.19995 10.7597 8.96256 10.8769 8.7865C11.2458 8.23328 11.7898 7.94833 12.4202 7.98921C13.1077 8.03219 13.8187 8.48736 14.1103 9.07103C14.2046 9.25961 14.1278 9.48949 13.9388 9.58378C13.8837 9.61173 13.8258 9.62466 13.7682 9.62466Z" fill="#9266CC"/>
</g>
</svg>
