<svg width="16" height="16" viewBox="0 0 16 16" fill="none" xmlns="http://www.w3.org/2000/svg">
<g id="Emoji">
<path id="Vector" d="M7.6972 15.5002C11.8655 15.5002 15.2445 14.494 15.2445 13.2528C15.2445 12.0116 11.8655 11.0054 7.6972 11.0054C3.52894 11.0054 0.149902 12.0116 0.149902 13.2528C0.149902 14.494 3.52894 15.5002 7.6972 15.5002Z" fill="#3B88C3"/>
<path id="Vector_2" d="M14.3275 12.4134C14.3275 13.091 13.2793 13.4981 8.25529 13.4981C3.6745 13.4981 2.54785 13.091 2.54785 12.4134C2.54785 11.7358 4.9307 11.1865 8.25529 11.1865C11.5799 11.1865 14.3275 11.7358 14.3275 12.4134Z" fill="#88C9F9"/>
<path id="Vector_3" d="M3.08496 12.2925C3.08496 11.8732 3.50426 10.196 7.6972 10.196C12.7287 10.196 13.9866 11.8732 13.9866 12.2925C13.9866 12.7118 13.9866 13.1311 8.11649 13.1311C3.08496 13.1311 3.08496 12.7118 3.08496 12.2925Z" fill="#F4900C"/>
<path id="Vector_4" d="M8.79569 12.0479C8.73279 12.3381 8.44557 12.523 8.15542 12.4597C7.86485 12.3968 7.68036 12.11 7.74326 11.8194L9.87453 0.924067C9.93742 0.633496 10.2242 0.449426 10.5148 0.51232C10.8045 0.575214 10.9899 0.862011 10.9261 1.15258L8.79569 12.0479Z" fill="#66757F"/>
<path id="Vector_5" d="M10.3633 1.21345C7.16746 0.519941 4.13387 1.99879 3.58753 4.51666C3.58753 4.51666 3.43532 5.21772 3.78627 5.29403C4.1368 5.37034 4.99048 4.82106 4.99048 4.82106L13.7571 6.72382C13.7571 6.72382 14.3059 7.57751 14.6569 7.65382C15.0078 7.73013 15.1596 7.02865 15.1596 7.02865C15.7064 4.51037 13.5588 1.90697 10.3633 1.21345Z" fill="#DD2E44"/>
<path id="Vector_6" d="M10.3629 1.21315C7.94185 0.687771 5.53635 2.30289 4.99001 4.82034C4.99001 4.82034 4.83781 5.52182 5.53929 5.67402C6.24077 5.82664 7.44498 5.35326 7.44498 5.35326L11.3021 6.19059C11.3021 6.19059 12.2019 7.12017 12.9034 7.27279C13.6048 7.42457 13.7566 6.7231 13.7566 6.7231C14.303 4.20565 12.7834 1.73852 10.3629 1.21315Z" fill="#FFE8B6"/>
<path id="Vector_7" d="M10.3631 1.21342C9.10397 0.940463 7.99116 2.83609 7.44482 5.35354C7.44482 5.35354 8.34463 6.28353 9.04569 6.43532L9.39664 6.51205C10.0981 6.66383 11.3019 6.19087 11.3019 6.19087C11.8487 3.67342 11.6223 1.4868 10.3631 1.21342Z" fill="#DD2E44"/>
<path id="Vector_8" d="M6.79331 12.1656C6.98996 11.9866 7.52708 12.0289 7.84155 11.9132C8.15602 11.7975 8.35267 11.6503 8.61473 11.7556C8.87679 11.8608 8.9552 12.0185 9.20426 12.0398C9.45332 12.0612 9.63655 12.2084 9.53173 12.3241C9.4269 12.4399 8.60131 12.4818 8.0512 12.4818C7.50108 12.4818 6.55054 12.387 6.79331 12.1656Z" fill="#FFAC33"/>
</g>
</svg>
