<svg width="20" height="20" viewBox="0 0 20 20" fill="none" xmlns="http://www.w3.org/2000/svg">
<path id="Vector" d="M9.97815 15.3025C10.3802 15.3025 10.6959 15.1951 10.9253 14.9803C11.1546 14.7656 11.2693 14.4571 11.2693 14.0551C11.2693 13.653 11.1579 13.3333 10.9353 13.0961C10.7126 12.8588 10.4002 12.7402 9.99813 12.7402C9.59605 12.7402 9.28035 12.8573 9.05101 13.0915C8.82167 13.3257 8.707 13.6438 8.707 14.0459C8.707 14.448 8.81834 14.7579 9.04102 14.9758C9.2637 15.1936 9.57608 15.3025 9.97815 15.3025ZM10.056 11.1507C10.3745 11.1507 10.6327 11.0508 10.8304 10.8511C11.0281 10.6514 11.1269 10.3875 11.1269 10.0593V5.8363C11.1269 5.52353 11.0267 5.26739 10.8262 5.0679C10.6257 4.86842 10.3702 4.76868 10.0595 4.76868C9.74887 4.76868 9.48928 4.86842 9.28076 5.0679C9.07223 5.26739 8.96797 5.52353 8.96797 5.8363V10.0593C8.96797 10.3875 9.07521 10.6514 9.28968 10.8511C9.50414 11.0508 9.75957 11.1507 10.056 11.1507ZM9.98683 20C8.60996 20 7.31185 19.7422 6.0925 19.2265C4.87314 18.7108 3.81072 18.0002 2.90524 17.0948C1.99976 16.1893 1.28919 15.1263 0.773523 13.9059C0.257841 12.6855 0 11.3846 0 10.0033C0 8.62363 0.2583 7.3272 0.774899 6.11397C1.29151 4.90075 2.00486 3.83904 2.91495 2.92885C3.82503 2.01866 4.88673 1.30297 6.10005 0.78178C7.31336 0.260594 8.6081 0 9.98425 0C11.3661 0 12.6674 0.259849 13.888 0.779549C15.1087 1.29925 16.1715 2.01302 17.0767 2.92088C17.9818 3.82873 18.6953 4.8925 19.2172 6.1122C19.7391 7.33187 20 8.63394 20 10.0184C20 11.4019 19.7394 12.6979 19.2182 13.9065C18.697 15.1151 17.9813 16.1731 17.0712 17.0804C16.161 17.9877 15.0979 18.7012 13.882 19.2207C12.6662 19.7402 11.3678 20 9.98683 20ZM9.99457 17.841C12.1494 17.841 13.9919 17.0788 15.5221 15.5543C17.0522 14.0298 17.8173 12.1802 17.8173 10.0054C17.8173 7.85056 17.0555 6.00805 15.532 4.47791C14.0084 2.94776 12.1583 2.18268 9.98171 2.18268C7.82683 2.18268 5.98433 2.94446 4.45419 4.46802C2.92403 5.99158 2.15896 7.84167 2.15896 10.0183C2.15896 12.1732 2.92121 14.0157 4.44572 15.5458C5.97021 17.076 7.81983 17.841 9.99457 17.841Z" fill="#65676B"/>
</svg>
