<svg width="22" height="20" viewBox="0 0 22 20" fill="none" xmlns="http://www.w3.org/2000/svg">
<path id="Vector" d="M7.25526 15.0705L6.22783 19.0879C6.1578 19.368 6.02052 19.5901 5.81597 19.7541C5.61143 19.918 5.37464 20 5.10561 20C4.69653 20 4.37007 19.8458 4.12624 19.5376C3.88241 19.2292 3.81515 18.8804 3.92447 18.4909L4.80071 15.0705H1.54809C1.13901 15.0705 0.81533 14.9212 0.57706 14.6227C0.338771 14.3242 0.274283 13.9705 0.383596 13.5614C0.453643 13.3009 0.593069 13.0788 0.801875 12.8952C1.01068 12.7116 1.25942 12.6198 1.54809 12.6198H5.41434L6.74537 7.35075H3.49275C3.08367 7.35075 2.75999 7.20151 2.52172 6.90301C2.28343 6.60454 2.21894 6.25075 2.32826 5.84167C2.3983 5.58118 2.53773 5.35913 2.74653 5.1755C2.95534 4.99188 3.20408 4.90007 3.49275 4.90007H7.359L8.34032 0.912104C8.41035 0.631975 8.54763 0.40992 8.75217 0.24594C8.95672 0.0819797 9.20333 0 9.492 0C9.88144 0 10.1932 0.152016 10.4272 0.456051C10.6612 0.760086 10.7334 1.09145 10.6437 1.45016L9.82636 4.90007H15.0787L16.06 0.912104C16.1301 0.631975 16.2673 0.40992 16.4719 0.24594C16.6764 0.0819797 16.923 0 17.2117 0C17.6012 0 17.9129 0.152016 18.1469 0.456051C18.3809 0.760086 18.4531 1.09145 18.3634 1.45016L17.5461 4.90007H20.7987C21.1881 4.90007 21.502 5.05423 21.7403 5.36255C21.9786 5.67084 22.0529 6.01971 21.9632 6.40916C21.8735 6.68929 21.7243 6.91625 21.5154 7.09005C21.3066 7.26385 21.0677 7.35075 20.7987 7.35075H16.9196L15.6014 12.6198H18.854C19.2435 12.6198 19.5573 12.7739 19.7956 13.0823C20.0339 13.3906 20.1082 13.7394 20.0185 14.1289C19.9288 14.409 19.7796 14.636 19.5708 14.8098C19.362 14.9836 19.1231 15.0705 18.854 15.0705H14.975L13.9475 19.0879C13.8775 19.368 13.7402 19.5901 13.5357 19.7541C13.3311 19.918 13.0944 20 12.8253 20C12.4162 20 12.0898 19.8458 11.846 19.5376C11.6021 19.2292 11.5349 18.8804 11.6442 18.4909L12.5204 15.0705H7.25526ZM7.8817 12.6198H13.1341L14.4651 7.35075H9.19992L7.8817 12.6198Z" fill="#279B48"/>
</svg>
