<svg width="25" height="24" viewBox="0 0 25 24" fill="none" xmlns="http://www.w3.org/2000/svg">
<g id="Emoji">
<path id="Vector" d="M12.332 24C18.9594 24 24.332 18.6274 24.332 12C24.332 5.37258 18.9594 0 12.332 0C5.70461 0 0.332031 5.37258 0.332031 12C0.332031 18.6274 5.70461 24 12.332 24Z" fill="#FFCC4D"/>
<path id="Vector_2" d="M12.3314 13.9999C9.91605 13.9999 8.31338 13.7186 6.33138 13.3332C5.87871 13.2459 4.99805 13.3332 4.99805 14.6666C4.99805 17.3332 8.06138 20.6666 12.3314 20.6666C16.6007 20.6666 19.6647 17.3332 19.6647 14.6666C19.6647 13.3332 18.784 13.2452 18.3314 13.3332C16.3494 13.7186 14.7467 13.9999 12.3314 13.9999Z" fill="#664500"/>
<path id="Vector_3" d="M6.33203 14.6667C6.33203 14.6667 8.33203 15.3334 12.332 15.3334C16.332 15.3334 18.332 14.6667 18.332 14.6667C18.332 14.6667 16.9987 17.3334 12.332 17.3334C7.66536 17.3334 6.33203 14.6667 6.33203 14.6667Z" fill="white"/>
<path id="Vector_4" d="M8.33268 11.3334C9.25316 11.3334 9.99935 10.2887 9.99935 9.00008C9.99935 7.71142 9.25316 6.66675 8.33268 6.66675C7.41221 6.66675 6.66602 7.71142 6.66602 9.00008C6.66602 10.2887 7.41221 11.3334 8.33268 11.3334Z" fill="#664500"/>
<path id="Vector_5" d="M16.3327 11.3334C17.2532 11.3334 17.9993 10.2887 17.9993 9.00008C17.9993 7.71142 17.2532 6.66675 16.3327 6.66675C15.4122 6.66675 14.666 7.71142 14.666 9.00008C14.666 10.2887 15.4122 11.3334 16.3327 11.3334Z" fill="#664500"/>
</g>
</svg>
