<svg width="25" height="24" viewBox="0 0 25 24" fill="none" xmlns="http://www.w3.org/2000/svg">
<path id="Vector" d="M12.3078 24C10.6762 24 9.12643 23.6876 7.65856 23.0629C6.19066 22.4381 4.91297 21.5848 3.8255 20.503C2.73801 19.4212 1.8839 18.1466 1.26315 16.6792C0.642404 15.2118 0.332031 13.6551 0.332031 12.009C0.332031 10.3629 0.644409 8.80668 1.26916 7.34035C1.89394 5.87402 2.74638 4.59683 3.82651 3.50879C4.90663 2.42073 6.18078 1.56391 7.64896 0.938334C9.11715 0.312777 10.6747 0 12.3217 0C13.9687 0 15.526 0.314371 16.9936 0.943115C18.4612 1.57188 19.7386 2.42673 20.8259 3.50767C21.9131 4.58864 22.7693 5.8646 23.3944 7.33557C24.0195 8.80656 24.332 10.3587 24.332 11.9919V13.5561C24.332 14.7055 23.9166 15.673 23.0858 16.4588C22.2549 17.2446 21.257 17.6374 20.092 17.6374C19.3383 17.6374 18.6517 17.4665 18.0323 17.1245C17.4128 16.7826 16.9283 16.3037 16.5789 15.6879C16.0768 16.3527 15.4502 16.8438 14.6991 17.1613C13.948 17.4787 13.1579 17.6374 12.3289 17.6374C10.7657 17.6374 9.43112 17.0912 8.32505 15.9988C7.21899 14.9065 6.66596 13.5736 6.66596 12.0001C6.66596 10.4112 7.21732 9.06757 8.32004 7.96914C9.42277 6.8707 10.7548 6.32148 12.3162 6.32148C13.8776 6.32148 15.2122 6.87074 16.3201 7.96926C17.428 9.06776 17.9819 10.414 17.9819 12.0081V13.466C17.9819 14.0375 18.1881 14.5111 18.6004 14.8867C19.0128 15.2623 19.5057 15.4502 20.0791 15.4502C20.6371 15.4502 21.1155 15.2623 21.5143 14.8867C21.913 14.5111 22.1124 14.0375 22.1124 13.466V11.9919C22.1124 9.27534 21.1597 6.96748 19.2541 5.06833C17.3486 3.16918 15.0368 2.2196 12.3188 2.2196C9.60076 2.2196 7.29072 3.17237 5.38862 5.07792C3.48651 6.98347 2.53545 9.29525 2.53545 12.0133C2.53545 14.7313 3.48503 17.0413 5.38418 18.9434C7.28334 20.8455 9.5912 21.7966 12.3078 21.7966H17.3968C17.7045 21.7966 17.9613 21.9028 18.1672 22.1152C18.3732 22.3277 18.4761 22.5886 18.4761 22.8979C18.4761 23.214 18.3732 23.4767 18.1672 23.686C17.9613 23.8953 17.7045 24 17.3968 24H12.3078ZM12.3318 15.4502C13.2735 15.4502 14.0861 15.1088 14.7695 14.4259C15.4529 13.7431 15.7947 12.9351 15.7947 12.0019C15.7947 11.04 15.4503 10.2173 14.7616 9.53389C14.0729 8.85046 13.2577 8.50875 12.316 8.50875C11.3744 8.50875 10.5618 8.85254 9.87838 9.54014C9.19495 10.2277 8.85323 11.0524 8.85323 12.0143C8.85323 12.9476 9.19758 13.7535 9.88628 14.4322C10.575 15.1108 11.3902 15.4502 12.3318 15.4502Z" fill="#02558B"/>
</svg>
