<svg width="34" height="32" viewBox="0 0 34 32" fill="none" xmlns="http://www.w3.org/2000/svg">
<path id="Vector" d="M27.8168 10.3509C27.4003 10.3509 27.0529 10.2137 26.7746 9.9395C26.4964 9.6653 26.3572 9.29941 26.3572 8.84184V6.66337H24.1367C23.7381 6.66337 23.394 6.51902 23.1043 6.23031C22.8146 5.94158 22.6697 5.5849 22.6697 5.16028C22.6697 4.73566 22.8106 4.38404 23.0924 4.1054C23.3742 3.82676 23.7223 3.68744 24.1367 3.68744H26.3572V1.46691C26.3572 1.06837 26.4988 0.724247 26.7818 0.434531C27.0649 0.144843 27.4145 0 27.8308 0C28.247 0 28.6015 0.140889 28.8942 0.422668C29.1868 0.704447 29.3331 1.05253 29.3331 1.46691V3.68744H31.5116C31.9221 3.68744 32.2762 3.82921 32.5739 4.11276C32.8717 4.39631 33.0206 4.7504 33.0206 5.17505C33.0206 5.59967 32.8757 5.95387 32.5858 6.23767C32.296 6.52147 31.9379 6.66337 31.5116 6.66337H29.3331V8.84184C29.3331 9.26772 29.1875 9.62568 28.8963 9.91573C28.605 10.2058 28.2452 10.3509 27.8168 10.3509ZM8.50161 24.4861H25.364C25.6902 24.4861 25.9427 24.326 26.1217 24.0059C26.3006 23.6858 26.2822 23.3758 26.0664 23.0758L21.6382 17.1971C21.4677 16.985 21.2401 16.8819 20.9552 16.888C20.6703 16.8941 20.4358 17.0112 20.2517 17.2392L15.6405 23.3173L12.328 19.0244C12.1418 18.7964 11.9101 18.6823 11.6332 18.6823C11.3563 18.6823 11.1257 18.7964 10.9416 19.0244L7.81752 23.0758C7.56146 23.3881 7.52245 23.7012 7.70049 24.0151C7.8785 24.3291 8.14554 24.4861 8.50161 24.4861ZM4.50138 32C3.52799 32 2.6975 31.6602 2.00992 30.9805C1.32232 30.3008 0.978516 29.4743 0.978516 28.5009V3.6198C0.978516 2.6464 1.32232 1.81591 2.00992 1.12834C2.6975 0.440757 3.52799 0.096969 4.50138 0.096969H19.0664C19.572 0.096969 19.9935 0.265595 20.3309 0.602849C20.6683 0.940131 20.837 1.35559 20.837 1.84923V6.67801C20.837 7.19902 21.0056 7.62437 21.3429 7.95405C21.6802 8.28373 22.0956 8.44857 22.5893 8.44857H24.5482V10.3893C24.5482 10.9102 24.7168 11.3356 25.0541 11.6653C25.3914 11.995 25.8068 12.1598 26.3005 12.1598H31.111C31.6007 12.1598 32.0182 12.3285 32.3636 12.6657C32.7089 13.003 32.8815 13.4105 32.8815 13.8883V28.5009C32.8815 29.4743 32.5307 30.3008 31.8291 30.9805C31.1275 31.6602 30.312 32 29.3825 32H4.50138Z" fill="#65676B"/>
</svg>
