<svg width="10" height="10" viewBox="0 0 10 10" fill="none" xmlns="http://www.w3.org/2000/svg">
<path id="close" d="M5.01098 6.07133L1.29915 9.77282C1.15121 9.92075 0.971986 9.99644 0.761486 9.99989C0.550997 10.0033 0.375229 9.92499 0.234179 9.76487C0.079362 9.61693 0.00327649 9.44209 0.00592284 9.24034C0.00856919 9.03858 0.0873071 8.85765 0.242137 8.69752L3.94601 5.00398L0.234179 1.28419C0.079362 1.13627 0.00195312 0.961425 0.00195312 0.759668C0.00195312 0.557924 0.079362 0.376984 0.234179 0.21685C0.375229 0.0689226 0.550997 -0.00332183 0.761486 0.000117201C0.971986 0.00356843 1.15121 0.0792638 1.29915 0.227203L5.01098 3.92868L8.7069 0.227203C8.85484 0.0792638 9.03405 0.00356843 9.24456 0.000117201C9.45504 -0.00332183 9.63081 0.0689226 9.77186 0.21685C9.92668 0.376984 10.0028 0.557924 10.0001 0.759668C9.99747 0.961425 9.92483 1.13627 9.7822 1.28419L6.07832 5.00398L9.7822 8.69752C9.92483 8.85235 9.99747 9.03197 10.0001 9.23637C10.0028 9.44076 9.92668 9.61693 9.77186 9.76487C9.63081 9.92499 9.45504 10.0033 9.24456 9.99989C9.03405 9.99644 8.85484 9.92075 8.7069 9.77282L5.01098 6.07133Z" fill="#EC5D5D"/>
</svg>
