<svg width="10" height="10" viewBox="0 0 10 10" fill="none" xmlns="http://www.w3.org/2000/svg">
<g id="crown-svgrepo-com 2" clip-path="url(#clip0_1469_605)">
<path id="Vector" d="M10 4.49386C10 3.91531 9.52932 3.44463 8.95077 3.44463C8.37223 3.44463 7.90155 3.91531 7.90155 4.49386C7.90155 4.75704 7.99918 4.99767 8.15977 5.18204L7.07514 6.17704L5.69182 3.31826L6.50032 2.36863L5.00568 0.613037L3.51109 2.36867L4.28359 3.27604L2.91014 6.16077L1.84073 5.18149C2.00109 4.99717 2.0985 4.75676 2.0985 4.49386C2.0985 3.91531 1.62782 3.44463 1.04927 3.44463C0.470682 3.44463 0 3.91531 0 4.49386C0 5.02995 0.404318 5.47317 0.924 5.53536L1.2455 9.38695H8.75455L9.07605 5.53536C9.59568 5.47317 10 5.02995 10 4.49386Z" fill="#02558B"/>
</g>
<defs>
<clipPath id="clip0_1469_605">
<rect width="10" height="10" fill="white"/>
</clipPath>
</defs>
</svg>
