<svg width="24" height="25" viewBox="0 0 24 25" fill="none" xmlns="http://www.w3.org/2000/svg">
<g id="language_FILL0_wght400_GRAD200_opsz48 1">
<path id="Vector" d="M12.0074 22.9193C10.5525 22.9193 9.19164 22.6485 7.92498 22.1068C6.65831 21.5652 5.55414 20.8235 4.61248 19.8818C3.67081 18.9402 2.93331 17.8323 2.39998 16.5581C1.86664 15.284 1.59998 13.9171 1.59998 12.4576C1.59998 11.0154 1.86664 9.66099 2.39998 8.39432C2.93331 7.12766 3.67081 6.03182 4.61248 5.10682C5.55414 4.18182 6.65788 3.45266 7.9237 2.91932C9.1895 2.38599 10.5522 2.11932 12.0117 2.11932C13.4539 2.11932 14.8083 2.38599 16.075 2.91932C17.3416 3.45266 18.4458 4.18182 19.3875 5.10682C20.3291 6.03182 21.0666 7.12881 21.6 8.39777C22.1333 9.66674 22.4 11.0239 22.4 12.4693C22.4 13.9261 22.1333 15.2902 21.6 16.5619C21.0666 17.8335 20.3291 18.9402 19.3875 19.8818C18.4458 20.8235 17.3398 21.5652 16.0693 22.1068C14.7989 22.6485 13.4449 22.9193 12.0074 22.9193ZM12 21.1193C12.5833 20.536 13.0625 19.8568 13.4375 19.0818C13.8125 18.3068 14.125 17.3943 14.375 16.3443H9.64998C9.88331 17.3277 10.1924 18.2206 10.5773 19.0233C10.9622 19.8259 11.4364 20.5246 12 21.1193ZM9.74998 20.7943C9.34998 20.1943 9.00518 19.5333 8.7156 18.8112C8.42602 18.0891 8.17914 17.2668 7.97498 16.3443H4.27498C4.87498 17.4911 5.59164 18.3986 6.42498 19.0669C7.25831 19.7352 8.36664 20.311 9.74998 20.7943ZM14.275 20.7693C15.4416 20.4027 16.5 19.836 17.45 19.0693C18.4 18.3027 19.1666 17.3943 19.75 16.3443H16.0785C15.8595 17.2443 15.6041 18.0568 15.3125 18.7818C15.0208 19.5068 14.675 20.1693 14.275 20.7693ZM3.72585 14.7193H7.67498C7.62498 14.286 7.59581 13.8902 7.58748 13.5318C7.57914 13.1735 7.57498 12.8193 7.57498 12.4693C7.57498 12.0527 7.58331 11.6818 7.59998 11.3568C7.61664 11.0318 7.64998 10.6777 7.69998 10.2943H3.72585C3.6086 10.6777 3.52914 11.0277 3.48748 11.3443C3.44581 11.661 3.42498 12.036 3.42498 12.4693C3.42498 12.9027 3.44581 13.2902 3.48748 13.6318C3.52914 13.9735 3.6086 14.336 3.72585 14.7193ZM9.35075 14.7193H14.675C14.7416 14.2193 14.7833 13.8068 14.8 13.4818C14.8166 13.1568 14.825 12.8193 14.825 12.4693C14.825 12.136 14.8166 11.8152 14.8 11.5068C14.7833 11.1985 14.7414 10.7943 14.6742 10.2943H9.34998C9.28331 10.7943 9.24164 11.1985 9.22498 11.5068C9.20831 11.8152 9.19998 12.136 9.19998 12.4693C9.19998 12.8193 9.20831 13.1568 9.22498 13.4818C9.24164 13.8068 9.28357 14.2193 9.35075 14.7193ZM16.325 14.7193H20.3C20.4 14.336 20.4708 13.9735 20.5125 13.6318C20.5541 13.2902 20.575 12.9027 20.575 12.4693C20.575 12.036 20.5541 11.661 20.5125 11.3443C20.4708 11.0277 20.4 10.6777 20.3 10.2943H16.35C16.3833 10.8777 16.4083 11.3208 16.425 11.6237C16.4416 11.9266 16.45 12.2085 16.45 12.4693C16.45 12.836 16.4375 13.1818 16.4125 13.5068C16.3875 13.8318 16.3583 14.236 16.325 14.7193ZM16.0535 8.66932H19.75C19.2 7.55266 18.45 6.61099 17.5 5.84432C16.55 5.07766 15.4666 4.53599 14.25 4.21932C14.65 4.81932 14.9958 5.47349 15.2875 6.18182C15.5791 6.89016 15.8345 7.71932 16.0535 8.66932ZM9.64998 8.66932H14.4C14.2166 7.82397 13.9166 6.98347 13.5 6.1478C13.0833 5.31215 12.5833 4.56099 12 3.89432C11.4833 4.37766 11.0458 4.98599 10.6875 5.71932C10.3291 6.45266 9.98331 7.43599 9.64998 8.66932ZM4.27498 8.66932H7.99538C8.18178 7.76932 8.41248 6.96932 8.68748 6.26932C8.96248 5.56932 9.30831 4.89432 9.72498 4.24432C8.50831 4.56099 7.43331 5.09016 6.49998 5.83182C5.56664 6.57349 4.82498 7.51932 4.27498 8.66932Z" fill="white"/>
</g>
</svg>
