<svg width="18" height="16" viewBox="0 0 18 16" fill="none" xmlns="http://www.w3.org/2000/svg">
<path id="Vector" d="M8.96805 16C8.72787 16 8.49476 15.9611 8.26871 15.8834C8.04266 15.8057 7.8378 15.6751 7.65414 15.4914L6.55215 14.453C4.80028 12.8565 3.28151 11.3024 1.99586 9.79073C0.710209 8.27903 0.0673828 6.66843 0.0673828 4.95894C0.0673828 3.56026 0.533608 2.38411 1.46606 1.43046C2.39851 0.476821 3.55701 0 4.94156 0C5.64796 0 6.34729 0.155408 7.03957 0.466225C7.73184 0.777042 8.37467 1.29978 8.96805 2.03444C9.63206 1.29978 10.289 0.777042 10.9389 0.466225C11.5888 0.155408 12.274 0 12.9945 0C14.3932 0 15.5658 0.476821 16.5124 1.43046C17.459 2.38411 17.9323 3.56026 17.9323 4.95894C17.9323 6.66843 17.2753 8.28256 15.9614 9.80132C14.6475 11.3201 13.1288 12.8777 11.4051 14.4742L10.3031 15.4914C10.1195 15.6751 9.91109 15.8057 9.67798 15.8834C9.44487 15.9611 9.20822 16 8.96805 16Z" fill="#B40000"/>
</svg>
