<svg width="18" height="16" viewBox="0 0 18 16" fill="none" xmlns="http://www.w3.org/2000/svg">
<path id="Vector" d="M7.48887 15.4333C5.98449 13.8618 4.76053 12.5388 3.81699 11.4645C2.87343 10.3901 2.12796 9.46662 1.58057 8.69411C1.03316 7.92159 0.665432 7.23727 0.477384 6.64113C0.289336 6.04499 0.195312 5.45313 0.195312 4.86555C0.195312 3.52284 0.650609 2.37624 1.5612 1.42575C2.4718 0.47525 3.59531 0 4.93174 0C5.58755 0 6.24149 0.137678 6.89356 0.413033C7.54564 0.688389 8.14704 1.07456 8.69775 1.57154L7.83139 5.64143C7.79109 5.78392 7.82603 5.92028 7.9362 6.05051C8.04637 6.18075 8.18859 6.24587 8.36287 6.24587H9.74545L9.08056 11.7813C9.06713 11.8815 9.10743 11.9377 9.20145 11.9498C9.29548 11.9618 9.36263 11.9276 9.40293 11.847L10.9342 6.08468C10.9476 5.95036 10.907 5.81604 10.8124 5.68173C10.7177 5.54741 10.5972 5.48025 10.4506 5.48025H8.95967L10.2894 0.584291C10.6655 0.396243 11.0832 0.25185 11.5424 0.15111C12.0017 0.0503699 12.5017 0 13.0424 0C14.3614 0 15.4849 0.475653 16.4128 1.42696C17.3407 2.37826 17.8046 3.5234 17.8046 4.86237C17.8046 5.4491 17.6998 6.039 17.4902 6.63207C17.2806 7.22513 16.8901 7.91038 16.3189 8.68782C15.7476 9.46526 14.9626 10.4011 13.9637 11.4952C12.9649 12.5894 11.6729 13.9155 10.088 15.4736C9.89991 15.6483 9.69843 15.7826 9.48352 15.8766C9.26861 15.9706 9.03355 16.0109 8.77834 15.9975C8.52314 15.984 8.28136 15.9337 8.05302 15.8464C7.82467 15.7591 7.63663 15.6214 7.48887 15.4333ZM2.02878 4.85328C2.02878 5.28543 2.10024 5.72413 2.24315 6.16939C2.38607 6.61464 2.64799 7.10808 3.02892 7.6497C3.40985 8.19133 3.91933 8.82817 4.55735 9.56021C5.19536 10.2923 6.01136 11.1553 7.00532 12.1492C7.01875 12.1895 7.0651 12.2009 7.14434 12.1832C7.22359 12.1656 7.27128 12.1341 7.28739 12.0888L7.79109 7.69652H7.48887C6.99189 7.53534 6.58893 7.24655 6.28 6.83016C5.97106 6.41377 5.8977 5.81915 6.05992 5.0463L6.68296 2.37746C6.40808 2.23681 6.123 2.11435 5.82771 2.01006C5.53241 1.90576 5.2276 1.85361 4.91328 1.85361C4.09668 1.85361 3.41179 2.14332 2.85859 2.72274C2.30538 3.30215 2.02878 4.01233 2.02878 4.85328ZM15.951 4.86348C15.951 4.01222 15.6713 3.29777 15.1119 2.72012C14.5524 2.14245 13.8672 1.85361 13.0561 1.85361C12.8325 1.85361 12.621 1.86129 12.4218 1.87664C12.2225 1.89199 12.0154 1.93805 11.8005 2.0148L11.2364 3.949H11.3371C11.7804 4.01616 12.1598 4.24786 12.4755 4.64411C12.7911 5.04035 12.8482 5.64143 12.6468 6.44735L11.5073 10.7383C11.4879 10.8081 11.5017 10.8592 11.5487 10.8916C11.5957 10.9241 11.6729 10.9135 11.7804 10.8598C12.5729 10.1076 13.2411 9.44268 13.7851 8.8651C14.3291 8.28753 14.7623 7.7704 15.0847 7.31371C15.407 6.85702 15.632 6.43386 15.7596 6.04423C15.8872 5.65458 15.951 5.261 15.951 4.86348Z" fill="#65676B"/>
</svg>
