<svg width="61" height="60" viewBox="0 0 61 60" fill="none" xmlns="http://www.w3.org/2000/svg">
<g id="identity-card">
<g id="Dark tone">
<path d="M25.8125 6.5625C23.7414 6.5625 22.0625 8.24143 22.0625 10.3125V12.1875H8.9375C6.86643 12.1875 5.1875 13.8664 5.1875 15.9375V51.5625C5.1875 53.6336 6.86643 55.3125 8.9375 55.3125H51.125C53.1961 55.3125 54.875 53.6336 54.875 51.5625V42.0454C55.5501 41.8352 56.1647 41.392 56.585 40.7156L57.1372 39.827C57.3899 39.4204 57.7329 39.0774 58.1395 38.8247L59.0281 38.2725C60.9906 37.053 60.9906 34.197 59.0281 32.9775L58.1395 32.4253C57.7329 32.1726 57.3899 31.8296 57.1372 31.423L56.585 30.5344C56.1647 29.858 55.5501 29.4148 54.875 29.2046V15.9375C54.875 13.8664 53.1961 12.1875 51.125 12.1875H39.875V10.3125C39.875 8.24143 38.1961 6.5625 36.125 6.5625H25.8125Z" fill="#050505"/>
<path d="M4.76335 1.53584C5.09131 0.738053 6.22119 0.738054 6.54915 1.53584L7.19056 3.09609C7.28859 3.33455 7.47793 3.52389 7.7164 3.62192L9.27666 4.26332C10.0744 4.59129 10.0744 5.72116 9.27666 6.04912L7.7164 6.69052C7.47793 6.78855 7.28859 6.97789 7.19056 7.21635L6.54915 8.7766C6.22119 9.57439 5.09131 9.57439 4.76335 8.7766L4.12194 7.21635C4.02391 6.97789 3.83457 6.78855 3.5961 6.69052L2.03584 6.04912C1.23805 5.72116 1.23805 4.59129 2.03584 4.26332L3.5961 3.62192C3.83457 3.52389 4.02391 3.33455 4.12194 3.09609L4.76335 1.53584Z" fill="#050505"/>
<path d="M54.4291 4.36293C54.765 3.54569 55.9225 3.54569 56.2584 4.36293L56.3393 4.55956C56.4397 4.80383 56.6337 4.9978 56.8779 5.09822L57.0746 5.17905C57.8918 5.51501 57.8918 6.67243 57.0746 7.00839L56.8779 7.08922C56.6337 7.18964 56.4397 7.38361 56.3393 7.62788L56.2584 7.82451C55.9225 8.64175 54.765 8.64175 54.4291 7.82451L54.3482 7.62788C54.2478 7.38361 54.0538 7.18964 53.8096 7.08922L53.6129 7.00839C52.7957 6.67243 52.7957 5.51501 53.6129 5.17905L53.8096 5.09822C54.0538 4.9978 54.2478 4.80383 54.3482 4.55956L54.4291 4.36293Z" fill="#050505"/>
</g>
<path id="Mid tone" fill-rule="evenodd" clip-rule="evenodd" d="M13.625 51.5625V23.4375H53V29.0625H49.25C48.2311 29.0625 47.2122 29.5531 46.6025 30.5344L46.0503 31.423C45.7976 31.8296 45.4546 32.1726 45.048 32.4253L44.1594 32.9775C42.1969 34.197 42.1969 37.053 44.1594 38.2725L45.048 38.8247C45.4546 39.0774 45.7976 39.4204 46.0503 39.827L46.6025 40.7156C47.2122 41.6969 48.2311 42.1875 49.25 42.1875H53V51.5625C53 52.598 52.1605 53.4375 51.125 53.4375H15.5C14.4645 53.4375 13.625 52.598 13.625 51.5625ZM19.25 30.9375C19.25 29.902 20.0895 29.0625 21.125 29.0625H36.125C37.1605 29.0625 38 29.902 38 30.9375V45C38 46.0355 37.1605 46.875 36.125 46.875H21.125C20.0895 46.875 19.25 46.0355 19.25 45V30.9375Z" fill="#0364A4"/>
<g id="Light tone">
<path d="M25.5 41.25H31.75C33.954 41.25 35.7774 42.8798 36.0807 45H21.1693C21.4726 42.8798 23.296 41.25 25.5 41.25Z" fill="white"/>
<path d="M31.4375 35.625C31.4375 37.1783 30.1783 38.4375 28.625 38.4375C27.0717 38.4375 25.8125 37.1783 25.8125 35.625C25.8125 34.0717 27.0717 32.8125 28.625 32.8125C30.1783 32.8125 31.4375 34.0717 31.4375 35.625Z" fill="white"/>
<path d="M54.9954 31.5256L55.5471 32.4133C55.951 33.0633 56.4992 33.6115 57.1492 34.0154L58.0369 34.5671C58.821 35.0544 58.8211 36.1956 58.0369 36.6829L57.1492 37.2346C56.4992 37.6385 55.951 38.1867 55.5471 38.8367L54.9954 39.7244C54.5081 40.5085 53.3669 40.5086 52.8796 39.7244L52.3279 38.8367C51.924 38.1867 51.3758 37.6385 50.7258 37.2346L49.8381 36.6829C49.054 36.1956 49.0539 35.0544 49.8381 34.5671L50.7258 34.0154C51.3758 33.6115 51.924 33.0633 52.3279 32.4133L52.8796 31.5256C53.3669 30.7415 54.5081 30.7414 54.9954 31.5256Z" fill="white"/>
<path d="M25.8125 14.0625H15.5C14.4645 14.0625 13.625 14.902 13.625 15.9375V21.5625H53V15.9375C53 14.902 52.1605 14.0625 51.125 14.0625H39.875V15C39.875 16.5533 38.6158 17.8125 37.0625 17.8125H28.625C27.0717 17.8125 25.8125 16.5533 25.8125 15V14.0625Z" fill="white"/>
<path d="M31.4375 8.4375H36.125C37.1605 8.4375 38 9.27697 38 10.3125V15C38 15.5178 37.5803 15.9375 37.0625 15.9375H30.5C29.9822 15.9375 29.5625 15.5178 29.5625 15V10.3125C29.5625 9.27697 30.402 8.4375 31.4375 8.4375Z" fill="white"/>
</g>
</g>
</svg>
