<svg width="24" height="24" viewBox="0 0 24 24" fill="none" xmlns="http://www.w3.org/2000/svg">
<g id="more_vert_FILL1_wght700_GRAD200_opsz48 1">
<path id="Vector" d="M11.8386 20.625C11.4298 20.625 11.0879 20.4849 10.8129 20.2048C10.5379 19.9247 10.4004 19.5879 10.4004 19.1945C10.4004 18.8098 10.5369 18.4688 10.8099 18.1713C11.0829 17.8738 11.417 17.725 11.8122 17.725C12.221 17.725 12.5629 17.8734 12.8379 18.17C13.1129 18.4667 13.2504 18.8084 13.2504 19.195C13.2504 19.5817 13.1143 19.9167 12.8421 20.2C12.57 20.4833 12.2355 20.625 11.8386 20.625ZM11.8386 13.35C11.4298 13.35 11.0879 13.2135 10.8129 12.9405C10.5379 12.6675 10.4004 12.3334 10.4004 11.9382C10.4004 11.5294 10.5369 11.1875 10.8099 10.9125C11.0829 10.6375 11.417 10.5 11.8122 10.5C12.221 10.5 12.5629 10.6361 12.8379 10.9083C13.1129 11.1804 13.2504 11.5149 13.2504 11.9118C13.2504 12.3206 13.1143 12.6625 12.8421 12.9375C12.57 13.2125 12.2355 13.35 11.8386 13.35ZM11.8386 6.12501C11.4298 6.12501 11.0879 5.98117 10.8129 5.69349C10.5379 5.4058 10.4004 5.05997 10.4004 4.65599C10.4004 4.252 10.5369 3.90835 10.8099 3.62501C11.0829 3.34168 11.417 3.20001 11.8122 3.20001C12.221 3.20001 12.5629 3.34233 12.8379 3.62696C13.1129 3.91158 13.2504 4.25415 13.2504 4.65466C13.2504 5.06205 13.1143 5.40895 12.8421 5.69539C12.57 5.9818 12.2355 6.12501 11.8386 6.12501Z" fill="black"/>
</g>
</svg>
