<svg width="11" height="10" viewBox="0 0 11 10" fill="none" xmlns="http://www.w3.org/2000/svg">
<path id="Vector" d="M4.93537 6.049H2.02572C1.72965 6.049 1.48208 5.94589 1.283 5.73966C1.08392 5.53344 0.984375 5.28943 0.984375 5.00766C0.984375 4.71159 1.08392 4.46401 1.283 4.26493C1.48208 4.06585 1.72965 3.96631 2.02572 3.96631H4.93537V1.04135C4.93537 0.759571 5.03848 0.515569 5.24471 0.309342C5.45094 0.103114 5.69494 0 5.97672 0C6.25849 0 6.5025 0.103114 6.70872 0.309342C6.91495 0.515569 7.01807 0.759571 7.01807 1.04135V3.96631H9.92771C10.2238 3.96631 10.4714 4.06585 10.6704 4.26493C10.8695 4.46401 10.9691 4.70903 10.9691 5C10.9691 5.29096 10.8695 5.53854 10.6704 5.74273C10.4714 5.94691 10.2238 6.049 9.92771 6.049H7.01807V8.95865C7.01807 9.24043 6.91495 9.48443 6.70872 9.69066C6.5025 9.89689 6.25849 10 5.97672 10C5.69494 10 5.45094 9.89689 5.24471 9.69066C5.03848 9.48443 4.93537 9.24043 4.93537 8.95865V6.049Z" fill="white"/>
</svg>
