<svg width="14" height="16" viewBox="0 0 14 16" fill="none" xmlns="http://www.w3.org/2000/svg">
<path id="repost" fill-rule="evenodd" clip-rule="evenodd" d="M9.57174 0.285729C9.95272 -0.0952432 10.5441 -0.0952432 10.9251 0.285729L13.6319 2.9925C13.7061 3.06674 13.7452 3.14361 13.7614 3.17619L13.8104 3.22519L13.8419 3.31948C13.9096 3.52265 13.9358 3.77783 13.8492 4.00514C13.8245 4.10751 13.7738 4.18173 13.7454 4.21955C13.7064 4.27153 13.6601 4.31773 13.6365 4.34119C13.6349 4.34286 13.6333 4.34442 13.6319 4.34585L10.9251 7.05262C10.7327 7.24501 10.4608 7.33835 10.2484 7.33835C10.036 7.33835 9.76414 7.24501 9.57174 7.05262C9.19077 6.67164 9.19077 6.08024 9.57174 5.69926L10.6394 4.63158H4.29353C3.01029 4.63158 2.00782 5.63405 2.00782 6.91729C2.00782 7.17538 1.91995 7.42318 1.73562 7.6075C1.5513 7.79183 1.3035 7.8797 1.04541 7.8797C0.787324 7.8797 0.539532 7.79183 0.355203 7.6075C0.170875 7.42318 0.0830078 7.17538 0.0830078 6.91729C0.0830078 4.57347 1.94972 2.70677 4.29353 2.70677H10.6394L9.57174 1.63908C9.19077 1.25811 9.19077 0.666702 9.57174 0.285729ZM10.2484 0.842105C10.2283 0.842105 10.199 0.84936 10.1672 0.881188C10.1354 0.913016 10.1281 0.942251 10.1281 0.962406C10.1281 0.982561 10.1354 1.0118 10.1672 1.04362L12.6725 3.54887H4.29353C2.4148 3.54887 0.925113 5.03856 0.925113 6.91729C0.925113 6.98402 0.945516 7.0069 0.950662 7.01204C0.955807 7.01719 0.978691 7.03759 1.04541 7.03759C1.11214 7.03759 1.13502 7.01719 1.14017 7.01204C1.14531 7.0069 1.16571 6.98402 1.16571 6.91729C1.16571 5.16896 2.5452 3.78947 4.29353 3.78947H12.6725L10.1672 6.29472C10.1354 6.32655 10.1281 6.35579 10.1281 6.37594C10.1281 6.39609 10.1354 6.42533 10.1672 6.45716C10.1734 6.4634 10.1896 6.47548 10.2153 6.48575C10.2271 6.49046 10.2376 6.49347 10.2455 6.49512C10.2466 6.49535 10.2476 6.49554 10.2484 6.4957C10.2493 6.49554 10.2502 6.49535 10.2513 6.49512C10.2592 6.49347 10.2698 6.49046 10.2815 6.48575C10.3072 6.47548 10.3234 6.4634 10.3296 6.45716L13.0364 3.75039C13.0385 3.74834 13.0404 3.7464 13.0422 3.74456L13.061 3.70707C13.0614 3.7037 13.062 3.69794 13.062 3.68947C13.062 3.67641 13.0606 3.66022 13.0573 3.64164C13.0367 3.60962 13.0231 3.58275 13.0151 3.56666L10.3296 0.881188C10.2978 0.84936 10.2686 0.842105 10.2484 0.842105ZM12.265 8.3925C12.4493 8.20817 12.6971 8.1203 12.9552 8.1203C13.2133 8.1203 13.4611 8.20817 13.6454 8.3925C13.8297 8.57682 13.9176 8.82462 13.9176 9.08271C13.9176 11.4265 12.0509 13.2932 9.70707 13.2932H3.36117L4.42886 14.3609C4.80983 14.7419 4.80983 15.3333 4.42886 15.7143C4.34986 15.7933 4.25414 15.8693 4.13296 15.9231C4.00995 15.9778 3.88251 16 3.75218 16C3.62185 16 3.49441 15.9778 3.3714 15.9231C3.25022 15.8693 3.1545 15.7933 3.0755 15.7143L0.368737 13.0075C0.294491 12.9333 0.255369 12.8564 0.239178 12.8238L0.190182 12.7748L0.15875 12.6805C0.091026 12.4773 0.0648341 12.2222 0.151382 11.9949C0.176055 11.8925 0.226825 11.8183 0.255188 11.7805C0.294172 11.7285 0.340527 11.6823 0.364063 11.6588C0.365741 11.6571 0.367303 11.6556 0.368737 11.6542L3.0755 8.94738C3.45648 8.56641 4.04788 8.56641 4.42886 8.94738C4.80983 9.32836 4.80983 9.91976 4.42886 10.3007L3.36117 11.3684H9.70707C10.9903 11.3684 11.9928 10.366 11.9928 9.08271C11.9928 8.82462 12.0807 8.57682 12.265 8.3925ZM12.8604 8.98795C12.8553 8.9931 12.8349 9.01598 12.8349 9.08271C12.8349 10.831 11.4554 12.2105 9.70707 12.2105H1.32815L3.8334 9.70528C3.86523 9.67345 3.87248 9.64421 3.87248 9.62406C3.87248 9.6039 3.86523 9.57467 3.8334 9.54284C3.80157 9.51101 3.77234 9.50376 3.75218 9.50376C3.73203 9.50376 3.70279 9.51101 3.67096 9.54284L0.964196 12.2496C0.962141 12.2517 0.960204 12.2536 0.958371 12.2554L0.939624 12.2929C0.939177 12.2963 0.938647 12.3021 0.938647 12.3105C0.938647 12.3236 0.939972 12.3398 0.94328 12.3584C0.963912 12.3904 0.977493 12.4173 0.985485 12.4333L3.67096 15.1188C3.70024 15.1481 3.71279 15.1533 3.71341 15.1536C3.71416 15.1539 3.71592 15.1547 3.72032 15.1555C3.72511 15.1565 3.73504 15.1579 3.75218 15.1579C3.76932 15.1579 3.77925 15.1565 3.78405 15.1555C3.78844 15.1547 3.7902 15.1539 3.79095 15.1536C3.79157 15.1533 3.80412 15.1481 3.8334 15.1188C3.86523 15.087 3.87248 15.0577 3.87248 15.0376C3.87248 15.0174 3.86523 14.9882 3.8334 14.9564L1.32815 12.4511H9.70707C11.5858 12.4511 13.0755 10.9614 13.0755 9.08271C13.0755 9.01598 13.0551 8.9931 13.0499 8.98795C13.0448 8.98281 13.0219 8.96241 12.9552 8.96241C12.8885 8.96241 12.8656 8.98281 12.8604 8.98795Z" fill="#65676B"/>
</svg>
