<svg width="15" height="16" viewBox="0 0 15 16" fill="none" xmlns="http://www.w3.org/2000/svg">
<path id="Vector" fill-rule="evenodd" clip-rule="evenodd" d="M6.75904 0.504639C5.68082 0.504755 4.61831 0.763164 3.66047 1.25823C2.70263 1.7533 1.87732 2.47063 1.25363 3.35015C0.629947 4.22968 0.226031 5.24582 0.0756982 6.31351C-0.0746344 7.3812 0.0329914 8.46936 0.389566 9.48691C0.74614 10.5045 1.34129 11.4218 2.12519 12.1621C2.90908 12.9024 3.85892 13.4442 4.89519 13.742C5.93145 14.0398 7.02399 14.0851 8.08134 13.874C9.13869 13.6629 10.1301 13.2016 10.9725 12.5286L13.7288 15.2849C13.8702 15.4215 14.0597 15.4971 14.2563 15.4954C14.453 15.4937 14.6411 15.4148 14.7801 15.2758C14.9192 15.1367 14.9981 14.9486 14.9998 14.7519C15.0015 14.5553 14.9259 14.3658 14.7893 14.2244L12.033 11.4681C12.8265 10.475 13.3235 9.27805 13.4667 8.01497C13.6098 6.75188 13.3935 5.47403 12.8424 4.32851C12.2913 3.18299 11.428 2.21635 10.3518 1.53986C9.27558 0.86337 8.03021 0.504529 6.75904 0.504639ZM2.25904 7.25464C2.25904 6.66369 2.37543 6.07853 2.60158 5.53256C2.82772 4.9866 3.15919 4.49052 3.57706 4.07266C3.99492 3.65479 4.49099 3.32333 5.03696 3.09718C5.58293 2.87103 6.16809 2.75464 6.75904 2.75464C7.34998 2.75464 7.93515 2.87103 8.48111 3.09718C9.02708 3.32333 9.52315 3.65479 9.94102 4.07266C10.3589 4.49052 10.6903 4.9866 10.9165 5.53256C11.1426 6.07853 11.259 6.66369 11.259 7.25464C11.259 8.44811 10.7849 9.59271 9.94102 10.4366C9.0971 11.2805 7.95251 11.7546 6.75904 11.7546C5.56556 11.7546 4.42097 11.2805 3.57706 10.4366C2.73314 9.59271 2.25904 8.44811 2.25904 7.25464Z" fill="#65676B"/>
</svg>
