<svg width="16" height="16" viewBox="0 0 16 16" fill="none" xmlns="http://www.w3.org/2000/svg">
<path id="share" d="M12.6921 16C11.9856 16 11.3774 15.7436 10.8674 15.2308C10.3575 14.718 10.1025 14.1187 10.1025 13.4327C10.1025 13.3349 10.1152 13.2173 10.1405 13.0798C10.1659 12.9423 10.1913 12.8136 10.2166 12.6936L5.14244 9.72176C4.8978 9.97543 4.62109 10.1815 4.3123 10.3401C4.00351 10.4986 3.67244 10.5779 3.31908 10.5779C2.6223 10.5779 2.01862 10.3219 1.50806 9.80988C0.997477 9.2979 0.742188 8.69068 0.742188 7.98824C0.742188 7.28581 0.997477 6.68252 1.50806 6.17836C2.01862 5.6742 2.6223 5.42212 3.31908 5.42212C3.66795 5.42212 3.99473 5.4887 4.29942 5.62188C4.60411 5.75505 4.88329 5.94847 5.13696 6.20214L10.2166 3.26674C10.1913 3.17877 10.1659 3.0638 10.1405 2.92184C10.1152 2.77988 10.1025 2.65962 10.1025 2.56103C10.1025 1.86412 10.3567 1.26305 10.8652 0.757822C11.3737 0.252607 11.9812 0 12.6876 0C13.3804 0 13.982 0.252829 14.4925 0.758487C15.003 1.26413 15.2582 1.86818 15.2582 2.57062C15.2582 3.27304 15.003 3.87634 14.4924 4.3805C13.9818 4.88466 13.3781 5.13674 12.6813 5.13674C12.3108 5.13674 11.9782 5.08621 11.6833 4.98513C11.3885 4.88406 11.1261 4.7063 10.896 4.45184L5.80283 7.23346C5.8282 7.34433 5.85039 7.47712 5.86942 7.63185C5.88844 7.78657 5.89795 7.90765 5.89795 7.99507C5.89795 8.08251 5.88844 8.18621 5.86942 8.30617C5.85039 8.42612 5.8282 8.54152 5.80283 8.65238L10.896 11.5101C11.1261 11.3064 11.3833 11.1445 11.6677 11.0244C11.952 10.9043 12.2899 10.8442 12.6813 10.8442C13.3781 10.8442 13.9818 11.1002 14.4924 11.6122C15.003 12.1242 15.2582 12.7314 15.2582 13.4339C15.2582 14.1236 15.0037 14.7237 14.4947 15.2342C13.9857 15.7447 13.3848 16 12.6921 16Z" fill="#65676B"/>
</svg>
