<svg width="61" height="60" viewBox="0 0 61 60" fill="none" xmlns="http://www.w3.org/2000/svg">
<g id="speech-bubble">
<g id="Dark tone">
<path fill-rule="evenodd" clip-rule="evenodd" d="M5.1875 12.1875C5.1875 10.1164 6.86643 8.4375 8.9375 8.4375H52.0625C54.1336 8.4375 55.8125 10.1164 55.8125 12.1875V41.25C55.8125 43.3211 54.1336 45 52.0625 45H50.1875L50.1875 49.6875C50.1875 49.693 50.1875 49.6986 50.1875 49.7041C50.1811 51.335 49.234 52.5388 47.9997 53.0976C47.7643 53.2056 47.5158 53.29 47.2572 53.3476C46.9009 53.429 46.533 53.4604 46.1661 53.4375H44.2244C42.6477 53.4375 41.1434 52.7757 40.078 51.6135L34.0156 45H8.9375C6.86643 45 5.1875 43.3211 5.1875 41.25V12.1875Z" fill="#050505"/>
<path d="M7.57585 50.2858C7.90381 49.4881 9.03369 49.4881 9.36165 50.2858L10.0031 51.8461C10.1011 52.0846 10.2904 52.2739 10.5289 52.3719L12.0892 53.0133C12.8869 53.3413 12.8869 54.4712 12.0892 54.7992L10.5289 55.4406C10.2904 55.5386 10.1011 55.7279 10.0031 55.9664L9.36165 57.5267C9.03369 58.3244 7.90381 58.3244 7.57585 57.5267L6.93444 55.9664C6.83641 55.7279 6.64707 55.5386 6.4086 55.4406L4.84834 54.7992C4.05055 54.4712 4.05055 53.3413 4.84834 53.0133L6.4086 52.3719C6.64707 52.2739 6.83641 52.0846 6.93444 51.8461L7.57585 50.2858Z" fill="#050505"/>
<path d="M57.2416 49.3629C57.5775 48.5457 58.735 48.5457 59.0709 49.3629L59.1518 49.5596C59.2522 49.8038 59.4462 49.9978 59.6904 50.0982L59.8871 50.1791C60.7043 50.515 60.7043 51.6725 59.8871 52.0084L59.6904 52.0893C59.4462 52.1897 59.2522 52.3836 59.1518 52.6279L59.0709 52.8246C58.735 53.6418 57.5775 53.6418 57.2416 52.8246L57.1607 52.6279C57.0603 52.3836 56.8663 52.1897 56.6221 52.0893L56.4254 52.0084C55.6082 51.6725 55.6082 50.515 56.4254 50.1791L56.6221 50.0982C56.8663 49.9978 57.0603 49.8038 57.1607 49.5596L57.2416 49.3629Z" fill="#050505"/>
<path d="M55.3807 1.54098C55.7115 0.736341 56.851 0.736341 57.1818 1.54098L57.5451 2.42459C57.6439 2.6651 57.8349 2.85607 58.0754 2.95494L58.959 3.31819C59.7637 3.64897 59.7637 4.78853 58.959 5.11931L58.0754 5.48256C57.8349 5.58143 57.6439 5.7724 57.5451 6.01291L57.1818 6.89652C56.851 7.70116 55.7115 7.70116 55.3807 6.89652L55.0174 6.01291C54.9186 5.7724 54.7276 5.58143 54.4871 5.48256L53.6035 5.11931C52.7988 4.78853 52.7988 3.64897 53.6035 3.31819L54.4871 2.95494C54.7276 2.85607 54.9186 2.6651 55.0174 2.42459L55.3807 1.54098Z" fill="#050505"/>
</g>
<path id="Mid tone" fill-rule="evenodd" clip-rule="evenodd" d="M39.1719 43.125L44.9375 50.8125C46.0186 52.254 48.3125 51.4894 48.3125 49.6875V43.125H52.0625C53.098 43.125 53.9375 42.2855 53.9375 41.25V12.1875C53.9375 11.152 53.098 10.3125 52.0625 10.3125H15.5C14.4645 10.3125 13.625 11.152 13.625 12.1875V41.25C13.625 42.2855 14.4645 43.125 15.5 43.125H39.1719ZM23.4688 30.9375C25.7987 30.9375 27.6875 29.0487 27.6875 26.7187C27.6875 24.3888 25.7987 22.5 23.4688 22.5C21.1388 22.5 19.25 24.3888 19.25 26.7187C19.25 29.0487 21.1388 30.9375 23.4688 30.9375ZM38 26.7187C38 29.0487 36.1112 30.9375 33.7812 30.9375C31.4513 30.9375 29.5625 29.0487 29.5625 26.7187C29.5625 24.3888 31.4513 22.5 33.7812 22.5C36.1112 22.5 38 24.3888 38 26.7187ZM44.0938 30.9375C46.4237 30.9375 48.3125 29.0487 48.3125 26.7187C48.3125 24.3888 46.4237 22.5 44.0938 22.5C41.7638 22.5 39.875 24.3888 39.875 26.7187C39.875 29.0487 41.7638 30.9375 44.0938 30.9375Z" fill="#0364A4"/>
<g id="Light tone">
<path d="M25.8125 26.7188C25.8125 28.0132 24.7632 29.0625 23.4688 29.0625C22.1743 29.0625 21.125 28.0132 21.125 26.7188C21.125 25.4243 22.1743 24.375 23.4688 24.375C24.7632 24.375 25.8125 25.4243 25.8125 26.7188Z" fill="white"/>
<path d="M36.125 26.7188C36.125 28.0132 35.0757 29.0625 33.7812 29.0625C32.4868 29.0625 31.4375 28.0132 31.4375 26.7188C31.4375 25.4243 32.4868 24.375 33.7812 24.375C35.0757 24.375 36.125 25.4243 36.125 26.7188Z" fill="white"/>
<path d="M46.4375 26.7188C46.4375 28.0132 45.3882 29.0625 44.0938 29.0625C42.7993 29.0625 41.75 28.0132 41.75 26.7188C41.75 25.4243 42.7993 24.375 44.0938 24.375C45.3882 24.375 46.4375 25.4243 46.4375 26.7188Z" fill="white"/>
</g>
</g>
</svg>
